G04 EAGLE Gerber RS-274X export*
G75*
%MOMM*%
%FSLAX34Y34*%
%LPD*%
%INBottom Copper*%
%IPPOS*%
%AMOC8*
5,1,8,0,0,1.08239X$1,22.5*%
G01*
%ADD10C,1.208000*%
%ADD11C,1.650000*%
%ADD12R,1.676400X1.676400*%
%ADD13P,1.814519X8X292.500000*%
%ADD14R,3.116000X3.116000*%
%ADD15P,1.732040X8X22.500000*%
%ADD16C,1.600200*%
%ADD17P,1.429621X8X292.500000*%
%ADD18P,1.732040X8X292.500000*%
%ADD19P,1.732040X8X112.500000*%
%ADD20P,1.539592X8X112.500000*%
%ADD21P,1.429621X8X22.500000*%
%ADD22P,1.429621X8X202.500000*%
%ADD23P,1.429621X8X112.500000*%
%ADD24C,0.609600*%
%ADD25C,0.756400*%
%ADD26C,0.406400*%

G36*
X148026Y10172D02*
X148026Y10172D01*
X148098Y10174D01*
X148147Y10192D01*
X148198Y10200D01*
X148262Y10234D01*
X148329Y10259D01*
X148370Y10291D01*
X148416Y10316D01*
X148465Y10368D01*
X148521Y10412D01*
X148549Y10456D01*
X148585Y10494D01*
X148615Y10559D01*
X148654Y10619D01*
X148667Y10670D01*
X148689Y10717D01*
X148697Y10788D01*
X148714Y10858D01*
X148710Y10910D01*
X148716Y10961D01*
X148701Y11032D01*
X148695Y11103D01*
X148675Y11151D01*
X148664Y11202D01*
X148627Y11263D01*
X148599Y11329D01*
X148554Y11385D01*
X148537Y11413D01*
X148520Y11428D01*
X148494Y11460D01*
X144271Y15683D01*
X144271Y20397D01*
X144257Y20487D01*
X144249Y20578D01*
X144237Y20607D01*
X144232Y20639D01*
X144189Y20720D01*
X144153Y20804D01*
X144127Y20836D01*
X144116Y20857D01*
X144093Y20879D01*
X144048Y20935D01*
X135127Y29856D01*
X135127Y42474D01*
X135124Y42494D01*
X135126Y42513D01*
X135104Y42615D01*
X135088Y42717D01*
X135078Y42734D01*
X135074Y42754D01*
X135021Y42843D01*
X134972Y42934D01*
X134958Y42948D01*
X134948Y42965D01*
X134869Y43032D01*
X134794Y43104D01*
X134776Y43112D01*
X134761Y43125D01*
X134665Y43164D01*
X134571Y43207D01*
X134551Y43209D01*
X134533Y43217D01*
X134366Y43235D01*
X132155Y43235D01*
X129375Y44387D01*
X127758Y46004D01*
X127684Y46057D01*
X127614Y46117D01*
X127584Y46129D01*
X127558Y46148D01*
X127471Y46175D01*
X127386Y46209D01*
X127345Y46213D01*
X127323Y46220D01*
X127291Y46219D01*
X127219Y46227D01*
X125106Y46227D01*
X84327Y87006D01*
X84327Y137491D01*
X84313Y137581D01*
X84305Y137672D01*
X84293Y137701D01*
X84288Y137733D01*
X84245Y137814D01*
X84209Y137898D01*
X84183Y137930D01*
X84172Y137951D01*
X84149Y137973D01*
X84104Y138029D01*
X58927Y163206D01*
X58927Y319394D01*
X96804Y357271D01*
X96857Y357345D01*
X96917Y357415D01*
X96929Y357445D01*
X96948Y357471D01*
X96975Y357558D01*
X97009Y357643D01*
X97013Y357684D01*
X97020Y357706D01*
X97019Y357738D01*
X97027Y357809D01*
X97027Y578866D01*
X97024Y578886D01*
X97026Y578905D01*
X97004Y579007D01*
X96988Y579109D01*
X96978Y579126D01*
X96974Y579146D01*
X96921Y579235D01*
X96872Y579326D01*
X96858Y579340D01*
X96848Y579357D01*
X96769Y579424D01*
X96694Y579496D01*
X96676Y579504D01*
X96661Y579517D01*
X96565Y579556D01*
X96471Y579599D01*
X96451Y579601D01*
X96433Y579609D01*
X96266Y579627D01*
X71457Y579627D01*
X71367Y579613D01*
X71276Y579605D01*
X71246Y579593D01*
X71214Y579588D01*
X71133Y579545D01*
X71049Y579509D01*
X71017Y579483D01*
X70997Y579472D01*
X70974Y579449D01*
X70918Y579404D01*
X67077Y575563D01*
X59923Y575563D01*
X56082Y579404D01*
X56008Y579457D01*
X55938Y579517D01*
X55908Y579529D01*
X55882Y579548D01*
X55795Y579575D01*
X55710Y579609D01*
X55669Y579613D01*
X55647Y579620D01*
X55615Y579619D01*
X55543Y579627D01*
X46057Y579627D01*
X45967Y579613D01*
X45876Y579605D01*
X45846Y579593D01*
X45814Y579588D01*
X45733Y579545D01*
X45649Y579509D01*
X45617Y579483D01*
X45597Y579472D01*
X45574Y579449D01*
X45518Y579404D01*
X41677Y575563D01*
X34523Y575563D01*
X29463Y580623D01*
X29463Y587777D01*
X34523Y592837D01*
X41677Y592837D01*
X45518Y588996D01*
X45592Y588943D01*
X45662Y588883D01*
X45692Y588871D01*
X45718Y588852D01*
X45805Y588825D01*
X45890Y588791D01*
X45931Y588787D01*
X45953Y588780D01*
X45985Y588781D01*
X46057Y588773D01*
X55543Y588773D01*
X55633Y588787D01*
X55724Y588795D01*
X55754Y588807D01*
X55786Y588812D01*
X55867Y588855D01*
X55951Y588891D01*
X55983Y588917D01*
X56003Y588928D01*
X56026Y588951D01*
X56082Y588996D01*
X59923Y592837D01*
X67077Y592837D01*
X70918Y588996D01*
X70992Y588943D01*
X71062Y588883D01*
X71092Y588871D01*
X71118Y588852D01*
X71205Y588825D01*
X71290Y588791D01*
X71331Y588787D01*
X71353Y588780D01*
X71385Y588781D01*
X71457Y588773D01*
X96266Y588773D01*
X96286Y588776D01*
X96305Y588774D01*
X96407Y588796D01*
X96509Y588812D01*
X96526Y588822D01*
X96546Y588826D01*
X96635Y588879D01*
X96726Y588928D01*
X96740Y588942D01*
X96757Y588952D01*
X96824Y589031D01*
X96896Y589106D01*
X96904Y589124D01*
X96917Y589139D01*
X96956Y589235D01*
X96999Y589329D01*
X97001Y589349D01*
X97009Y589367D01*
X97027Y589534D01*
X97027Y624194D01*
X112406Y639573D01*
X161853Y639573D01*
X161943Y639587D01*
X162034Y639595D01*
X162063Y639607D01*
X162095Y639612D01*
X162176Y639655D01*
X162260Y639691D01*
X162292Y639717D01*
X162313Y639728D01*
X162335Y639751D01*
X162391Y639796D01*
X162902Y640307D01*
X167298Y640307D01*
X167809Y639796D01*
X167883Y639743D01*
X167953Y639683D01*
X167983Y639671D01*
X168009Y639652D01*
X168096Y639625D01*
X168181Y639591D01*
X168222Y639587D01*
X168244Y639580D01*
X168276Y639581D01*
X168347Y639573D01*
X277191Y639573D01*
X277281Y639587D01*
X277372Y639595D01*
X277401Y639607D01*
X277433Y639612D01*
X277514Y639655D01*
X277598Y639691D01*
X277630Y639717D01*
X277651Y639728D01*
X277673Y639751D01*
X277729Y639796D01*
X282556Y644622D01*
X282623Y644716D01*
X282693Y644811D01*
X282695Y644817D01*
X282699Y644822D01*
X282733Y644933D01*
X282770Y645045D01*
X282770Y645051D01*
X282771Y645057D01*
X282768Y645174D01*
X282767Y645291D01*
X282765Y645298D01*
X282765Y645303D01*
X282759Y645321D01*
X282721Y645452D01*
X282574Y645805D01*
X282574Y649595D01*
X284024Y653096D01*
X286704Y655776D01*
X290205Y657226D01*
X293995Y657226D01*
X297496Y655776D01*
X300176Y653096D01*
X301626Y649595D01*
X301626Y645805D01*
X300176Y642304D01*
X297496Y639624D01*
X293995Y638174D01*
X290205Y638174D01*
X289852Y638321D01*
X289738Y638347D01*
X289625Y638376D01*
X289619Y638375D01*
X289612Y638377D01*
X289496Y638366D01*
X289380Y638357D01*
X289374Y638354D01*
X289368Y638354D01*
X289260Y638306D01*
X289153Y638260D01*
X289147Y638256D01*
X289143Y638254D01*
X289129Y638241D01*
X289022Y638156D01*
X284196Y633329D01*
X284143Y633255D01*
X284083Y633185D01*
X284071Y633155D01*
X284052Y633129D01*
X284025Y633042D01*
X283991Y632957D01*
X283987Y632916D01*
X283980Y632894D01*
X283981Y632862D01*
X283973Y632791D01*
X283973Y616838D01*
X283987Y616748D01*
X283995Y616657D01*
X284007Y616628D01*
X284012Y616596D01*
X284055Y616515D01*
X284091Y616431D01*
X284117Y616399D01*
X284128Y616378D01*
X284151Y616356D01*
X284196Y616300D01*
X287529Y612967D01*
X287529Y606233D01*
X282767Y601471D01*
X276033Y601471D01*
X271271Y606233D01*
X271271Y612967D01*
X274604Y616300D01*
X274657Y616374D01*
X274717Y616443D01*
X274729Y616474D01*
X274748Y616500D01*
X274775Y616587D01*
X274809Y616672D01*
X274813Y616713D01*
X274820Y616735D01*
X274819Y616767D01*
X274827Y616838D01*
X274827Y629666D01*
X274824Y629686D01*
X274826Y629705D01*
X274804Y629807D01*
X274788Y629909D01*
X274778Y629926D01*
X274774Y629946D01*
X274721Y630035D01*
X274672Y630126D01*
X274658Y630140D01*
X274648Y630157D01*
X274569Y630224D01*
X274494Y630296D01*
X274476Y630304D01*
X274461Y630317D01*
X274365Y630356D01*
X274271Y630399D01*
X274251Y630401D01*
X274233Y630409D01*
X274066Y630427D01*
X168347Y630427D01*
X168257Y630413D01*
X168166Y630405D01*
X168137Y630393D01*
X168105Y630388D01*
X168024Y630345D01*
X167940Y630309D01*
X167908Y630283D01*
X167887Y630272D01*
X167865Y630249D01*
X167809Y630204D01*
X167298Y629693D01*
X162902Y629693D01*
X162391Y630204D01*
X162317Y630257D01*
X162247Y630317D01*
X162217Y630329D01*
X162191Y630348D01*
X162104Y630375D01*
X162019Y630409D01*
X161978Y630413D01*
X161956Y630420D01*
X161924Y630419D01*
X161853Y630427D01*
X116509Y630427D01*
X116419Y630413D01*
X116328Y630405D01*
X116299Y630393D01*
X116267Y630388D01*
X116186Y630345D01*
X116102Y630309D01*
X116070Y630283D01*
X116049Y630272D01*
X116027Y630249D01*
X115971Y630204D01*
X106396Y620629D01*
X106343Y620555D01*
X106283Y620485D01*
X106271Y620455D01*
X106252Y620429D01*
X106225Y620342D01*
X106191Y620257D01*
X106187Y620216D01*
X106180Y620194D01*
X106181Y620162D01*
X106173Y620091D01*
X106173Y360934D01*
X106176Y360914D01*
X106174Y360895D01*
X106196Y360793D01*
X106212Y360691D01*
X106222Y360674D01*
X106226Y360654D01*
X106279Y360565D01*
X106328Y360474D01*
X106342Y360460D01*
X106352Y360443D01*
X106431Y360376D01*
X106506Y360304D01*
X106524Y360296D01*
X106539Y360283D01*
X106635Y360244D01*
X106729Y360201D01*
X106749Y360199D01*
X106767Y360191D01*
X106934Y360173D01*
X127219Y360173D01*
X127309Y360187D01*
X127400Y360195D01*
X127430Y360207D01*
X127462Y360212D01*
X127543Y360255D01*
X127627Y360291D01*
X127659Y360317D01*
X127679Y360328D01*
X127702Y360351D01*
X127758Y360396D01*
X129375Y362013D01*
X132155Y363165D01*
X147245Y363165D01*
X150025Y362013D01*
X152153Y359885D01*
X153305Y357105D01*
X153305Y354095D01*
X152153Y351315D01*
X151841Y351003D01*
X151829Y350986D01*
X151814Y350974D01*
X151757Y350887D01*
X151697Y350803D01*
X151691Y350784D01*
X151681Y350767D01*
X151655Y350667D01*
X151625Y350568D01*
X151625Y350548D01*
X151621Y350529D01*
X151629Y350426D01*
X151631Y350322D01*
X151638Y350303D01*
X151640Y350283D01*
X151680Y350189D01*
X151716Y350091D01*
X151728Y350075D01*
X151736Y350057D01*
X151820Y349952D01*
X151822Y349949D01*
X151824Y349947D01*
X151841Y349926D01*
X156973Y344794D01*
X156973Y324738D01*
X156987Y324648D01*
X156995Y324557D01*
X157007Y324528D01*
X157012Y324496D01*
X157055Y324415D01*
X157091Y324331D01*
X157117Y324299D01*
X157128Y324278D01*
X157151Y324256D01*
X157196Y324200D01*
X160529Y320867D01*
X160529Y314133D01*
X155767Y309371D01*
X149033Y309371D01*
X144271Y314133D01*
X144271Y320867D01*
X147604Y324200D01*
X147657Y324274D01*
X147717Y324343D01*
X147729Y324374D01*
X147748Y324400D01*
X147775Y324487D01*
X147809Y324572D01*
X147813Y324613D01*
X147820Y324635D01*
X147819Y324667D01*
X147827Y324738D01*
X147827Y340691D01*
X147813Y340781D01*
X147805Y340872D01*
X147793Y340901D01*
X147788Y340933D01*
X147745Y341014D01*
X147709Y341098D01*
X147683Y341130D01*
X147672Y341151D01*
X147649Y341173D01*
X147604Y341229D01*
X141021Y347812D01*
X140947Y347865D01*
X140877Y347925D01*
X140847Y347937D01*
X140821Y347956D01*
X140734Y347983D01*
X140649Y348017D01*
X140608Y348021D01*
X140586Y348028D01*
X140554Y348027D01*
X140483Y348035D01*
X132155Y348035D01*
X129375Y349187D01*
X127758Y350804D01*
X127684Y350857D01*
X127614Y350917D01*
X127584Y350929D01*
X127558Y350948D01*
X127471Y350975D01*
X127386Y351009D01*
X127345Y351013D01*
X127323Y351020D01*
X127291Y351019D01*
X127219Y351027D01*
X103809Y351027D01*
X103719Y351013D01*
X103628Y351005D01*
X103599Y350993D01*
X103567Y350988D01*
X103486Y350945D01*
X103402Y350909D01*
X103370Y350883D01*
X103349Y350872D01*
X103327Y350849D01*
X103271Y350804D01*
X68296Y315829D01*
X68243Y315755D01*
X68183Y315685D01*
X68171Y315655D01*
X68152Y315629D01*
X68125Y315542D01*
X68091Y315457D01*
X68087Y315416D01*
X68080Y315394D01*
X68081Y315362D01*
X68073Y315291D01*
X68073Y167309D01*
X68087Y167219D01*
X68095Y167128D01*
X68107Y167099D01*
X68112Y167067D01*
X68155Y166986D01*
X68191Y166902D01*
X68217Y166870D01*
X68228Y166849D01*
X68251Y166827D01*
X68296Y166771D01*
X93473Y141594D01*
X93473Y91109D01*
X93487Y91019D01*
X93495Y90928D01*
X93507Y90899D01*
X93512Y90867D01*
X93555Y90786D01*
X93591Y90702D01*
X93617Y90670D01*
X93628Y90649D01*
X93651Y90627D01*
X93696Y90571D01*
X127676Y56591D01*
X127692Y56579D01*
X127705Y56564D01*
X127792Y56507D01*
X127876Y56447D01*
X127895Y56441D01*
X127912Y56431D01*
X128012Y56405D01*
X128111Y56375D01*
X128131Y56375D01*
X128150Y56371D01*
X128253Y56379D01*
X128357Y56381D01*
X128376Y56388D01*
X128395Y56390D01*
X128490Y56430D01*
X128588Y56466D01*
X128603Y56478D01*
X128622Y56486D01*
X128753Y56591D01*
X129375Y57213D01*
X132155Y58365D01*
X147245Y58365D01*
X150025Y57213D01*
X152153Y55085D01*
X153305Y52305D01*
X153305Y49295D01*
X152153Y46515D01*
X150025Y44387D01*
X147245Y43235D01*
X145034Y43235D01*
X145014Y43232D01*
X144995Y43234D01*
X144893Y43212D01*
X144791Y43196D01*
X144774Y43186D01*
X144754Y43182D01*
X144665Y43129D01*
X144574Y43080D01*
X144560Y43066D01*
X144543Y43056D01*
X144476Y42977D01*
X144404Y42902D01*
X144396Y42884D01*
X144383Y42869D01*
X144344Y42773D01*
X144301Y42679D01*
X144299Y42659D01*
X144291Y42641D01*
X144273Y42474D01*
X144273Y33959D01*
X144287Y33869D01*
X144295Y33778D01*
X144307Y33749D01*
X144312Y33717D01*
X144355Y33636D01*
X144391Y33552D01*
X144417Y33520D01*
X144428Y33499D01*
X144451Y33477D01*
X144496Y33421D01*
X150515Y27402D01*
X150589Y27349D01*
X150659Y27289D01*
X150689Y27277D01*
X150715Y27258D01*
X150802Y27231D01*
X150887Y27197D01*
X150928Y27193D01*
X150950Y27186D01*
X150982Y27187D01*
X151053Y27179D01*
X155767Y27179D01*
X160529Y22417D01*
X160529Y15683D01*
X156306Y11460D01*
X156264Y11402D01*
X156215Y11350D01*
X156193Y11303D01*
X156162Y11261D01*
X156141Y11192D01*
X156111Y11127D01*
X156105Y11075D01*
X156090Y11025D01*
X156092Y10954D01*
X156084Y10883D01*
X156095Y10832D01*
X156096Y10780D01*
X156121Y10712D01*
X156136Y10642D01*
X156163Y10597D01*
X156181Y10549D01*
X156226Y10493D01*
X156263Y10431D01*
X156302Y10397D01*
X156335Y10357D01*
X156395Y10318D01*
X156449Y10271D01*
X156498Y10252D01*
X156542Y10224D01*
X156611Y10206D01*
X156678Y10179D01*
X156749Y10171D01*
X156780Y10163D01*
X156803Y10165D01*
X156844Y10161D01*
X197319Y10161D01*
X197390Y10172D01*
X197461Y10174D01*
X197510Y10192D01*
X197562Y10200D01*
X197625Y10234D01*
X197692Y10259D01*
X197733Y10291D01*
X197779Y10316D01*
X197828Y10368D01*
X197884Y10412D01*
X197913Y10456D01*
X197948Y10494D01*
X197979Y10559D01*
X198017Y10619D01*
X198030Y10670D01*
X198052Y10717D01*
X198060Y10788D01*
X198077Y10858D01*
X198073Y10910D01*
X198079Y10961D01*
X198064Y11032D01*
X198058Y11103D01*
X198038Y11151D01*
X198027Y11202D01*
X197990Y11263D01*
X197962Y11329D01*
X197917Y11385D01*
X197901Y11413D01*
X197883Y11428D01*
X197857Y11460D01*
X194055Y15262D01*
X194055Y17527D01*
X202438Y17527D01*
X202458Y17530D01*
X202477Y17528D01*
X202579Y17550D01*
X202681Y17567D01*
X202698Y17576D01*
X202718Y17580D01*
X202807Y17633D01*
X202898Y17682D01*
X202912Y17696D01*
X202929Y17706D01*
X202996Y17785D01*
X203067Y17860D01*
X203076Y17878D01*
X203089Y17893D01*
X203127Y17989D01*
X203171Y18083D01*
X203173Y18103D01*
X203181Y18121D01*
X203199Y18288D01*
X203199Y19051D01*
X203201Y19051D01*
X203201Y18288D01*
X203204Y18268D01*
X203202Y18249D01*
X203224Y18147D01*
X203241Y18045D01*
X203250Y18028D01*
X203254Y18008D01*
X203307Y17919D01*
X203356Y17828D01*
X203370Y17814D01*
X203380Y17797D01*
X203459Y17730D01*
X203534Y17659D01*
X203552Y17650D01*
X203567Y17637D01*
X203663Y17598D01*
X203757Y17555D01*
X203777Y17553D01*
X203795Y17545D01*
X203962Y17527D01*
X212345Y17527D01*
X212345Y15262D01*
X208543Y11460D01*
X208501Y11402D01*
X208452Y11350D01*
X208430Y11303D01*
X208399Y11261D01*
X208378Y11192D01*
X208348Y11127D01*
X208342Y11075D01*
X208327Y11025D01*
X208329Y10954D01*
X208321Y10883D01*
X208332Y10832D01*
X208333Y10780D01*
X208358Y10712D01*
X208373Y10642D01*
X208400Y10597D01*
X208418Y10549D01*
X208463Y10493D01*
X208499Y10431D01*
X208539Y10397D01*
X208571Y10357D01*
X208632Y10318D01*
X208686Y10271D01*
X208735Y10252D01*
X208778Y10224D01*
X208848Y10206D01*
X208914Y10179D01*
X208986Y10171D01*
X209017Y10163D01*
X209040Y10165D01*
X209081Y10161D01*
X344678Y10161D01*
X344698Y10164D01*
X344717Y10162D01*
X344819Y10184D01*
X344921Y10200D01*
X344938Y10210D01*
X344958Y10214D01*
X345047Y10267D01*
X345138Y10316D01*
X345152Y10330D01*
X345169Y10340D01*
X345236Y10419D01*
X345308Y10494D01*
X345316Y10512D01*
X345329Y10527D01*
X345368Y10623D01*
X345411Y10717D01*
X345413Y10737D01*
X345421Y10755D01*
X345439Y10922D01*
X345439Y979678D01*
X345436Y979698D01*
X345438Y979717D01*
X345416Y979819D01*
X345400Y979921D01*
X345390Y979938D01*
X345386Y979958D01*
X345333Y980047D01*
X345284Y980138D01*
X345270Y980152D01*
X345260Y980169D01*
X345181Y980236D01*
X345106Y980308D01*
X345088Y980316D01*
X345073Y980329D01*
X344977Y980368D01*
X344883Y980411D01*
X344863Y980413D01*
X344845Y980421D01*
X344678Y980439D01*
X240666Y980439D01*
X240646Y980436D01*
X240627Y980438D01*
X240525Y980416D01*
X240423Y980400D01*
X240406Y980390D01*
X240386Y980386D01*
X240297Y980333D01*
X240206Y980284D01*
X240192Y980270D01*
X240175Y980260D01*
X240108Y980181D01*
X240036Y980106D01*
X240028Y980088D01*
X240015Y980073D01*
X239976Y979977D01*
X239933Y979883D01*
X239931Y979863D01*
X239923Y979845D01*
X239905Y979678D01*
X239905Y948988D01*
X239012Y948095D01*
X206588Y948095D01*
X205695Y948988D01*
X205695Y979678D01*
X205692Y979698D01*
X205694Y979717D01*
X205672Y979819D01*
X205656Y979921D01*
X205646Y979938D01*
X205642Y979958D01*
X205589Y980047D01*
X205540Y980138D01*
X205526Y980152D01*
X205516Y980169D01*
X205437Y980236D01*
X205362Y980308D01*
X205344Y980316D01*
X205329Y980329D01*
X205233Y980368D01*
X205139Y980411D01*
X205119Y980413D01*
X205101Y980421D01*
X204934Y980439D01*
X150666Y980439D01*
X150646Y980436D01*
X150627Y980438D01*
X150525Y980416D01*
X150423Y980400D01*
X150406Y980390D01*
X150386Y980386D01*
X150297Y980333D01*
X150206Y980284D01*
X150192Y980270D01*
X150175Y980260D01*
X150108Y980181D01*
X150036Y980106D01*
X150028Y980088D01*
X150015Y980073D01*
X149976Y979977D01*
X149933Y979883D01*
X149931Y979863D01*
X149923Y979845D01*
X149905Y979678D01*
X149905Y948988D01*
X149012Y948095D01*
X116588Y948095D01*
X115695Y948988D01*
X115695Y979678D01*
X115692Y979698D01*
X115694Y979717D01*
X115672Y979819D01*
X115656Y979921D01*
X115646Y979938D01*
X115642Y979958D01*
X115589Y980047D01*
X115540Y980138D01*
X115526Y980152D01*
X115516Y980169D01*
X115437Y980236D01*
X115362Y980308D01*
X115344Y980316D01*
X115329Y980329D01*
X115233Y980368D01*
X115139Y980411D01*
X115119Y980413D01*
X115101Y980421D01*
X114934Y980439D01*
X10922Y980439D01*
X10902Y980436D01*
X10883Y980438D01*
X10781Y980416D01*
X10679Y980400D01*
X10662Y980390D01*
X10642Y980386D01*
X10553Y980333D01*
X10462Y980284D01*
X10448Y980270D01*
X10431Y980260D01*
X10364Y980181D01*
X10292Y980106D01*
X10284Y980088D01*
X10271Y980073D01*
X10232Y979977D01*
X10189Y979883D01*
X10187Y979863D01*
X10179Y979845D01*
X10161Y979678D01*
X10161Y10922D01*
X10164Y10902D01*
X10162Y10883D01*
X10184Y10781D01*
X10200Y10679D01*
X10210Y10662D01*
X10214Y10642D01*
X10267Y10553D01*
X10316Y10462D01*
X10330Y10448D01*
X10340Y10431D01*
X10419Y10364D01*
X10494Y10292D01*
X10512Y10284D01*
X10527Y10271D01*
X10623Y10232D01*
X10717Y10189D01*
X10737Y10187D01*
X10755Y10179D01*
X10922Y10161D01*
X147956Y10161D01*
X148026Y10172D01*
G37*
%LPC*%
G36*
X250633Y118871D02*
X250633Y118871D01*
X247300Y122204D01*
X247226Y122257D01*
X247157Y122317D01*
X247126Y122329D01*
X247100Y122348D01*
X247013Y122375D01*
X246928Y122409D01*
X246887Y122413D01*
X246865Y122420D01*
X246833Y122419D01*
X246762Y122427D01*
X228381Y122427D01*
X228291Y122413D01*
X228200Y122405D01*
X228170Y122393D01*
X228138Y122388D01*
X228057Y122345D01*
X227973Y122309D01*
X227941Y122283D01*
X227921Y122272D01*
X227898Y122249D01*
X227842Y122204D01*
X226225Y120587D01*
X223445Y119435D01*
X208355Y119435D01*
X205575Y120587D01*
X203447Y122715D01*
X202295Y125495D01*
X202295Y128505D01*
X203447Y131285D01*
X205575Y133413D01*
X208355Y134565D01*
X223445Y134565D01*
X226225Y133413D01*
X227842Y131796D01*
X227916Y131743D01*
X227986Y131683D01*
X228016Y131671D01*
X228042Y131652D01*
X228129Y131625D01*
X228214Y131591D01*
X228255Y131587D01*
X228277Y131580D01*
X228309Y131581D01*
X228381Y131573D01*
X246762Y131573D01*
X246852Y131587D01*
X246943Y131595D01*
X246972Y131607D01*
X247004Y131612D01*
X247085Y131655D01*
X247169Y131691D01*
X247201Y131717D01*
X247222Y131728D01*
X247244Y131751D01*
X247300Y131796D01*
X250633Y135129D01*
X254000Y135129D01*
X254022Y135132D01*
X254044Y135130D01*
X254143Y135152D01*
X254243Y135168D01*
X254262Y135179D01*
X254284Y135184D01*
X254371Y135236D01*
X254460Y135284D01*
X254475Y135300D01*
X254494Y135311D01*
X254609Y135433D01*
X287375Y179121D01*
X287392Y179155D01*
X287417Y179183D01*
X287449Y179263D01*
X287489Y179339D01*
X287495Y179376D01*
X287509Y179411D01*
X287527Y179578D01*
X287527Y344794D01*
X325404Y382671D01*
X325452Y382737D01*
X325459Y382745D01*
X325461Y382750D01*
X325517Y382815D01*
X325529Y382845D01*
X325548Y382871D01*
X325575Y382958D01*
X325609Y383043D01*
X325613Y383084D01*
X325620Y383106D01*
X325619Y383138D01*
X325627Y383209D01*
X325627Y426466D01*
X325624Y426486D01*
X325626Y426505D01*
X325604Y426607D01*
X325588Y426709D01*
X325578Y426726D01*
X325574Y426746D01*
X325521Y426835D01*
X325472Y426926D01*
X325458Y426940D01*
X325448Y426957D01*
X325369Y427024D01*
X325294Y427096D01*
X325276Y427104D01*
X325261Y427117D01*
X325165Y427156D01*
X325071Y427199D01*
X325051Y427201D01*
X325033Y427209D01*
X324866Y427227D01*
X228381Y427227D01*
X228291Y427213D01*
X228200Y427205D01*
X228170Y427193D01*
X228138Y427188D01*
X228057Y427145D01*
X227973Y427109D01*
X227941Y427083D01*
X227921Y427072D01*
X227898Y427049D01*
X227842Y427004D01*
X226225Y425387D01*
X223445Y424235D01*
X208355Y424235D01*
X205575Y425387D01*
X203447Y427515D01*
X202295Y430295D01*
X202295Y433305D01*
X203447Y436085D01*
X205575Y438213D01*
X208355Y439365D01*
X210566Y439365D01*
X210586Y439368D01*
X210605Y439366D01*
X210707Y439388D01*
X210809Y439404D01*
X210826Y439414D01*
X210846Y439418D01*
X210935Y439471D01*
X211026Y439520D01*
X211040Y439534D01*
X211057Y439544D01*
X211124Y439623D01*
X211196Y439698D01*
X211204Y439716D01*
X211217Y439731D01*
X211256Y439827D01*
X211299Y439921D01*
X211301Y439941D01*
X211309Y439959D01*
X211327Y440126D01*
X211327Y454991D01*
X211313Y455081D01*
X211305Y455172D01*
X211293Y455201D01*
X211288Y455233D01*
X211245Y455314D01*
X211209Y455398D01*
X211183Y455430D01*
X211172Y455451D01*
X211149Y455473D01*
X211104Y455529D01*
X205085Y461548D01*
X205011Y461601D01*
X204941Y461661D01*
X204911Y461673D01*
X204885Y461692D01*
X204798Y461719D01*
X204713Y461753D01*
X204672Y461757D01*
X204650Y461764D01*
X204618Y461763D01*
X204547Y461771D01*
X199833Y461771D01*
X195071Y466533D01*
X195071Y473267D01*
X199833Y478029D01*
X206567Y478029D01*
X211329Y473267D01*
X211329Y468553D01*
X211343Y468463D01*
X211351Y468372D01*
X211363Y468343D01*
X211368Y468311D01*
X211411Y468230D01*
X211447Y468146D01*
X211473Y468114D01*
X211484Y468093D01*
X211507Y468071D01*
X211552Y468015D01*
X220473Y459094D01*
X220473Y440126D01*
X220476Y440106D01*
X220474Y440087D01*
X220496Y439985D01*
X220512Y439883D01*
X220522Y439866D01*
X220526Y439846D01*
X220579Y439757D01*
X220628Y439666D01*
X220642Y439652D01*
X220652Y439635D01*
X220731Y439568D01*
X220806Y439496D01*
X220824Y439488D01*
X220839Y439475D01*
X220935Y439436D01*
X221029Y439393D01*
X221049Y439391D01*
X221067Y439383D01*
X221234Y439365D01*
X223445Y439365D01*
X226225Y438213D01*
X227842Y436596D01*
X227916Y436543D01*
X227986Y436483D01*
X228016Y436471D01*
X228042Y436452D01*
X228129Y436425D01*
X228214Y436391D01*
X228255Y436387D01*
X228277Y436380D01*
X228309Y436381D01*
X228381Y436373D01*
X324866Y436373D01*
X324886Y436376D01*
X324905Y436374D01*
X325007Y436396D01*
X325109Y436412D01*
X325126Y436422D01*
X325146Y436426D01*
X325235Y436479D01*
X325326Y436528D01*
X325340Y436542D01*
X325357Y436552D01*
X325424Y436631D01*
X325496Y436706D01*
X325504Y436724D01*
X325517Y436739D01*
X325556Y436835D01*
X325599Y436929D01*
X325601Y436949D01*
X325609Y436967D01*
X325627Y437134D01*
X325627Y604266D01*
X325624Y604286D01*
X325626Y604305D01*
X325604Y604407D01*
X325588Y604509D01*
X325578Y604526D01*
X325574Y604546D01*
X325521Y604635D01*
X325472Y604726D01*
X325458Y604740D01*
X325448Y604757D01*
X325369Y604824D01*
X325294Y604896D01*
X325276Y604904D01*
X325261Y604917D01*
X325165Y604956D01*
X325071Y604999D01*
X325051Y605001D01*
X325033Y605009D01*
X324866Y605027D01*
X312038Y605027D01*
X311948Y605013D01*
X311857Y605005D01*
X311828Y604993D01*
X311796Y604988D01*
X311715Y604945D01*
X311631Y604909D01*
X311599Y604883D01*
X311578Y604872D01*
X311556Y604849D01*
X311500Y604804D01*
X308167Y601471D01*
X301433Y601471D01*
X296671Y606233D01*
X296671Y612967D01*
X301433Y617729D01*
X308167Y617729D01*
X311500Y614396D01*
X311574Y614343D01*
X311643Y614283D01*
X311674Y614271D01*
X311700Y614252D01*
X311787Y614225D01*
X311872Y614191D01*
X311913Y614187D01*
X311935Y614180D01*
X311967Y614181D01*
X312038Y614173D01*
X324866Y614173D01*
X324886Y614176D01*
X324905Y614174D01*
X325007Y614196D01*
X325109Y614212D01*
X325126Y614222D01*
X325146Y614226D01*
X325235Y614279D01*
X325326Y614328D01*
X325340Y614342D01*
X325357Y614352D01*
X325424Y614431D01*
X325496Y614506D01*
X325504Y614524D01*
X325517Y614539D01*
X325556Y614635D01*
X325599Y614729D01*
X325601Y614749D01*
X325609Y614767D01*
X325627Y614934D01*
X325627Y670891D01*
X325613Y670981D01*
X325605Y671072D01*
X325593Y671101D01*
X325588Y671133D01*
X325545Y671214D01*
X325509Y671298D01*
X325483Y671330D01*
X325472Y671351D01*
X325449Y671373D01*
X325404Y671429D01*
X303129Y693704D01*
X303055Y693757D01*
X302985Y693817D01*
X302955Y693829D01*
X302929Y693848D01*
X302842Y693875D01*
X302757Y693909D01*
X302716Y693913D01*
X302694Y693920D01*
X302662Y693919D01*
X302591Y693927D01*
X263214Y693927D01*
X263124Y693913D01*
X263033Y693905D01*
X263003Y693893D01*
X262971Y693888D01*
X262891Y693845D01*
X262807Y693809D01*
X262775Y693783D01*
X262754Y693772D01*
X262732Y693749D01*
X262676Y693704D01*
X257946Y688974D01*
X251256Y688974D01*
X251166Y688960D01*
X251075Y688952D01*
X251046Y688940D01*
X251014Y688935D01*
X250933Y688892D01*
X250849Y688856D01*
X250817Y688830D01*
X250796Y688819D01*
X250774Y688796D01*
X250718Y688751D01*
X243194Y681227D01*
X71457Y681227D01*
X71367Y681213D01*
X71276Y681205D01*
X71246Y681193D01*
X71214Y681188D01*
X71133Y681145D01*
X71049Y681109D01*
X71017Y681083D01*
X70997Y681072D01*
X70974Y681049D01*
X70918Y681004D01*
X67077Y677163D01*
X59923Y677163D01*
X56082Y681004D01*
X56008Y681057D01*
X55938Y681117D01*
X55908Y681129D01*
X55882Y681148D01*
X55795Y681175D01*
X55710Y681209D01*
X55669Y681213D01*
X55647Y681220D01*
X55615Y681219D01*
X55543Y681227D01*
X46057Y681227D01*
X45967Y681213D01*
X45876Y681205D01*
X45846Y681193D01*
X45814Y681188D01*
X45733Y681145D01*
X45649Y681109D01*
X45617Y681083D01*
X45597Y681072D01*
X45574Y681049D01*
X45518Y681004D01*
X41677Y677163D01*
X34523Y677163D01*
X29463Y682223D01*
X29463Y689377D01*
X34523Y694437D01*
X41677Y694437D01*
X45518Y690596D01*
X45592Y690543D01*
X45662Y690483D01*
X45692Y690471D01*
X45718Y690452D01*
X45805Y690425D01*
X45890Y690391D01*
X45931Y690387D01*
X45953Y690380D01*
X45985Y690381D01*
X46057Y690373D01*
X55543Y690373D01*
X55633Y690387D01*
X55724Y690395D01*
X55754Y690407D01*
X55786Y690412D01*
X55867Y690455D01*
X55951Y690491D01*
X55983Y690517D01*
X56003Y690528D01*
X56026Y690551D01*
X56082Y690596D01*
X59923Y694437D01*
X67077Y694437D01*
X70918Y690596D01*
X70992Y690543D01*
X71062Y690483D01*
X71092Y690471D01*
X71118Y690452D01*
X71205Y690425D01*
X71290Y690391D01*
X71331Y690387D01*
X71353Y690380D01*
X71385Y690381D01*
X71457Y690373D01*
X172466Y690373D01*
X172486Y690376D01*
X172505Y690374D01*
X172607Y690396D01*
X172709Y690412D01*
X172726Y690422D01*
X172746Y690426D01*
X172835Y690479D01*
X172926Y690528D01*
X172940Y690542D01*
X172957Y690552D01*
X173024Y690631D01*
X173096Y690706D01*
X173104Y690724D01*
X173117Y690739D01*
X173156Y690835D01*
X173199Y690929D01*
X173201Y690949D01*
X173209Y690967D01*
X173227Y691134D01*
X173227Y801994D01*
X176129Y804896D01*
X198404Y827171D01*
X198457Y827245D01*
X198517Y827315D01*
X198529Y827345D01*
X198548Y827371D01*
X198575Y827458D01*
X198609Y827543D01*
X198613Y827584D01*
X198620Y827606D01*
X198619Y827638D01*
X198627Y827709D01*
X198627Y856362D01*
X198613Y856452D01*
X198605Y856543D01*
X198593Y856572D01*
X198588Y856604D01*
X198545Y856685D01*
X198509Y856769D01*
X198483Y856801D01*
X198472Y856822D01*
X198449Y856844D01*
X198404Y856900D01*
X195071Y860233D01*
X195071Y866967D01*
X199833Y871729D01*
X206567Y871729D01*
X211329Y866967D01*
X211329Y860233D01*
X207996Y856900D01*
X207943Y856826D01*
X207883Y856757D01*
X207871Y856726D01*
X207852Y856700D01*
X207825Y856613D01*
X207791Y856528D01*
X207787Y856487D01*
X207780Y856465D01*
X207781Y856433D01*
X207773Y856362D01*
X207773Y833826D01*
X207775Y833809D01*
X207774Y833794D01*
X207774Y833791D01*
X207774Y833787D01*
X207796Y833685D01*
X207812Y833583D01*
X207822Y833566D01*
X207826Y833546D01*
X207879Y833457D01*
X207928Y833366D01*
X207942Y833352D01*
X207952Y833335D01*
X208031Y833268D01*
X208106Y833196D01*
X208124Y833188D01*
X208139Y833175D01*
X208235Y833136D01*
X208329Y833093D01*
X208349Y833091D01*
X208367Y833083D01*
X208534Y833065D01*
X223445Y833065D01*
X226225Y831913D01*
X228353Y829785D01*
X229505Y827005D01*
X229505Y823995D01*
X228353Y821215D01*
X226225Y819087D01*
X223445Y817935D01*
X208355Y817935D01*
X205575Y819087D01*
X204953Y819709D01*
X204936Y819721D01*
X204924Y819736D01*
X204837Y819792D01*
X204753Y819853D01*
X204734Y819859D01*
X204717Y819869D01*
X204617Y819895D01*
X204518Y819925D01*
X204498Y819925D01*
X204479Y819929D01*
X204376Y819921D01*
X204272Y819919D01*
X204253Y819912D01*
X204233Y819910D01*
X204139Y819870D01*
X204041Y819834D01*
X204025Y819822D01*
X204007Y819814D01*
X203876Y819709D01*
X182596Y798429D01*
X182543Y798355D01*
X182483Y798285D01*
X182471Y798255D01*
X182452Y798229D01*
X182425Y798142D01*
X182391Y798057D01*
X182387Y798016D01*
X182380Y797994D01*
X182381Y797962D01*
X182373Y797891D01*
X182373Y691134D01*
X182376Y691114D01*
X182374Y691095D01*
X182396Y690993D01*
X182412Y690891D01*
X182422Y690874D01*
X182426Y690854D01*
X182479Y690765D01*
X182528Y690674D01*
X182542Y690660D01*
X182552Y690643D01*
X182631Y690576D01*
X182706Y690504D01*
X182724Y690496D01*
X182739Y690483D01*
X182835Y690444D01*
X182929Y690401D01*
X182949Y690399D01*
X182967Y690391D01*
X183134Y690373D01*
X239091Y690373D01*
X239181Y690387D01*
X239272Y690395D01*
X239301Y690407D01*
X239333Y690412D01*
X239414Y690455D01*
X239498Y690491D01*
X239530Y690517D01*
X239551Y690528D01*
X239573Y690551D01*
X239629Y690596D01*
X244251Y695218D01*
X244304Y695292D01*
X244364Y695362D01*
X244376Y695392D01*
X244395Y695418D01*
X244422Y695505D01*
X244456Y695590D01*
X244460Y695631D01*
X244467Y695653D01*
X244466Y695685D01*
X244474Y695756D01*
X244474Y702446D01*
X250054Y708026D01*
X257946Y708026D01*
X262676Y703296D01*
X262750Y703243D01*
X262819Y703183D01*
X262849Y703171D01*
X262875Y703152D01*
X262962Y703125D01*
X263047Y703091D01*
X263088Y703087D01*
X263111Y703080D01*
X263143Y703081D01*
X263214Y703073D01*
X306694Y703073D01*
X309596Y700171D01*
X331871Y677896D01*
X334773Y674994D01*
X334773Y379106D01*
X296896Y341229D01*
X296843Y341155D01*
X296783Y341085D01*
X296771Y341055D01*
X296752Y341029D01*
X296725Y340942D01*
X296691Y340857D01*
X296687Y340816D01*
X296680Y340794D01*
X296681Y340762D01*
X296673Y340691D01*
X296673Y178179D01*
X296678Y178147D01*
X296680Y178071D01*
X296895Y176572D01*
X296825Y176479D01*
X296808Y176445D01*
X296783Y176417D01*
X296751Y176337D01*
X296711Y176261D01*
X296705Y176224D01*
X296691Y176189D01*
X296673Y176022D01*
X296673Y175906D01*
X295601Y174835D01*
X295582Y174808D01*
X295531Y174753D01*
X262281Y130420D01*
X262264Y130387D01*
X262239Y130358D01*
X262207Y130278D01*
X262167Y130202D01*
X262161Y130165D01*
X262147Y130130D01*
X262129Y129963D01*
X262129Y123633D01*
X257367Y118871D01*
X250633Y118871D01*
G37*
%LPD*%
%LPC*%
G36*
X148696Y516993D02*
X148696Y516993D01*
X142893Y522796D01*
X142893Y531004D01*
X148620Y536731D01*
X148673Y536804D01*
X148733Y536874D01*
X148745Y536904D01*
X148764Y536930D01*
X148791Y537017D01*
X148825Y537102D01*
X148829Y537143D01*
X148836Y537165D01*
X148835Y537198D01*
X148843Y537269D01*
X148843Y547573D01*
X163627Y562357D01*
X255473Y562357D01*
X257780Y560050D01*
X276078Y541752D01*
X276152Y541699D01*
X276222Y541639D01*
X276252Y541627D01*
X276278Y541608D01*
X276365Y541581D01*
X276450Y541547D01*
X276491Y541543D01*
X276513Y541536D01*
X276545Y541537D01*
X276617Y541529D01*
X282767Y541529D01*
X287529Y536767D01*
X287529Y530033D01*
X283052Y525556D01*
X283010Y525498D01*
X282961Y525446D01*
X282939Y525399D01*
X282908Y525357D01*
X282887Y525288D01*
X282857Y525223D01*
X282851Y525171D01*
X282836Y525121D01*
X282838Y525050D01*
X282830Y524979D01*
X282841Y524928D01*
X282842Y524876D01*
X282867Y524808D01*
X282882Y524738D01*
X282909Y524693D01*
X282927Y524645D01*
X282972Y524589D01*
X283009Y524527D01*
X283048Y524493D01*
X283081Y524453D01*
X283141Y524414D01*
X283195Y524367D01*
X283244Y524348D01*
X283288Y524320D01*
X283357Y524302D01*
X283424Y524275D01*
X283495Y524267D01*
X283526Y524259D01*
X283549Y524261D01*
X283590Y524257D01*
X290311Y524257D01*
X290402Y524271D01*
X290492Y524279D01*
X290522Y524291D01*
X290554Y524296D01*
X290635Y524339D01*
X290719Y524375D01*
X290751Y524401D01*
X290772Y524412D01*
X290794Y524435D01*
X290850Y524480D01*
X296448Y530078D01*
X296501Y530152D01*
X296561Y530222D01*
X296573Y530252D01*
X296592Y530278D01*
X296619Y530365D01*
X296653Y530450D01*
X296657Y530491D01*
X296664Y530513D01*
X296663Y530545D01*
X296671Y530617D01*
X296671Y536767D01*
X301433Y541529D01*
X308167Y541529D01*
X312929Y536767D01*
X312929Y530033D01*
X308167Y525271D01*
X302017Y525271D01*
X301926Y525257D01*
X301836Y525249D01*
X301806Y525237D01*
X301774Y525232D01*
X301693Y525189D01*
X301609Y525153D01*
X301577Y525127D01*
X301556Y525116D01*
X301534Y525093D01*
X301478Y525048D01*
X293573Y517143D01*
X265227Y517143D01*
X240050Y542320D01*
X239976Y542373D01*
X239906Y542433D01*
X239876Y542445D01*
X239850Y542464D01*
X239763Y542491D01*
X239678Y542525D01*
X239637Y542529D01*
X239615Y542536D01*
X239583Y542535D01*
X239511Y542543D01*
X217689Y542543D01*
X217598Y542529D01*
X217508Y542521D01*
X217478Y542509D01*
X217446Y542504D01*
X217365Y542461D01*
X217281Y542425D01*
X217249Y542399D01*
X217228Y542388D01*
X217206Y542365D01*
X217150Y542320D01*
X212263Y537433D01*
X212252Y537417D01*
X212236Y537405D01*
X212180Y537318D01*
X212120Y537234D01*
X212114Y537215D01*
X212103Y537198D01*
X212078Y537097D01*
X212048Y536999D01*
X212048Y536979D01*
X212043Y536959D01*
X212051Y536856D01*
X212054Y536753D01*
X212061Y536734D01*
X212062Y536714D01*
X212103Y536619D01*
X212138Y536522D01*
X212151Y536506D01*
X212159Y536488D01*
X212263Y536357D01*
X212707Y535914D01*
X212707Y517886D01*
X211814Y516993D01*
X193786Y516993D01*
X192893Y517886D01*
X192893Y535914D01*
X193786Y536807D01*
X201261Y536807D01*
X201352Y536821D01*
X201442Y536829D01*
X201472Y536841D01*
X201504Y536846D01*
X201585Y536889D01*
X201669Y536925D01*
X201701Y536951D01*
X201722Y536962D01*
X201744Y536985D01*
X201800Y537030D01*
X214427Y549657D01*
X242773Y549657D01*
X267950Y524480D01*
X268024Y524427D01*
X268094Y524367D01*
X268124Y524355D01*
X268150Y524336D01*
X268237Y524309D01*
X268322Y524275D01*
X268363Y524271D01*
X268385Y524264D01*
X268417Y524265D01*
X268489Y524257D01*
X275210Y524257D01*
X275280Y524268D01*
X275352Y524270D01*
X275401Y524288D01*
X275452Y524296D01*
X275516Y524330D01*
X275583Y524355D01*
X275624Y524387D01*
X275670Y524412D01*
X275719Y524464D01*
X275775Y524508D01*
X275803Y524552D01*
X275839Y524590D01*
X275869Y524655D01*
X275908Y524715D01*
X275921Y524766D01*
X275943Y524813D01*
X275951Y524884D01*
X275968Y524954D01*
X275964Y525006D01*
X275970Y525057D01*
X275955Y525128D01*
X275949Y525199D01*
X275929Y525247D01*
X275918Y525298D01*
X275881Y525359D01*
X275853Y525425D01*
X275808Y525481D01*
X275791Y525509D01*
X275774Y525524D01*
X275748Y525556D01*
X271271Y530033D01*
X271271Y536183D01*
X271267Y536207D01*
X271269Y536224D01*
X271255Y536287D01*
X271249Y536364D01*
X271237Y536394D01*
X271232Y536426D01*
X271221Y536446D01*
X271217Y536464D01*
X271182Y536523D01*
X271153Y536591D01*
X271127Y536623D01*
X271116Y536644D01*
X271101Y536658D01*
X271091Y536675D01*
X271074Y536690D01*
X271048Y536722D01*
X252750Y555020D01*
X252676Y555073D01*
X252606Y555133D01*
X252576Y555145D01*
X252550Y555164D01*
X252463Y555191D01*
X252378Y555225D01*
X252337Y555229D01*
X252315Y555236D01*
X252283Y555235D01*
X252211Y555243D01*
X166889Y555243D01*
X166798Y555229D01*
X166708Y555221D01*
X166678Y555209D01*
X166646Y555204D01*
X166565Y555161D01*
X166481Y555125D01*
X166449Y555099D01*
X166428Y555088D01*
X166406Y555065D01*
X166401Y555061D01*
X166400Y555060D01*
X166350Y555020D01*
X156180Y544850D01*
X156127Y544776D01*
X156067Y544706D01*
X156055Y544676D01*
X156036Y544650D01*
X156009Y544563D01*
X155975Y544478D01*
X155971Y544437D01*
X155964Y544415D01*
X155965Y544383D01*
X155957Y544311D01*
X155957Y537568D01*
X155960Y537548D01*
X155958Y537529D01*
X155980Y537427D01*
X155996Y537325D01*
X156006Y537308D01*
X156010Y537288D01*
X156063Y537199D01*
X156112Y537108D01*
X156126Y537094D01*
X156136Y537077D01*
X156215Y537010D01*
X156290Y536938D01*
X156308Y536930D01*
X156323Y536917D01*
X156419Y536878D01*
X156513Y536835D01*
X156533Y536833D01*
X156551Y536825D01*
X156718Y536807D01*
X156904Y536807D01*
X162707Y531004D01*
X162707Y522796D01*
X156904Y516993D01*
X148696Y516993D01*
G37*
%LPD*%
%LPC*%
G36*
X208355Y767135D02*
X208355Y767135D01*
X205575Y768287D01*
X203447Y770415D01*
X202295Y773195D01*
X202295Y776205D01*
X203447Y778985D01*
X205575Y781113D01*
X208355Y782265D01*
X223445Y782265D01*
X226225Y781113D01*
X227566Y779772D01*
X227582Y779761D01*
X227594Y779745D01*
X227682Y779689D01*
X227766Y779629D01*
X227785Y779623D01*
X227801Y779612D01*
X227902Y779587D01*
X228001Y779556D01*
X228021Y779557D01*
X228040Y779552D01*
X228143Y779560D01*
X228246Y779563D01*
X228265Y779570D01*
X228285Y779571D01*
X228380Y779612D01*
X228478Y779647D01*
X228493Y779660D01*
X228511Y779668D01*
X228642Y779772D01*
X237520Y788650D01*
X237573Y788724D01*
X237633Y788794D01*
X237645Y788824D01*
X237664Y788850D01*
X237691Y788937D01*
X237725Y789022D01*
X237729Y789063D01*
X237736Y789085D01*
X237735Y789117D01*
X237743Y789189D01*
X237743Y849111D01*
X237729Y849202D01*
X237721Y849292D01*
X237709Y849322D01*
X237704Y849354D01*
X237661Y849435D01*
X237625Y849519D01*
X237599Y849551D01*
X237588Y849572D01*
X237565Y849594D01*
X237520Y849650D01*
X202100Y885070D01*
X202026Y885123D01*
X201956Y885183D01*
X201926Y885195D01*
X201900Y885214D01*
X201813Y885241D01*
X201728Y885275D01*
X201687Y885279D01*
X201665Y885286D01*
X201633Y885285D01*
X201561Y885293D01*
X193786Y885293D01*
X192893Y886186D01*
X192893Y904214D01*
X193786Y905107D01*
X211814Y905107D01*
X212707Y904214D01*
X212707Y886186D01*
X212413Y885893D01*
X212402Y885877D01*
X212386Y885864D01*
X212330Y885777D01*
X212270Y885693D01*
X212264Y885674D01*
X212253Y885658D01*
X212228Y885557D01*
X212198Y885458D01*
X212198Y885438D01*
X212193Y885419D01*
X212201Y885316D01*
X212204Y885212D01*
X212211Y885194D01*
X212212Y885174D01*
X212253Y885079D01*
X212288Y884981D01*
X212301Y884966D01*
X212309Y884948D01*
X212413Y884817D01*
X242550Y854680D01*
X244857Y852373D01*
X244857Y785927D01*
X230073Y771143D01*
X229163Y771143D01*
X229049Y771125D01*
X228932Y771107D01*
X228927Y771105D01*
X228921Y771104D01*
X228818Y771049D01*
X228713Y770996D01*
X228709Y770991D01*
X228703Y770988D01*
X228623Y770904D01*
X228541Y770820D01*
X228537Y770814D01*
X228534Y770810D01*
X228526Y770793D01*
X228460Y770673D01*
X228353Y770415D01*
X226225Y768287D01*
X223445Y767135D01*
X208355Y767135D01*
G37*
%LPD*%
%LPC*%
G36*
X48856Y16425D02*
X48856Y16425D01*
X45263Y17913D01*
X42513Y20663D01*
X41025Y24256D01*
X41025Y28144D01*
X41587Y29501D01*
X41602Y29562D01*
X41643Y29740D01*
X41643Y29741D01*
X41643Y29748D01*
X41620Y29985D01*
X41620Y29986D01*
X41592Y30050D01*
X41521Y30210D01*
X41520Y30210D01*
X41520Y30211D01*
X41414Y30339D01*
X24181Y47029D01*
X24111Y47077D01*
X24047Y47133D01*
X24031Y47139D01*
X22910Y48260D01*
X22906Y48263D01*
X22901Y48269D01*
X21843Y49293D01*
X21843Y50765D01*
X21842Y50770D01*
X21843Y50777D01*
X21818Y52364D01*
X21825Y52382D01*
X21830Y52431D01*
X21838Y52457D01*
X21836Y52487D01*
X21843Y52548D01*
X21843Y156846D01*
X21829Y156936D01*
X21821Y157027D01*
X21809Y157056D01*
X21804Y157088D01*
X21761Y157169D01*
X21725Y157253D01*
X21699Y157285D01*
X21688Y157306D01*
X21665Y157328D01*
X21620Y157384D01*
X17271Y161733D01*
X17271Y168467D01*
X22033Y173229D01*
X28767Y173229D01*
X33529Y168467D01*
X33529Y161733D01*
X29180Y157384D01*
X29127Y157310D01*
X29067Y157241D01*
X29055Y157210D01*
X29036Y157184D01*
X29009Y157097D01*
X28975Y157012D01*
X28971Y156971D01*
X28964Y156949D01*
X28965Y156917D01*
X28957Y156846D01*
X28957Y52629D01*
X28972Y52533D01*
X28982Y52436D01*
X28992Y52412D01*
X28996Y52386D01*
X29042Y52301D01*
X29081Y52212D01*
X29102Y52186D01*
X29112Y52169D01*
X29136Y52146D01*
X29188Y52082D01*
X46370Y35442D01*
X46461Y35379D01*
X46550Y35312D01*
X46562Y35308D01*
X46572Y35301D01*
X46678Y35271D01*
X46784Y35236D01*
X46796Y35236D01*
X46808Y35233D01*
X46919Y35237D01*
X47030Y35239D01*
X47044Y35243D01*
X47054Y35243D01*
X47080Y35253D01*
X47191Y35285D01*
X48856Y35975D01*
X52744Y35975D01*
X56337Y34487D01*
X59087Y31737D01*
X60575Y28144D01*
X60575Y24256D01*
X59087Y20663D01*
X56337Y17913D01*
X52744Y16425D01*
X48856Y16425D01*
G37*
%LPD*%
%LPC*%
G36*
X132155Y68635D02*
X132155Y68635D01*
X129375Y69787D01*
X127247Y71915D01*
X126095Y74695D01*
X126095Y77705D01*
X127247Y80485D01*
X128278Y81516D01*
X128289Y81532D01*
X128305Y81544D01*
X128361Y81632D01*
X128421Y81716D01*
X128427Y81735D01*
X128438Y81751D01*
X128463Y81852D01*
X128494Y81951D01*
X128493Y81971D01*
X128498Y81990D01*
X128490Y82093D01*
X128487Y82196D01*
X128480Y82215D01*
X128479Y82235D01*
X128438Y82330D01*
X128403Y82428D01*
X128390Y82443D01*
X128382Y82461D01*
X128278Y82592D01*
X113050Y97820D01*
X110743Y100127D01*
X110743Y150611D01*
X110729Y150702D01*
X110721Y150792D01*
X110709Y150822D01*
X110704Y150854D01*
X110661Y150935D01*
X110625Y151019D01*
X110599Y151051D01*
X110588Y151072D01*
X110565Y151094D01*
X110520Y151150D01*
X104922Y156748D01*
X104848Y156801D01*
X104778Y156861D01*
X104748Y156873D01*
X104722Y156892D01*
X104635Y156919D01*
X104550Y156953D01*
X104509Y156957D01*
X104487Y156964D01*
X104455Y156963D01*
X104383Y156971D01*
X98233Y156971D01*
X93471Y161733D01*
X93471Y168467D01*
X98233Y173229D01*
X104967Y173229D01*
X109729Y168467D01*
X109729Y162317D01*
X109743Y162226D01*
X109751Y162136D01*
X109763Y162106D01*
X109768Y162074D01*
X109811Y161993D01*
X109847Y161909D01*
X109873Y161877D01*
X109884Y161856D01*
X109907Y161834D01*
X109952Y161778D01*
X117857Y153873D01*
X117857Y103389D01*
X117871Y103298D01*
X117879Y103208D01*
X117891Y103178D01*
X117896Y103146D01*
X117939Y103065D01*
X117975Y102981D01*
X118001Y102949D01*
X118012Y102928D01*
X118035Y102906D01*
X118080Y102850D01*
X136942Y83988D01*
X137016Y83935D01*
X137086Y83875D01*
X137116Y83863D01*
X137142Y83844D01*
X137229Y83817D01*
X137314Y83783D01*
X137355Y83779D01*
X137377Y83772D01*
X137409Y83773D01*
X137481Y83765D01*
X147245Y83765D01*
X150025Y82613D01*
X152153Y80485D01*
X153305Y77705D01*
X153305Y74695D01*
X152153Y71915D01*
X150025Y69787D01*
X147245Y68635D01*
X132155Y68635D01*
G37*
%LPD*%
%LPC*%
G36*
X206588Y579795D02*
X206588Y579795D01*
X205695Y580688D01*
X205695Y613112D01*
X206588Y614005D01*
X239012Y614005D01*
X239905Y613112D01*
X239905Y580688D01*
X239012Y579795D01*
X206588Y579795D01*
G37*
%LPD*%
%LPC*%
G36*
X116588Y579795D02*
X116588Y579795D01*
X115695Y580688D01*
X115695Y613112D01*
X116588Y614005D01*
X149012Y614005D01*
X149905Y613112D01*
X149905Y580688D01*
X149012Y579795D01*
X116588Y579795D01*
G37*
%LPD*%
%LPC*%
G36*
X206588Y211495D02*
X206588Y211495D01*
X205695Y212388D01*
X205695Y244812D01*
X206588Y245705D01*
X239012Y245705D01*
X239905Y244812D01*
X239905Y212388D01*
X239012Y211495D01*
X206588Y211495D01*
G37*
%LPD*%
%LPC*%
G36*
X116588Y211495D02*
X116588Y211495D01*
X115695Y212388D01*
X115695Y244812D01*
X116588Y245705D01*
X149012Y245705D01*
X149905Y244812D01*
X149905Y212388D01*
X149012Y211495D01*
X116588Y211495D01*
G37*
%LPD*%
%LPC*%
G36*
X132155Y119435D02*
X132155Y119435D01*
X129375Y120587D01*
X127247Y122715D01*
X126095Y125495D01*
X126095Y128505D01*
X127247Y131285D01*
X129375Y133413D01*
X132155Y134565D01*
X147245Y134565D01*
X150025Y133413D01*
X152153Y131285D01*
X152260Y131027D01*
X152321Y130928D01*
X152382Y130827D01*
X152386Y130823D01*
X152390Y130818D01*
X152479Y130744D01*
X152569Y130667D01*
X152574Y130665D01*
X152579Y130661D01*
X152687Y130619D01*
X152797Y130575D01*
X152804Y130574D01*
X152809Y130573D01*
X152827Y130572D01*
X152963Y130557D01*
X163311Y130557D01*
X163402Y130571D01*
X163492Y130579D01*
X163522Y130591D01*
X163554Y130596D01*
X163635Y130639D01*
X163719Y130675D01*
X163751Y130701D01*
X163772Y130712D01*
X163794Y130735D01*
X163850Y130780D01*
X174020Y140950D01*
X174073Y141024D01*
X174133Y141094D01*
X174145Y141124D01*
X174164Y141150D01*
X174191Y141237D01*
X174225Y141322D01*
X174229Y141363D01*
X174236Y141385D01*
X174235Y141417D01*
X174243Y141489D01*
X174243Y147932D01*
X174240Y147952D01*
X174242Y147971D01*
X174220Y148073D01*
X174204Y148175D01*
X174194Y148192D01*
X174190Y148212D01*
X174137Y148301D01*
X174088Y148392D01*
X174074Y148406D01*
X174064Y148423D01*
X173985Y148490D01*
X173910Y148562D01*
X173892Y148570D01*
X173877Y148583D01*
X173781Y148622D01*
X173757Y148633D01*
X167893Y154496D01*
X167893Y162704D01*
X173696Y168507D01*
X181904Y168507D01*
X187707Y162704D01*
X187707Y154496D01*
X181854Y148643D01*
X181838Y148640D01*
X181749Y148587D01*
X181658Y148538D01*
X181644Y148524D01*
X181627Y148514D01*
X181560Y148435D01*
X181488Y148360D01*
X181480Y148342D01*
X181467Y148327D01*
X181428Y148231D01*
X181385Y148137D01*
X181383Y148117D01*
X181375Y148099D01*
X181357Y147932D01*
X181357Y138227D01*
X166573Y123443D01*
X152963Y123443D01*
X152849Y123425D01*
X152732Y123407D01*
X152727Y123405D01*
X152721Y123404D01*
X152618Y123349D01*
X152513Y123296D01*
X152509Y123291D01*
X152503Y123288D01*
X152423Y123204D01*
X152341Y123120D01*
X152337Y123114D01*
X152334Y123110D01*
X152326Y123093D01*
X152260Y122973D01*
X152153Y122715D01*
X150025Y120587D01*
X147245Y119435D01*
X132155Y119435D01*
G37*
%LPD*%
%LPC*%
G36*
X208355Y68635D02*
X208355Y68635D01*
X205575Y69787D01*
X203447Y71915D01*
X202295Y74695D01*
X202295Y77705D01*
X203447Y80485D01*
X205575Y82613D01*
X208355Y83765D01*
X223445Y83765D01*
X226225Y82613D01*
X228353Y80485D01*
X229505Y77705D01*
X229505Y74695D01*
X228353Y71915D01*
X226225Y69787D01*
X223445Y68635D01*
X208355Y68635D01*
G37*
%LPD*%
%LPC*%
G36*
X208355Y94035D02*
X208355Y94035D01*
X205575Y95187D01*
X203447Y97315D01*
X202295Y100095D01*
X202295Y103105D01*
X203447Y105885D01*
X205575Y108013D01*
X208355Y109165D01*
X223445Y109165D01*
X226225Y108013D01*
X228353Y105885D01*
X229505Y103105D01*
X229505Y100095D01*
X228353Y97315D01*
X226225Y95187D01*
X223445Y94035D01*
X208355Y94035D01*
G37*
%LPD*%
%LPC*%
G36*
X132155Y792535D02*
X132155Y792535D01*
X129375Y793687D01*
X127247Y795815D01*
X126095Y798595D01*
X126095Y801605D01*
X127247Y804385D01*
X129375Y806513D01*
X132155Y807665D01*
X147245Y807665D01*
X150025Y806513D01*
X152153Y804385D01*
X153305Y801605D01*
X153305Y798595D01*
X152153Y795815D01*
X150025Y793687D01*
X147245Y792535D01*
X132155Y792535D01*
G37*
%LPD*%
%LPC*%
G36*
X208355Y43235D02*
X208355Y43235D01*
X205575Y44387D01*
X203447Y46515D01*
X202295Y49295D01*
X202295Y52305D01*
X203447Y55085D01*
X205575Y57213D01*
X208355Y58365D01*
X223445Y58365D01*
X226225Y57213D01*
X228353Y55085D01*
X229505Y52305D01*
X229505Y49295D01*
X228353Y46515D01*
X226225Y44387D01*
X223445Y43235D01*
X208355Y43235D01*
G37*
%LPD*%
%LPC*%
G36*
X132155Y817935D02*
X132155Y817935D01*
X129375Y819087D01*
X127247Y821215D01*
X126095Y823995D01*
X126095Y827005D01*
X127247Y829785D01*
X129375Y831913D01*
X132155Y833065D01*
X147245Y833065D01*
X150025Y831913D01*
X152153Y829785D01*
X153305Y827005D01*
X153305Y823995D01*
X152153Y821215D01*
X150025Y819087D01*
X147245Y817935D01*
X132155Y817935D01*
G37*
%LPD*%
%LPC*%
G36*
X208355Y348035D02*
X208355Y348035D01*
X205575Y349187D01*
X203447Y351315D01*
X202295Y354095D01*
X202295Y357105D01*
X203447Y359885D01*
X205575Y362013D01*
X208355Y363165D01*
X223445Y363165D01*
X226225Y362013D01*
X228353Y359885D01*
X229505Y357105D01*
X229505Y354095D01*
X228353Y351315D01*
X226225Y349187D01*
X223445Y348035D01*
X208355Y348035D01*
G37*
%LPD*%
%LPC*%
G36*
X132155Y373435D02*
X132155Y373435D01*
X129375Y374587D01*
X127247Y376715D01*
X126095Y379495D01*
X126095Y382505D01*
X127247Y385285D01*
X129375Y387413D01*
X132155Y388565D01*
X147245Y388565D01*
X150025Y387413D01*
X152153Y385285D01*
X153305Y382505D01*
X153305Y379495D01*
X152153Y376715D01*
X150025Y374587D01*
X147245Y373435D01*
X132155Y373435D01*
G37*
%LPD*%
%LPC*%
G36*
X208355Y373435D02*
X208355Y373435D01*
X205575Y374587D01*
X203447Y376715D01*
X202295Y379495D01*
X202295Y382505D01*
X203447Y385285D01*
X205575Y387413D01*
X208355Y388565D01*
X223445Y388565D01*
X226225Y387413D01*
X228353Y385285D01*
X229505Y382505D01*
X229505Y379495D01*
X228353Y376715D01*
X226225Y374587D01*
X223445Y373435D01*
X208355Y373435D01*
G37*
%LPD*%
%LPC*%
G36*
X132155Y424235D02*
X132155Y424235D01*
X129375Y425387D01*
X127247Y427515D01*
X126095Y430295D01*
X126095Y433305D01*
X127247Y436085D01*
X129375Y438213D01*
X132155Y439365D01*
X147245Y439365D01*
X150025Y438213D01*
X152153Y436085D01*
X153305Y433305D01*
X153305Y430295D01*
X152153Y427515D01*
X150025Y425387D01*
X147245Y424235D01*
X132155Y424235D01*
G37*
%LPD*%
%LPC*%
G36*
X132155Y94035D02*
X132155Y94035D01*
X129375Y95187D01*
X127247Y97315D01*
X126095Y100095D01*
X126095Y103105D01*
X127247Y105885D01*
X129375Y108013D01*
X132155Y109165D01*
X147245Y109165D01*
X150025Y108013D01*
X152153Y105885D01*
X153305Y103105D01*
X153305Y100095D01*
X152153Y97315D01*
X150025Y95187D01*
X147245Y94035D01*
X132155Y94035D01*
G37*
%LPD*%
%LPC*%
G36*
X208355Y792535D02*
X208355Y792535D01*
X205575Y793687D01*
X203447Y795815D01*
X202295Y798595D01*
X202295Y801605D01*
X203447Y804385D01*
X205575Y806513D01*
X208355Y807665D01*
X223445Y807665D01*
X226225Y806513D01*
X228353Y804385D01*
X229505Y801605D01*
X229505Y798595D01*
X228353Y795815D01*
X226225Y793687D01*
X223445Y792535D01*
X208355Y792535D01*
G37*
%LPD*%
%LPC*%
G36*
X208355Y398835D02*
X208355Y398835D01*
X205575Y399987D01*
X203447Y402115D01*
X202295Y404895D01*
X202295Y407905D01*
X203447Y410685D01*
X205575Y412813D01*
X208355Y413965D01*
X223445Y413965D01*
X226225Y412813D01*
X228353Y410685D01*
X229505Y407905D01*
X229505Y404895D01*
X228353Y402115D01*
X226225Y399987D01*
X223445Y398835D01*
X208355Y398835D01*
G37*
%LPD*%
%LPC*%
G36*
X132155Y398835D02*
X132155Y398835D01*
X129375Y399987D01*
X127247Y402115D01*
X126095Y404895D01*
X126095Y407905D01*
X127247Y410685D01*
X129375Y412813D01*
X132155Y413965D01*
X147245Y413965D01*
X150025Y412813D01*
X152153Y410685D01*
X153305Y407905D01*
X153305Y404895D01*
X152153Y402115D01*
X150025Y399987D01*
X147245Y398835D01*
X132155Y398835D01*
G37*
%LPD*%
%LPC*%
G36*
X132155Y767135D02*
X132155Y767135D01*
X129375Y768287D01*
X127247Y770415D01*
X126095Y773195D01*
X126095Y776205D01*
X127247Y778985D01*
X129375Y781113D01*
X132155Y782265D01*
X147245Y782265D01*
X150025Y781113D01*
X152153Y778985D01*
X153305Y776205D01*
X153305Y773195D01*
X152153Y770415D01*
X150025Y768287D01*
X147245Y767135D01*
X132155Y767135D01*
G37*
%LPD*%
%LPC*%
G36*
X132155Y741735D02*
X132155Y741735D01*
X129375Y742887D01*
X127247Y745015D01*
X126095Y747795D01*
X126095Y750805D01*
X127247Y753585D01*
X129375Y755713D01*
X132155Y756865D01*
X147245Y756865D01*
X150025Y755713D01*
X152153Y753585D01*
X153305Y750805D01*
X153305Y747795D01*
X152153Y745015D01*
X150025Y742887D01*
X147245Y741735D01*
X132155Y741735D01*
G37*
%LPD*%
%LPC*%
G36*
X208355Y741735D02*
X208355Y741735D01*
X205575Y742887D01*
X203447Y745015D01*
X202295Y747795D01*
X202295Y750805D01*
X203447Y753585D01*
X205575Y755713D01*
X208355Y756865D01*
X223445Y756865D01*
X226225Y755713D01*
X228353Y753585D01*
X229505Y750805D01*
X229505Y747795D01*
X228353Y745015D01*
X226225Y742887D01*
X223445Y741735D01*
X208355Y741735D01*
G37*
%LPD*%
%LPC*%
G36*
X148696Y148693D02*
X148696Y148693D01*
X142893Y154496D01*
X142893Y162704D01*
X148696Y168507D01*
X156904Y168507D01*
X162707Y162704D01*
X162707Y154496D01*
X156904Y148693D01*
X148696Y148693D01*
G37*
%LPD*%
%LPC*%
G36*
X173696Y516993D02*
X173696Y516993D01*
X167893Y522796D01*
X167893Y531004D01*
X173696Y536807D01*
X181904Y536807D01*
X187707Y531004D01*
X187707Y522796D01*
X181904Y516993D01*
X173696Y516993D01*
G37*
%LPD*%
%LPC*%
G36*
X173696Y885293D02*
X173696Y885293D01*
X167893Y891096D01*
X167893Y899304D01*
X173696Y905107D01*
X181904Y905107D01*
X187707Y899304D01*
X187707Y891096D01*
X181904Y885293D01*
X173696Y885293D01*
G37*
%LPD*%
%LPC*%
G36*
X148696Y885293D02*
X148696Y885293D01*
X142893Y891096D01*
X142893Y899304D01*
X148696Y905107D01*
X156904Y905107D01*
X162707Y899304D01*
X162707Y891096D01*
X156904Y885293D01*
X148696Y885293D01*
G37*
%LPD*%
%LPC*%
G36*
X48856Y384725D02*
X48856Y384725D01*
X45263Y386213D01*
X42513Y388963D01*
X41025Y392556D01*
X41025Y396444D01*
X42513Y400037D01*
X45263Y402787D01*
X48856Y404275D01*
X52744Y404275D01*
X56337Y402787D01*
X59087Y400037D01*
X60575Y396444D01*
X60575Y392556D01*
X59087Y388963D01*
X56337Y386213D01*
X52744Y384725D01*
X48856Y384725D01*
G37*
%LPD*%
%LPC*%
G36*
X48856Y838025D02*
X48856Y838025D01*
X45263Y839513D01*
X42513Y842263D01*
X41025Y845856D01*
X41025Y849744D01*
X42513Y853337D01*
X45263Y856087D01*
X48856Y857575D01*
X52744Y857575D01*
X56337Y856087D01*
X59087Y853337D01*
X60575Y849744D01*
X60575Y845856D01*
X59087Y842263D01*
X56337Y839513D01*
X52744Y838025D01*
X48856Y838025D01*
G37*
%LPD*%
%LPC*%
G36*
X302856Y753025D02*
X302856Y753025D01*
X299263Y754513D01*
X296513Y757263D01*
X295025Y760856D01*
X295025Y764744D01*
X296513Y768337D01*
X299263Y771087D01*
X302856Y772575D01*
X306744Y772575D01*
X310337Y771087D01*
X313087Y768337D01*
X314575Y764744D01*
X314575Y760856D01*
X313087Y757263D01*
X310337Y754513D01*
X306744Y753025D01*
X302856Y753025D01*
G37*
%LPD*%
%LPC*%
G36*
X48856Y753025D02*
X48856Y753025D01*
X45263Y754513D01*
X42513Y757263D01*
X41025Y760856D01*
X41025Y764744D01*
X42513Y768337D01*
X45263Y771087D01*
X48856Y772575D01*
X52744Y772575D01*
X56337Y771087D01*
X59087Y768337D01*
X60575Y764744D01*
X60575Y760856D01*
X59087Y757263D01*
X56337Y754513D01*
X52744Y753025D01*
X48856Y753025D01*
G37*
%LPD*%
%LPC*%
G36*
X302856Y838025D02*
X302856Y838025D01*
X299263Y839513D01*
X296513Y842263D01*
X295025Y845856D01*
X295025Y849744D01*
X296513Y853337D01*
X299263Y856087D01*
X302856Y857575D01*
X306744Y857575D01*
X310337Y856087D01*
X313087Y853337D01*
X314575Y849744D01*
X314575Y845856D01*
X313087Y842263D01*
X310337Y839513D01*
X306744Y838025D01*
X302856Y838025D01*
G37*
%LPD*%
%LPC*%
G36*
X302856Y101425D02*
X302856Y101425D01*
X299263Y102913D01*
X296513Y105663D01*
X295025Y109256D01*
X295025Y113144D01*
X296513Y116737D01*
X299263Y119487D01*
X302856Y120975D01*
X306744Y120975D01*
X310337Y119487D01*
X313087Y116737D01*
X314575Y113144D01*
X314575Y109256D01*
X313087Y105663D01*
X310337Y102913D01*
X306744Y101425D01*
X302856Y101425D01*
G37*
%LPD*%
%LPC*%
G36*
X302856Y384725D02*
X302856Y384725D01*
X299263Y386213D01*
X296513Y388963D01*
X295025Y392556D01*
X295025Y396444D01*
X296513Y400037D01*
X299263Y402787D01*
X302856Y404275D01*
X306744Y404275D01*
X310337Y402787D01*
X313087Y400037D01*
X314575Y396444D01*
X314575Y392556D01*
X313087Y388963D01*
X310337Y386213D01*
X306744Y384725D01*
X302856Y384725D01*
G37*
%LPD*%
%LPC*%
G36*
X302856Y16425D02*
X302856Y16425D01*
X299263Y17913D01*
X296513Y20663D01*
X295025Y24256D01*
X295025Y28144D01*
X296513Y31737D01*
X299263Y34487D01*
X302856Y35975D01*
X306744Y35975D01*
X310337Y34487D01*
X313087Y31737D01*
X314575Y28144D01*
X314575Y24256D01*
X313087Y20663D01*
X310337Y17913D01*
X306744Y16425D01*
X302856Y16425D01*
G37*
%LPD*%
%LPC*%
G36*
X48856Y469725D02*
X48856Y469725D01*
X45263Y471213D01*
X42513Y473963D01*
X41025Y477556D01*
X41025Y481444D01*
X42513Y485037D01*
X45263Y487787D01*
X48856Y489275D01*
X52744Y489275D01*
X56337Y487787D01*
X59087Y485037D01*
X60575Y481444D01*
X60575Y477556D01*
X59087Y473963D01*
X56337Y471213D01*
X52744Y469725D01*
X48856Y469725D01*
G37*
%LPD*%
%LPC*%
G36*
X302856Y469725D02*
X302856Y469725D01*
X299263Y471213D01*
X296513Y473963D01*
X295025Y477556D01*
X295025Y481444D01*
X296513Y485037D01*
X299263Y487787D01*
X302856Y489275D01*
X306744Y489275D01*
X310337Y487787D01*
X313087Y485037D01*
X314575Y481444D01*
X314575Y477556D01*
X313087Y473963D01*
X310337Y471213D01*
X306744Y469725D01*
X302856Y469725D01*
G37*
%LPD*%
%LPC*%
G36*
X48856Y101425D02*
X48856Y101425D01*
X45263Y102913D01*
X42513Y105663D01*
X41025Y109256D01*
X41025Y113144D01*
X42513Y116737D01*
X45263Y119487D01*
X48856Y120975D01*
X52744Y120975D01*
X56337Y119487D01*
X59087Y116737D01*
X60575Y113144D01*
X60575Y109256D01*
X59087Y105663D01*
X56337Y102913D01*
X52744Y101425D01*
X48856Y101425D01*
G37*
%LPD*%
%LPC*%
G36*
X277505Y930274D02*
X277505Y930274D01*
X274004Y931724D01*
X271324Y934404D01*
X269874Y937905D01*
X269874Y941695D01*
X271324Y945196D01*
X274004Y947876D01*
X277505Y949326D01*
X281295Y949326D01*
X284796Y947876D01*
X287476Y945196D01*
X288926Y941695D01*
X288926Y937905D01*
X287476Y934404D01*
X284796Y931724D01*
X281295Y930274D01*
X277505Y930274D01*
G37*
%LPD*%
%LPC*%
G36*
X98233Y182371D02*
X98233Y182371D01*
X93471Y187133D01*
X93471Y193867D01*
X98233Y198629D01*
X104967Y198629D01*
X109729Y193867D01*
X109729Y187133D01*
X104967Y182371D01*
X98233Y182371D01*
G37*
%LPD*%
%LPC*%
G36*
X110933Y322071D02*
X110933Y322071D01*
X106171Y326833D01*
X106171Y333567D01*
X110933Y338329D01*
X117667Y338329D01*
X122429Y333567D01*
X122429Y326833D01*
X117667Y322071D01*
X110933Y322071D01*
G37*
%LPD*%
%LPC*%
G36*
X149033Y703071D02*
X149033Y703071D01*
X144271Y707833D01*
X144271Y714567D01*
X149033Y719329D01*
X155767Y719329D01*
X160529Y714567D01*
X160529Y707833D01*
X155767Y703071D01*
X149033Y703071D01*
G37*
%LPD*%
%LPC*%
G36*
X250633Y309371D02*
X250633Y309371D01*
X245871Y314133D01*
X245871Y320867D01*
X250633Y325629D01*
X257367Y325629D01*
X262129Y320867D01*
X262129Y314133D01*
X257367Y309371D01*
X250633Y309371D01*
G37*
%LPD*%
%LPC*%
G36*
X110933Y715771D02*
X110933Y715771D01*
X106171Y720533D01*
X106171Y727267D01*
X110933Y732029D01*
X117667Y732029D01*
X122429Y727267D01*
X122429Y720533D01*
X117667Y715771D01*
X110933Y715771D01*
G37*
%LPD*%
%LPC*%
G36*
X22033Y207771D02*
X22033Y207771D01*
X17271Y212533D01*
X17271Y219267D01*
X22033Y224029D01*
X28767Y224029D01*
X33529Y219267D01*
X33529Y212533D01*
X28767Y207771D01*
X22033Y207771D01*
G37*
%LPD*%
%LPC*%
G36*
X22033Y182371D02*
X22033Y182371D01*
X17271Y187133D01*
X17271Y193867D01*
X22033Y198629D01*
X28767Y198629D01*
X33529Y193867D01*
X33529Y187133D01*
X28767Y182371D01*
X22033Y182371D01*
G37*
%LPD*%
%LPC*%
G36*
X250633Y283971D02*
X250633Y283971D01*
X245871Y288733D01*
X245871Y295467D01*
X250633Y300229D01*
X257367Y300229D01*
X262129Y295467D01*
X262129Y288733D01*
X257367Y283971D01*
X250633Y283971D01*
G37*
%LPD*%
%LPC*%
G36*
X326833Y309371D02*
X326833Y309371D01*
X322071Y314133D01*
X322071Y320867D01*
X326833Y325629D01*
X333567Y325629D01*
X338329Y320867D01*
X338329Y314133D01*
X333567Y309371D01*
X326833Y309371D01*
G37*
%LPD*%
%LPC*%
G36*
X34733Y322071D02*
X34733Y322071D01*
X29971Y326833D01*
X29971Y333567D01*
X34733Y338329D01*
X41467Y338329D01*
X46229Y333567D01*
X46229Y326833D01*
X41467Y322071D01*
X34733Y322071D01*
G37*
%LPD*%
%LPC*%
G36*
X326833Y334771D02*
X326833Y334771D01*
X322071Y339533D01*
X322071Y346267D01*
X326833Y351029D01*
X333567Y351029D01*
X338329Y346267D01*
X338329Y339533D01*
X333567Y334771D01*
X326833Y334771D01*
G37*
%LPD*%
%LPC*%
G36*
X110933Y791971D02*
X110933Y791971D01*
X106171Y796733D01*
X106171Y803467D01*
X110933Y808229D01*
X117667Y808229D01*
X122429Y803467D01*
X122429Y796733D01*
X117667Y791971D01*
X110933Y791971D01*
G37*
%LPD*%
%LPC*%
G36*
X250633Y334771D02*
X250633Y334771D01*
X245871Y339533D01*
X245871Y346267D01*
X250633Y351029D01*
X257367Y351029D01*
X262129Y346267D01*
X262129Y339533D01*
X257367Y334771D01*
X250633Y334771D01*
G37*
%LPD*%
%LPC*%
G36*
X326833Y283971D02*
X326833Y283971D01*
X322071Y288733D01*
X322071Y295467D01*
X326833Y300229D01*
X333567Y300229D01*
X338329Y295467D01*
X338329Y288733D01*
X333567Y283971D01*
X326833Y283971D01*
G37*
%LPD*%
%LPC*%
G36*
X204323Y160123D02*
X204323Y160123D01*
X204323Y169523D01*
X211516Y169523D01*
X212163Y169350D01*
X212742Y169015D01*
X213215Y168542D01*
X213550Y167963D01*
X213723Y167316D01*
X213723Y160123D01*
X204323Y160123D01*
G37*
%LPD*%
%LPC*%
G36*
X204323Y147677D02*
X204323Y147677D01*
X204323Y157077D01*
X213723Y157077D01*
X213723Y149884D01*
X213550Y149237D01*
X213215Y148658D01*
X212742Y148185D01*
X212163Y147850D01*
X211516Y147677D01*
X204323Y147677D01*
G37*
%LPD*%
%LPC*%
G36*
X191877Y160123D02*
X191877Y160123D01*
X191877Y167316D01*
X192050Y167963D01*
X192385Y168542D01*
X192858Y169015D01*
X193437Y169350D01*
X194084Y169523D01*
X201277Y169523D01*
X201277Y160123D01*
X191877Y160123D01*
G37*
%LPD*%
%LPC*%
G36*
X194084Y147677D02*
X194084Y147677D01*
X193437Y147850D01*
X192858Y148185D01*
X192385Y148658D01*
X192050Y149237D01*
X191877Y149884D01*
X191877Y157077D01*
X201277Y157077D01*
X201277Y147677D01*
X194084Y147677D01*
G37*
%LPD*%
%LPC*%
G36*
X306323Y941323D02*
X306323Y941323D01*
X306323Y950342D01*
X309167Y950342D01*
X315342Y944167D01*
X315342Y941323D01*
X306323Y941323D01*
G37*
%LPD*%
%LPC*%
G36*
X293623Y674623D02*
X293623Y674623D01*
X293623Y683642D01*
X296467Y683642D01*
X302642Y677467D01*
X302642Y674623D01*
X293623Y674623D01*
G37*
%LPD*%
%LPC*%
G36*
X293623Y662558D02*
X293623Y662558D01*
X293623Y671577D01*
X302642Y671577D01*
X302642Y668733D01*
X296467Y662558D01*
X293623Y662558D01*
G37*
%LPD*%
%LPC*%
G36*
X281558Y674623D02*
X281558Y674623D01*
X281558Y677467D01*
X287733Y683642D01*
X290577Y683642D01*
X290577Y674623D01*
X281558Y674623D01*
G37*
%LPD*%
%LPC*%
G36*
X294258Y941323D02*
X294258Y941323D01*
X294258Y944167D01*
X300433Y950342D01*
X303277Y950342D01*
X303277Y941323D01*
X294258Y941323D01*
G37*
%LPD*%
%LPC*%
G36*
X306323Y929258D02*
X306323Y929258D01*
X306323Y938277D01*
X315342Y938277D01*
X315342Y935433D01*
X309167Y929258D01*
X306323Y929258D01*
G37*
%LPD*%
%LPC*%
G36*
X300433Y929258D02*
X300433Y929258D01*
X294258Y935433D01*
X294258Y938277D01*
X303277Y938277D01*
X303277Y929258D01*
X300433Y929258D01*
G37*
%LPD*%
%LPC*%
G36*
X287733Y662558D02*
X287733Y662558D01*
X281558Y668733D01*
X281558Y671577D01*
X290577Y671577D01*
X290577Y662558D01*
X287733Y662558D01*
G37*
%LPD*%
%LPC*%
G36*
X306323Y879323D02*
X306323Y879323D01*
X306323Y888484D01*
X307327Y888325D01*
X308942Y887800D01*
X310455Y887029D01*
X311830Y886031D01*
X313031Y884830D01*
X314029Y883455D01*
X314800Y881942D01*
X315325Y880327D01*
X315484Y879323D01*
X306323Y879323D01*
G37*
%LPD*%
%LPC*%
G36*
X52323Y511023D02*
X52323Y511023D01*
X52323Y520184D01*
X53327Y520025D01*
X54942Y519500D01*
X56455Y518729D01*
X57830Y517731D01*
X59031Y516530D01*
X60029Y515155D01*
X60800Y513642D01*
X61325Y512027D01*
X61484Y511023D01*
X52323Y511023D01*
G37*
%LPD*%
%LPC*%
G36*
X306323Y511023D02*
X306323Y511023D01*
X306323Y520184D01*
X307327Y520025D01*
X308942Y519500D01*
X310455Y518729D01*
X311830Y517731D01*
X313031Y516530D01*
X314029Y515155D01*
X314800Y513642D01*
X315325Y512027D01*
X315484Y511023D01*
X306323Y511023D01*
G37*
%LPD*%
%LPC*%
G36*
X52323Y142723D02*
X52323Y142723D01*
X52323Y151884D01*
X53327Y151725D01*
X54942Y151200D01*
X56455Y150429D01*
X57830Y149431D01*
X59031Y148230D01*
X60029Y146855D01*
X60800Y145342D01*
X61325Y143727D01*
X61484Y142723D01*
X52323Y142723D01*
G37*
%LPD*%
%LPC*%
G36*
X306323Y142723D02*
X306323Y142723D01*
X306323Y151884D01*
X307327Y151725D01*
X308942Y151200D01*
X310455Y150429D01*
X311830Y149431D01*
X313031Y148230D01*
X314029Y146855D01*
X314800Y145342D01*
X315325Y143727D01*
X315484Y142723D01*
X306323Y142723D01*
G37*
%LPD*%
%LPC*%
G36*
X52323Y879323D02*
X52323Y879323D01*
X52323Y888484D01*
X53327Y888325D01*
X54942Y887800D01*
X56455Y887029D01*
X57830Y886031D01*
X59031Y884830D01*
X60029Y883455D01*
X60800Y881942D01*
X61325Y880327D01*
X61484Y879323D01*
X52323Y879323D01*
G37*
%LPD*%
%LPC*%
G36*
X294116Y879323D02*
X294116Y879323D01*
X294275Y880327D01*
X294800Y881942D01*
X295571Y883455D01*
X296569Y884830D01*
X297770Y886031D01*
X299145Y887029D01*
X300658Y887800D01*
X302273Y888325D01*
X303277Y888484D01*
X303277Y879323D01*
X294116Y879323D01*
G37*
%LPD*%
%LPC*%
G36*
X52323Y139677D02*
X52323Y139677D01*
X61484Y139677D01*
X61325Y138673D01*
X60800Y137058D01*
X60029Y135545D01*
X59031Y134170D01*
X57830Y132969D01*
X56455Y131971D01*
X54942Y131200D01*
X53327Y130675D01*
X52323Y130516D01*
X52323Y139677D01*
G37*
%LPD*%
%LPC*%
G36*
X306323Y507977D02*
X306323Y507977D01*
X315484Y507977D01*
X315325Y506973D01*
X314800Y505358D01*
X314029Y503845D01*
X313031Y502470D01*
X311830Y501269D01*
X310455Y500271D01*
X308942Y499500D01*
X307327Y498975D01*
X306323Y498816D01*
X306323Y507977D01*
G37*
%LPD*%
%LPC*%
G36*
X306323Y876277D02*
X306323Y876277D01*
X315484Y876277D01*
X315325Y875273D01*
X314800Y873658D01*
X314029Y872145D01*
X313031Y870770D01*
X311830Y869569D01*
X310455Y868571D01*
X308942Y867800D01*
X307327Y867275D01*
X306323Y867116D01*
X306323Y876277D01*
G37*
%LPD*%
%LPC*%
G36*
X52323Y876277D02*
X52323Y876277D01*
X61484Y876277D01*
X61325Y875273D01*
X60800Y873658D01*
X60029Y872145D01*
X59031Y870770D01*
X57830Y869569D01*
X56455Y868571D01*
X54942Y867800D01*
X53327Y867275D01*
X52323Y867116D01*
X52323Y876277D01*
G37*
%LPD*%
%LPC*%
G36*
X40116Y511023D02*
X40116Y511023D01*
X40275Y512027D01*
X40800Y513642D01*
X41571Y515155D01*
X42569Y516530D01*
X43770Y517731D01*
X45145Y518729D01*
X46658Y519500D01*
X48273Y520025D01*
X49277Y520184D01*
X49277Y511023D01*
X40116Y511023D01*
G37*
%LPD*%
%LPC*%
G36*
X294116Y511023D02*
X294116Y511023D01*
X294275Y512027D01*
X294800Y513642D01*
X295571Y515155D01*
X296569Y516530D01*
X297770Y517731D01*
X299145Y518729D01*
X300658Y519500D01*
X302273Y520025D01*
X303277Y520184D01*
X303277Y511023D01*
X294116Y511023D01*
G37*
%LPD*%
%LPC*%
G36*
X52323Y507977D02*
X52323Y507977D01*
X61484Y507977D01*
X61325Y506973D01*
X60800Y505358D01*
X60029Y503845D01*
X59031Y502470D01*
X57830Y501269D01*
X56455Y500271D01*
X54942Y499500D01*
X53327Y498975D01*
X52323Y498816D01*
X52323Y507977D01*
G37*
%LPD*%
%LPC*%
G36*
X294116Y142723D02*
X294116Y142723D01*
X294275Y143727D01*
X294800Y145342D01*
X295571Y146855D01*
X296569Y148230D01*
X297770Y149431D01*
X299145Y150429D01*
X300658Y151200D01*
X302273Y151725D01*
X303277Y151884D01*
X303277Y142723D01*
X294116Y142723D01*
G37*
%LPD*%
%LPC*%
G36*
X40116Y142723D02*
X40116Y142723D01*
X40275Y143727D01*
X40800Y145342D01*
X41571Y146855D01*
X42569Y148230D01*
X43770Y149431D01*
X45145Y150429D01*
X46658Y151200D01*
X48273Y151725D01*
X49277Y151884D01*
X49277Y142723D01*
X40116Y142723D01*
G37*
%LPD*%
%LPC*%
G36*
X306323Y139677D02*
X306323Y139677D01*
X315484Y139677D01*
X315325Y138673D01*
X314800Y137058D01*
X314029Y135545D01*
X313031Y134170D01*
X311830Y132969D01*
X310455Y131971D01*
X308942Y131200D01*
X307327Y130675D01*
X306323Y130516D01*
X306323Y139677D01*
G37*
%LPD*%
%LPC*%
G36*
X40116Y879323D02*
X40116Y879323D01*
X40275Y880327D01*
X40800Y881942D01*
X41571Y883455D01*
X42569Y884830D01*
X43770Y886031D01*
X45145Y887029D01*
X46658Y887800D01*
X48273Y888325D01*
X49277Y888484D01*
X49277Y879323D01*
X40116Y879323D01*
G37*
%LPD*%
%LPC*%
G36*
X302273Y867275D02*
X302273Y867275D01*
X300658Y867800D01*
X299145Y868571D01*
X297770Y869569D01*
X296569Y870770D01*
X295571Y872145D01*
X294800Y873658D01*
X294275Y875273D01*
X294116Y876277D01*
X303277Y876277D01*
X303277Y867116D01*
X302273Y867275D01*
G37*
%LPD*%
%LPC*%
G36*
X302273Y130675D02*
X302273Y130675D01*
X300658Y131200D01*
X299145Y131971D01*
X297770Y132969D01*
X296569Y134170D01*
X295571Y135545D01*
X294800Y137058D01*
X294275Y138673D01*
X294116Y139677D01*
X303277Y139677D01*
X303277Y130516D01*
X302273Y130675D01*
G37*
%LPD*%
%LPC*%
G36*
X48273Y867275D02*
X48273Y867275D01*
X46658Y867800D01*
X45145Y868571D01*
X43770Y869569D01*
X42569Y870770D01*
X41571Y872145D01*
X40800Y873658D01*
X40275Y875273D01*
X40116Y876277D01*
X49277Y876277D01*
X49277Y867116D01*
X48273Y867275D01*
G37*
%LPD*%
%LPC*%
G36*
X48273Y130675D02*
X48273Y130675D01*
X46658Y131200D01*
X45145Y131971D01*
X43770Y132969D01*
X42569Y134170D01*
X41571Y135545D01*
X40800Y137058D01*
X40275Y138673D01*
X40116Y139677D01*
X49277Y139677D01*
X49277Y130516D01*
X48273Y130675D01*
G37*
%LPD*%
%LPC*%
G36*
X48273Y498975D02*
X48273Y498975D01*
X46658Y499500D01*
X45145Y500271D01*
X43770Y501269D01*
X42569Y502470D01*
X41571Y503845D01*
X40800Y505358D01*
X40275Y506973D01*
X40116Y507977D01*
X49277Y507977D01*
X49277Y498816D01*
X48273Y498975D01*
G37*
%LPD*%
%LPC*%
G36*
X302273Y498975D02*
X302273Y498975D01*
X300658Y499500D01*
X299145Y500271D01*
X297770Y501269D01*
X296569Y502470D01*
X295571Y503845D01*
X294800Y505358D01*
X294275Y506973D01*
X294116Y507977D01*
X303277Y507977D01*
X303277Y498816D01*
X302273Y498975D01*
G37*
%LPD*%
%LPC*%
G36*
X255523Y725423D02*
X255523Y725423D01*
X255523Y734332D01*
X256468Y734182D01*
X258047Y733669D01*
X259525Y732916D01*
X260867Y731941D01*
X262041Y730767D01*
X263016Y729425D01*
X263769Y727947D01*
X264282Y726368D01*
X264432Y725423D01*
X255523Y725423D01*
G37*
%LPD*%
%LPC*%
G36*
X243568Y725423D02*
X243568Y725423D01*
X243718Y726368D01*
X244231Y727947D01*
X244984Y729425D01*
X245959Y730767D01*
X247133Y731941D01*
X248475Y732916D01*
X249953Y733669D01*
X251532Y734182D01*
X252477Y734332D01*
X252477Y725423D01*
X243568Y725423D01*
G37*
%LPD*%
%LPC*%
G36*
X255523Y722377D02*
X255523Y722377D01*
X264432Y722377D01*
X264282Y721432D01*
X263769Y719853D01*
X263016Y718375D01*
X262041Y717033D01*
X260867Y715859D01*
X259525Y714884D01*
X258047Y714131D01*
X256468Y713618D01*
X255523Y713468D01*
X255523Y722377D01*
G37*
%LPD*%
%LPC*%
G36*
X251532Y713618D02*
X251532Y713618D01*
X249953Y714131D01*
X248475Y714884D01*
X247133Y715859D01*
X245959Y717033D01*
X244984Y718375D01*
X244231Y719853D01*
X243718Y721432D01*
X243568Y722377D01*
X252477Y722377D01*
X252477Y713468D01*
X251532Y713618D01*
G37*
%LPD*%
%LPC*%
G36*
X65023Y611123D02*
X65023Y611123D01*
X65023Y619253D01*
X67498Y619253D01*
X73153Y613598D01*
X73153Y611123D01*
X65023Y611123D01*
G37*
%LPD*%
%LPC*%
G36*
X65023Y661923D02*
X65023Y661923D01*
X65023Y670053D01*
X67498Y670053D01*
X73153Y664398D01*
X73153Y661923D01*
X65023Y661923D01*
G37*
%LPD*%
%LPC*%
G36*
X39623Y661923D02*
X39623Y661923D01*
X39623Y670053D01*
X42098Y670053D01*
X47753Y664398D01*
X47753Y661923D01*
X39623Y661923D01*
G37*
%LPD*%
%LPC*%
G36*
X39623Y611123D02*
X39623Y611123D01*
X39623Y619253D01*
X42098Y619253D01*
X47753Y613598D01*
X47753Y611123D01*
X39623Y611123D01*
G37*
%LPD*%
%LPC*%
G36*
X39623Y636523D02*
X39623Y636523D01*
X39623Y644653D01*
X42098Y644653D01*
X47753Y638998D01*
X47753Y636523D01*
X39623Y636523D01*
G37*
%LPD*%
%LPC*%
G36*
X65023Y636523D02*
X65023Y636523D01*
X65023Y644653D01*
X67498Y644653D01*
X73153Y638998D01*
X73153Y636523D01*
X65023Y636523D01*
G37*
%LPD*%
%LPC*%
G36*
X28447Y636523D02*
X28447Y636523D01*
X28447Y638998D01*
X34102Y644653D01*
X36577Y644653D01*
X36577Y636523D01*
X28447Y636523D01*
G37*
%LPD*%
%LPC*%
G36*
X53847Y636523D02*
X53847Y636523D01*
X53847Y638998D01*
X59502Y644653D01*
X61977Y644653D01*
X61977Y636523D01*
X53847Y636523D01*
G37*
%LPD*%
%LPC*%
G36*
X28447Y661923D02*
X28447Y661923D01*
X28447Y664398D01*
X34102Y670053D01*
X36577Y670053D01*
X36577Y661923D01*
X28447Y661923D01*
G37*
%LPD*%
%LPC*%
G36*
X53847Y661923D02*
X53847Y661923D01*
X53847Y664398D01*
X59502Y670053D01*
X61977Y670053D01*
X61977Y661923D01*
X53847Y661923D01*
G37*
%LPD*%
%LPC*%
G36*
X28447Y611123D02*
X28447Y611123D01*
X28447Y613598D01*
X34102Y619253D01*
X36577Y619253D01*
X36577Y611123D01*
X28447Y611123D01*
G37*
%LPD*%
%LPC*%
G36*
X53847Y611123D02*
X53847Y611123D01*
X53847Y613598D01*
X59502Y619253D01*
X61977Y619253D01*
X61977Y611123D01*
X53847Y611123D01*
G37*
%LPD*%
%LPC*%
G36*
X39623Y599947D02*
X39623Y599947D01*
X39623Y608077D01*
X47753Y608077D01*
X47753Y605602D01*
X42098Y599947D01*
X39623Y599947D01*
G37*
%LPD*%
%LPC*%
G36*
X39623Y625347D02*
X39623Y625347D01*
X39623Y633477D01*
X47753Y633477D01*
X47753Y631002D01*
X42098Y625347D01*
X39623Y625347D01*
G37*
%LPD*%
%LPC*%
G36*
X65023Y650747D02*
X65023Y650747D01*
X65023Y658877D01*
X73153Y658877D01*
X73153Y656402D01*
X67498Y650747D01*
X65023Y650747D01*
G37*
%LPD*%
%LPC*%
G36*
X65023Y625347D02*
X65023Y625347D01*
X65023Y633477D01*
X73153Y633477D01*
X73153Y631002D01*
X67498Y625347D01*
X65023Y625347D01*
G37*
%LPD*%
%LPC*%
G36*
X39623Y650747D02*
X39623Y650747D01*
X39623Y658877D01*
X47753Y658877D01*
X47753Y656402D01*
X42098Y650747D01*
X39623Y650747D01*
G37*
%LPD*%
%LPC*%
G36*
X65023Y599947D02*
X65023Y599947D01*
X65023Y608077D01*
X73153Y608077D01*
X73153Y605602D01*
X67498Y599947D01*
X65023Y599947D01*
G37*
%LPD*%
%LPC*%
G36*
X59502Y650747D02*
X59502Y650747D01*
X53847Y656402D01*
X53847Y658877D01*
X61977Y658877D01*
X61977Y650747D01*
X59502Y650747D01*
G37*
%LPD*%
%LPC*%
G36*
X59502Y625347D02*
X59502Y625347D01*
X53847Y631002D01*
X53847Y633477D01*
X61977Y633477D01*
X61977Y625347D01*
X59502Y625347D01*
G37*
%LPD*%
%LPC*%
G36*
X34102Y599947D02*
X34102Y599947D01*
X28447Y605602D01*
X28447Y608077D01*
X36577Y608077D01*
X36577Y599947D01*
X34102Y599947D01*
G37*
%LPD*%
%LPC*%
G36*
X34102Y625347D02*
X34102Y625347D01*
X28447Y631002D01*
X28447Y633477D01*
X36577Y633477D01*
X36577Y625347D01*
X34102Y625347D01*
G37*
%LPD*%
%LPC*%
G36*
X34102Y650747D02*
X34102Y650747D01*
X28447Y656402D01*
X28447Y658877D01*
X36577Y658877D01*
X36577Y650747D01*
X34102Y650747D01*
G37*
%LPD*%
%LPC*%
G36*
X59502Y599947D02*
X59502Y599947D01*
X53847Y605602D01*
X53847Y608077D01*
X61977Y608077D01*
X61977Y599947D01*
X59502Y599947D01*
G37*
%LPD*%
%LPC*%
G36*
X153923Y471423D02*
X153923Y471423D01*
X153923Y479045D01*
X156188Y479045D01*
X161545Y473688D01*
X161545Y471423D01*
X153923Y471423D01*
G37*
%LPD*%
%LPC*%
G36*
X204723Y712723D02*
X204723Y712723D01*
X204723Y720345D01*
X206988Y720345D01*
X212345Y714988D01*
X212345Y712723D01*
X204723Y712723D01*
G37*
%LPD*%
%LPC*%
G36*
X204723Y20573D02*
X204723Y20573D01*
X204723Y28195D01*
X206988Y28195D01*
X212345Y22838D01*
X212345Y20573D01*
X204723Y20573D01*
G37*
%LPD*%
%LPC*%
G36*
X204723Y319023D02*
X204723Y319023D01*
X204723Y326645D01*
X206988Y326645D01*
X212345Y321288D01*
X212345Y319023D01*
X204723Y319023D01*
G37*
%LPD*%
%LPC*%
G36*
X255523Y179323D02*
X255523Y179323D01*
X255523Y186945D01*
X257788Y186945D01*
X263145Y181588D01*
X263145Y179323D01*
X255523Y179323D01*
G37*
%LPD*%
%LPC*%
G36*
X103123Y217423D02*
X103123Y217423D01*
X103123Y225045D01*
X105388Y225045D01*
X110745Y219688D01*
X110745Y217423D01*
X103123Y217423D01*
G37*
%LPD*%
%LPC*%
G36*
X153923Y865123D02*
X153923Y865123D01*
X153923Y872745D01*
X156188Y872745D01*
X161545Y867388D01*
X161545Y865123D01*
X153923Y865123D01*
G37*
%LPD*%
%LPC*%
G36*
X92455Y217423D02*
X92455Y217423D01*
X92455Y219688D01*
X97812Y225045D01*
X100077Y225045D01*
X100077Y217423D01*
X92455Y217423D01*
G37*
%LPD*%
%LPC*%
G36*
X194055Y319023D02*
X194055Y319023D01*
X194055Y321288D01*
X199412Y326645D01*
X201677Y326645D01*
X201677Y319023D01*
X194055Y319023D01*
G37*
%LPD*%
%LPC*%
G36*
X194055Y712723D02*
X194055Y712723D01*
X194055Y714988D01*
X199412Y720345D01*
X201677Y720345D01*
X201677Y712723D01*
X194055Y712723D01*
G37*
%LPD*%
%LPC*%
G36*
X194055Y20573D02*
X194055Y20573D01*
X194055Y22838D01*
X199412Y28195D01*
X201677Y28195D01*
X201677Y20573D01*
X194055Y20573D01*
G37*
%LPD*%
%LPC*%
G36*
X143255Y471423D02*
X143255Y471423D01*
X143255Y473688D01*
X148612Y479045D01*
X150877Y479045D01*
X150877Y471423D01*
X143255Y471423D01*
G37*
%LPD*%
%LPC*%
G36*
X143255Y865123D02*
X143255Y865123D01*
X143255Y867388D01*
X148612Y872745D01*
X150877Y872745D01*
X150877Y865123D01*
X143255Y865123D01*
G37*
%LPD*%
%LPC*%
G36*
X153923Y460755D02*
X153923Y460755D01*
X153923Y468377D01*
X161545Y468377D01*
X161545Y466112D01*
X156188Y460755D01*
X153923Y460755D01*
G37*
%LPD*%
%LPC*%
G36*
X204723Y702055D02*
X204723Y702055D01*
X204723Y709677D01*
X212345Y709677D01*
X212345Y707412D01*
X206988Y702055D01*
X204723Y702055D01*
G37*
%LPD*%
%LPC*%
G36*
X244855Y179323D02*
X244855Y179323D01*
X244855Y181588D01*
X250212Y186945D01*
X252477Y186945D01*
X252477Y179323D01*
X244855Y179323D01*
G37*
%LPD*%
%LPC*%
G36*
X103123Y206755D02*
X103123Y206755D01*
X103123Y214377D01*
X110745Y214377D01*
X110745Y212112D01*
X105388Y206755D01*
X103123Y206755D01*
G37*
%LPD*%
%LPC*%
G36*
X153923Y854455D02*
X153923Y854455D01*
X153923Y862077D01*
X161545Y862077D01*
X161545Y859812D01*
X156188Y854455D01*
X153923Y854455D01*
G37*
%LPD*%
%LPC*%
G36*
X204723Y308355D02*
X204723Y308355D01*
X204723Y315977D01*
X212345Y315977D01*
X212345Y313712D01*
X206988Y308355D01*
X204723Y308355D01*
G37*
%LPD*%
%LPC*%
G36*
X255523Y168655D02*
X255523Y168655D01*
X255523Y176277D01*
X263145Y176277D01*
X263145Y174012D01*
X257788Y168655D01*
X255523Y168655D01*
G37*
%LPD*%
%LPC*%
G36*
X250212Y168655D02*
X250212Y168655D01*
X244855Y174012D01*
X244855Y176277D01*
X252477Y176277D01*
X252477Y168655D01*
X250212Y168655D01*
G37*
%LPD*%
%LPC*%
G36*
X148612Y460755D02*
X148612Y460755D01*
X143255Y466112D01*
X143255Y468377D01*
X150877Y468377D01*
X150877Y460755D01*
X148612Y460755D01*
G37*
%LPD*%
%LPC*%
G36*
X148612Y854455D02*
X148612Y854455D01*
X143255Y859812D01*
X143255Y862077D01*
X150877Y862077D01*
X150877Y854455D01*
X148612Y854455D01*
G37*
%LPD*%
%LPC*%
G36*
X199412Y308355D02*
X199412Y308355D01*
X194055Y313712D01*
X194055Y315977D01*
X201677Y315977D01*
X201677Y308355D01*
X199412Y308355D01*
G37*
%LPD*%
%LPC*%
G36*
X97812Y206755D02*
X97812Y206755D01*
X92455Y212112D01*
X92455Y214377D01*
X100077Y214377D01*
X100077Y206755D01*
X97812Y206755D01*
G37*
%LPD*%
%LPC*%
G36*
X199412Y702055D02*
X199412Y702055D01*
X194055Y707412D01*
X194055Y709677D01*
X201677Y709677D01*
X201677Y702055D01*
X199412Y702055D01*
G37*
%LPD*%
%LPC*%
G36*
X202799Y158599D02*
X202799Y158599D01*
X202799Y158601D01*
X202801Y158601D01*
X202801Y158599D01*
X202799Y158599D01*
G37*
%LPD*%
%LPC*%
G36*
X38099Y660399D02*
X38099Y660399D01*
X38099Y660401D01*
X38101Y660401D01*
X38101Y660399D01*
X38099Y660399D01*
G37*
%LPD*%
%LPC*%
G36*
X63499Y660399D02*
X63499Y660399D01*
X63499Y660401D01*
X63501Y660401D01*
X63501Y660399D01*
X63499Y660399D01*
G37*
%LPD*%
%LPC*%
G36*
X292099Y673099D02*
X292099Y673099D01*
X292099Y673101D01*
X292101Y673101D01*
X292101Y673099D01*
X292099Y673099D01*
G37*
%LPD*%
%LPC*%
G36*
X38099Y609599D02*
X38099Y609599D01*
X38099Y609601D01*
X38101Y609601D01*
X38101Y609599D01*
X38099Y609599D01*
G37*
%LPD*%
%LPC*%
G36*
X101599Y215899D02*
X101599Y215899D01*
X101599Y215901D01*
X101601Y215901D01*
X101601Y215899D01*
X101599Y215899D01*
G37*
%LPD*%
%LPC*%
G36*
X203199Y711199D02*
X203199Y711199D01*
X203199Y711201D01*
X203201Y711201D01*
X203201Y711199D01*
X203199Y711199D01*
G37*
%LPD*%
%LPC*%
G36*
X304799Y141199D02*
X304799Y141199D01*
X304799Y141201D01*
X304801Y141201D01*
X304801Y141199D01*
X304799Y141199D01*
G37*
%LPD*%
%LPC*%
G36*
X38099Y634999D02*
X38099Y634999D01*
X38099Y635001D01*
X38101Y635001D01*
X38101Y634999D01*
X38099Y634999D01*
G37*
%LPD*%
%LPC*%
G36*
X63499Y609599D02*
X63499Y609599D01*
X63499Y609601D01*
X63501Y609601D01*
X63501Y609599D01*
X63499Y609599D01*
G37*
%LPD*%
%LPC*%
G36*
X253999Y177799D02*
X253999Y177799D01*
X253999Y177801D01*
X254001Y177801D01*
X254001Y177799D01*
X253999Y177799D01*
G37*
%LPD*%
%LPC*%
G36*
X253999Y723899D02*
X253999Y723899D01*
X253999Y723901D01*
X254001Y723901D01*
X254001Y723899D01*
X253999Y723899D01*
G37*
%LPD*%
%LPC*%
G36*
X63499Y634999D02*
X63499Y634999D01*
X63499Y635001D01*
X63501Y635001D01*
X63501Y634999D01*
X63499Y634999D01*
G37*
%LPD*%
%LPC*%
G36*
X203199Y317499D02*
X203199Y317499D01*
X203199Y317501D01*
X203201Y317501D01*
X203201Y317499D01*
X203199Y317499D01*
G37*
%LPD*%
%LPC*%
G36*
X152399Y863599D02*
X152399Y863599D01*
X152399Y863601D01*
X152401Y863601D01*
X152401Y863599D01*
X152399Y863599D01*
G37*
%LPD*%
%LPC*%
G36*
X304799Y509499D02*
X304799Y509499D01*
X304799Y509501D01*
X304801Y509501D01*
X304801Y509499D01*
X304799Y509499D01*
G37*
%LPD*%
%LPC*%
G36*
X50799Y509499D02*
X50799Y509499D01*
X50799Y509501D01*
X50801Y509501D01*
X50801Y509499D01*
X50799Y509499D01*
G37*
%LPD*%
%LPC*%
G36*
X50799Y877799D02*
X50799Y877799D01*
X50799Y877801D01*
X50801Y877801D01*
X50801Y877799D01*
X50799Y877799D01*
G37*
%LPD*%
%LPC*%
G36*
X304799Y877799D02*
X304799Y877799D01*
X304799Y877801D01*
X304801Y877801D01*
X304801Y877799D01*
X304799Y877799D01*
G37*
%LPD*%
%LPC*%
G36*
X304799Y939799D02*
X304799Y939799D01*
X304799Y939801D01*
X304801Y939801D01*
X304801Y939799D01*
X304799Y939799D01*
G37*
%LPD*%
%LPC*%
G36*
X152399Y469899D02*
X152399Y469899D01*
X152399Y469901D01*
X152401Y469901D01*
X152401Y469899D01*
X152399Y469899D01*
G37*
%LPD*%
%LPC*%
G36*
X50799Y141199D02*
X50799Y141199D01*
X50799Y141201D01*
X50801Y141201D01*
X50801Y141199D01*
X50799Y141199D01*
G37*
%LPD*%
D10*
X221940Y749300D02*
X209860Y749300D01*
X209860Y774700D02*
X221940Y774700D01*
X221940Y800100D02*
X209860Y800100D01*
X209860Y825500D02*
X221940Y825500D01*
X145740Y825500D02*
X133660Y825500D01*
X133660Y800100D02*
X145740Y800100D01*
X145740Y774700D02*
X133660Y774700D01*
X133660Y749300D02*
X145740Y749300D01*
X209860Y50800D02*
X221940Y50800D01*
X221940Y76200D02*
X209860Y76200D01*
X209860Y101600D02*
X221940Y101600D01*
X221940Y127000D02*
X209860Y127000D01*
X145740Y127000D02*
X133660Y127000D01*
X133660Y101600D02*
X145740Y101600D01*
X145740Y76200D02*
X133660Y76200D01*
X133660Y50800D02*
X145740Y50800D01*
X209860Y355600D02*
X221940Y355600D01*
X221940Y381000D02*
X209860Y381000D01*
X209860Y406400D02*
X221940Y406400D01*
X221940Y431800D02*
X209860Y431800D01*
X145740Y431800D02*
X133660Y431800D01*
X133660Y406400D02*
X145740Y406400D01*
X145740Y381000D02*
X133660Y381000D01*
X133660Y355600D02*
X145740Y355600D01*
D11*
X50800Y762800D03*
X50800Y847800D03*
X50800Y877800D03*
X50800Y26200D03*
X50800Y111200D03*
X50800Y141200D03*
X304800Y762800D03*
X304800Y847800D03*
X304800Y877800D03*
X304800Y26200D03*
X304800Y111200D03*
X304800Y141200D03*
X50800Y394500D03*
X50800Y479500D03*
X50800Y509500D03*
X304800Y394500D03*
X304800Y479500D03*
X304800Y509500D03*
D12*
X202800Y895200D03*
D13*
X177800Y895200D03*
X152800Y895200D03*
D14*
X132800Y965200D03*
X222800Y965200D03*
D12*
X202800Y158600D03*
D13*
X177800Y158600D03*
X152800Y158600D03*
D14*
X132800Y228600D03*
X222800Y228600D03*
D12*
X202800Y526900D03*
D13*
X177800Y526900D03*
X152800Y526900D03*
D14*
X132800Y596900D03*
X222800Y596900D03*
D15*
X304800Y939800D03*
D16*
X279400Y939800D03*
D17*
X114300Y800100D03*
X114300Y723900D03*
D18*
X254000Y698500D03*
D16*
X254000Y723900D03*
D19*
X292100Y673100D03*
D16*
X292100Y647700D03*
D20*
X63500Y584200D03*
X38100Y584200D03*
X63500Y609600D03*
X38100Y609600D03*
X63500Y635000D03*
X38100Y635000D03*
X63500Y660400D03*
X38100Y660400D03*
X63500Y685800D03*
X38100Y685800D03*
D21*
X25400Y190500D03*
X101600Y190500D03*
D22*
X101600Y215900D03*
X25400Y215900D03*
X101600Y165100D03*
X25400Y165100D03*
X330200Y342900D03*
X254000Y342900D03*
X330200Y292100D03*
X254000Y292100D03*
X330200Y317500D03*
X254000Y317500D03*
D17*
X279400Y609600D03*
X279400Y533400D03*
D23*
X304800Y533400D03*
X304800Y609600D03*
D22*
X114300Y330200D03*
X38100Y330200D03*
D21*
X152400Y711200D03*
X203200Y711200D03*
D22*
X203200Y863600D03*
X152400Y863600D03*
D23*
X254000Y127000D03*
X254000Y177800D03*
D21*
X152400Y19050D03*
X203200Y19050D03*
X152400Y317500D03*
X203200Y317500D03*
D22*
X203200Y469900D03*
X152400Y469900D03*
D24*
X139700Y31750D02*
X152400Y19050D01*
X139700Y31750D02*
X139700Y50800D01*
X127000Y50800D01*
X88900Y88900D01*
X88900Y139700D01*
X63500Y317500D02*
X101600Y355600D01*
X63500Y165100D02*
X88900Y139700D01*
X63500Y165100D02*
X63500Y317500D01*
X101600Y355600D02*
X139700Y355600D01*
X101600Y584200D02*
X63500Y584200D01*
X101600Y584200D02*
X101600Y355600D01*
X63500Y584200D02*
X38100Y584200D01*
X101600Y584200D02*
X101600Y622300D01*
X114300Y635000D01*
X165100Y635000D01*
X279400Y635000D02*
X279400Y609600D01*
X152400Y342900D02*
X152400Y317500D01*
X152400Y342900D02*
X139700Y355600D01*
X165100Y635000D02*
X279400Y635000D01*
X292100Y647700D01*
D25*
X165100Y635000D03*
D24*
X203200Y825500D02*
X203200Y863600D01*
X203200Y825500D02*
X215900Y825500D01*
X203200Y825500D02*
X177800Y800100D01*
X177800Y685800D02*
X63500Y685800D01*
X38100Y685800D01*
X215900Y127000D02*
X254000Y127000D01*
X292100Y177800D01*
X330200Y431800D02*
X215900Y431800D01*
X292100Y342900D02*
X292100Y177800D01*
X292100Y342900D02*
X330200Y381000D01*
X330200Y431800D01*
X330200Y673100D02*
X304800Y698500D01*
X330200Y673100D02*
X330200Y609600D01*
X203200Y469900D02*
X215900Y457200D01*
X215900Y431800D01*
X330200Y431800D02*
X330200Y609600D01*
X304800Y609600D01*
X177800Y685800D02*
X177800Y800100D01*
X254000Y698500D02*
X241300Y685800D01*
X177800Y685800D01*
X254000Y698500D02*
X304800Y698500D01*
D26*
X101600Y165100D02*
X114300Y152400D01*
X114300Y101600D02*
X139700Y76200D01*
X114300Y101600D02*
X114300Y152400D01*
X203200Y533400D02*
X215900Y546100D01*
X241300Y546100D01*
X266700Y520700D01*
X292100Y520700D01*
X304800Y533400D01*
X203200Y526900D02*
X202800Y526900D01*
X203200Y526900D02*
X203200Y533400D01*
X254000Y558800D02*
X279400Y533400D01*
X152800Y526900D02*
X152400Y526900D01*
X152400Y546100D01*
X165100Y558800D01*
X254000Y558800D01*
X203200Y889000D02*
X202800Y895200D01*
X203200Y889000D02*
X241300Y850900D01*
X241300Y787400D01*
X228600Y774700D01*
X215900Y774700D01*
X177800Y158600D02*
X177800Y139700D01*
X165100Y127000D01*
X139700Y127000D01*
X25400Y165100D02*
X25400Y50800D01*
X50800Y26200D01*
M02*
