M48
;GenerationSoftware,Autodesk,EAGLE,9.6.2*%
;CreationDate,2021-08-10T06:16:51Z*%
FMAT,2
ICI,OFF
METRIC,TZ,000.000
T6C0.350
T5C0.700
T4C0.813
T3C0.914
T2C1.100
T1C2.100
%
G90
M71
T1
X13280Y96520
X22280Y96520
X13280Y22860
X22280Y22860
X13280Y59690
X22280Y59690
T2
X20280Y52690
X5080Y76280
X30480Y47950
X30480Y39450
X5080Y50950
X5080Y47950
X5080Y39450
X15280Y52690
X17780Y52690
X30480Y14120
X30480Y11120
X15280Y15860
X17780Y15860
X20280Y15860
X30480Y2620
X30480Y87780
X15280Y89520
X17780Y89520
X20280Y89520
X30480Y50950
X5080Y84780
X5080Y87780
X5080Y2620
X5080Y11120
X5080Y14120
X30480Y76280
X30480Y84780
T3
X3810Y62865
X6350Y57785
X3810Y57785
X6350Y60325
X3810Y60325
X6350Y62865
X3810Y67945
X6350Y67945
X3810Y65405
X6350Y65405
T4
X27305Y64770
X27940Y53340
X29845Y64770
X31750Y71755
X31750Y69215
X15240Y46990
X20320Y46990
X20320Y31750
X15240Y31750
X20320Y1905
X15240Y1905
X25400Y19050
X25400Y13970
X15240Y86360
X20320Y86360
X30480Y93980
X27940Y93980
X11430Y80010
X11430Y72390
X2540Y19050
X10160Y19050
X10160Y21590
X2540Y21590
X10160Y16510
X2540Y16510
X33020Y34290
X25400Y34290
X33020Y29210
X25400Y29210
X33020Y31750
X25400Y31750
X27940Y60960
X20320Y71120
X30480Y53340
X30480Y60960
X11430Y33020
X3810Y33020
X15240Y71120
T5
X13970Y38100
X21590Y10160
X21590Y12700
X13970Y12700
X13970Y10160
X13970Y35560
X13970Y7620
X13970Y5080
X21590Y35560
X21590Y38100
X21590Y40640
X21590Y7620
X21590Y5080
X13970Y74930
X13970Y77470
X13970Y80010
X13970Y82550
X21590Y82550
X21590Y80010
X21590Y77470
X21590Y74930
X21590Y43180
X13970Y43180
X13970Y40640
T6
X16510Y63500
M30