G04 EAGLE Gerber RS-274X export*
G75*
%MOMM*%
%FSLAX34Y34*%
%LPD*%
%INTop Copper*%
%IPPOS*%
%AMOC8*
5,1,8,0,0,1.08239X$1,22.5*%
G01*
%ADD10C,1.208000*%
%ADD11C,1.650000*%
%ADD12R,1.676400X1.676400*%
%ADD13P,1.814519X8X292.500000*%
%ADD14R,3.116000X3.116000*%
%ADD15P,1.732040X8X22.500000*%
%ADD16C,1.600200*%
%ADD17P,1.429621X8X292.500000*%
%ADD18P,1.429621X8X22.500000*%
%ADD19P,1.429621X8X202.500000*%
%ADD20P,1.429621X8X112.500000*%
%ADD21P,1.539592X8X292.500000*%
%ADD22P,1.732040X8X292.500000*%
%ADD23C,0.609600*%
%ADD24C,0.756400*%
%ADD25C,0.406400*%

G36*
X148026Y10172D02*
X148026Y10172D01*
X148098Y10174D01*
X148147Y10192D01*
X148198Y10200D01*
X148262Y10234D01*
X148329Y10259D01*
X148370Y10291D01*
X148416Y10316D01*
X148465Y10368D01*
X148521Y10412D01*
X148549Y10456D01*
X148585Y10494D01*
X148615Y10559D01*
X148654Y10619D01*
X148667Y10670D01*
X148689Y10717D01*
X148697Y10788D01*
X148714Y10858D01*
X148710Y10910D01*
X148716Y10961D01*
X148701Y11032D01*
X148695Y11103D01*
X148675Y11151D01*
X148664Y11202D01*
X148627Y11263D01*
X148599Y11329D01*
X148554Y11385D01*
X148537Y11413D01*
X148520Y11428D01*
X148494Y11460D01*
X144271Y15683D01*
X144271Y22417D01*
X149033Y27179D01*
X155767Y27179D01*
X160529Y22417D01*
X160529Y15683D01*
X156306Y11460D01*
X156264Y11402D01*
X156215Y11350D01*
X156193Y11303D01*
X156162Y11261D01*
X156141Y11192D01*
X156111Y11127D01*
X156105Y11075D01*
X156090Y11025D01*
X156092Y10954D01*
X156084Y10883D01*
X156095Y10832D01*
X156096Y10780D01*
X156121Y10712D01*
X156136Y10642D01*
X156163Y10597D01*
X156181Y10549D01*
X156226Y10493D01*
X156263Y10431D01*
X156302Y10397D01*
X156335Y10357D01*
X156395Y10318D01*
X156449Y10271D01*
X156498Y10252D01*
X156542Y10224D01*
X156611Y10206D01*
X156678Y10179D01*
X156749Y10171D01*
X156780Y10163D01*
X156803Y10165D01*
X156844Y10161D01*
X197319Y10161D01*
X197390Y10172D01*
X197461Y10174D01*
X197510Y10192D01*
X197562Y10200D01*
X197625Y10234D01*
X197692Y10259D01*
X197733Y10291D01*
X197779Y10316D01*
X197828Y10368D01*
X197884Y10412D01*
X197913Y10456D01*
X197948Y10494D01*
X197979Y10559D01*
X198017Y10619D01*
X198030Y10670D01*
X198052Y10717D01*
X198060Y10788D01*
X198077Y10858D01*
X198073Y10910D01*
X198079Y10961D01*
X198064Y11032D01*
X198058Y11103D01*
X198038Y11151D01*
X198027Y11202D01*
X197990Y11263D01*
X197962Y11329D01*
X197917Y11385D01*
X197901Y11413D01*
X197883Y11428D01*
X197857Y11460D01*
X194055Y15262D01*
X194055Y17527D01*
X202438Y17527D01*
X202458Y17530D01*
X202477Y17528D01*
X202579Y17550D01*
X202681Y17567D01*
X202698Y17576D01*
X202718Y17580D01*
X202807Y17633D01*
X202898Y17682D01*
X202912Y17696D01*
X202929Y17706D01*
X202996Y17785D01*
X203067Y17860D01*
X203076Y17878D01*
X203089Y17893D01*
X203127Y17989D01*
X203171Y18083D01*
X203173Y18103D01*
X203181Y18121D01*
X203199Y18288D01*
X203199Y19051D01*
X203201Y19051D01*
X203201Y18288D01*
X203204Y18268D01*
X203202Y18249D01*
X203224Y18147D01*
X203241Y18045D01*
X203250Y18028D01*
X203254Y18008D01*
X203307Y17919D01*
X203356Y17828D01*
X203370Y17814D01*
X203380Y17797D01*
X203459Y17730D01*
X203534Y17659D01*
X203552Y17650D01*
X203567Y17637D01*
X203663Y17598D01*
X203757Y17555D01*
X203777Y17553D01*
X203795Y17545D01*
X203962Y17527D01*
X212345Y17527D01*
X212345Y15262D01*
X208543Y11460D01*
X208501Y11402D01*
X208452Y11350D01*
X208430Y11303D01*
X208399Y11261D01*
X208378Y11192D01*
X208348Y11127D01*
X208342Y11075D01*
X208327Y11025D01*
X208329Y10954D01*
X208321Y10883D01*
X208332Y10832D01*
X208333Y10780D01*
X208358Y10712D01*
X208373Y10642D01*
X208400Y10597D01*
X208418Y10549D01*
X208463Y10493D01*
X208499Y10431D01*
X208539Y10397D01*
X208571Y10357D01*
X208632Y10318D01*
X208686Y10271D01*
X208735Y10252D01*
X208778Y10224D01*
X208848Y10206D01*
X208914Y10179D01*
X208986Y10171D01*
X209017Y10163D01*
X209040Y10165D01*
X209081Y10161D01*
X344678Y10161D01*
X344698Y10164D01*
X344717Y10162D01*
X344819Y10184D01*
X344921Y10200D01*
X344938Y10210D01*
X344958Y10214D01*
X345047Y10267D01*
X345138Y10316D01*
X345152Y10330D01*
X345169Y10340D01*
X345236Y10419D01*
X345308Y10494D01*
X345316Y10512D01*
X345329Y10527D01*
X345368Y10623D01*
X345411Y10717D01*
X345413Y10737D01*
X345421Y10755D01*
X345439Y10922D01*
X345439Y979678D01*
X345436Y979698D01*
X345438Y979717D01*
X345416Y979819D01*
X345400Y979921D01*
X345390Y979938D01*
X345386Y979958D01*
X345333Y980047D01*
X345284Y980138D01*
X345270Y980152D01*
X345260Y980169D01*
X345181Y980236D01*
X345106Y980308D01*
X345088Y980316D01*
X345073Y980329D01*
X344977Y980368D01*
X344883Y980411D01*
X344863Y980413D01*
X344845Y980421D01*
X344678Y980439D01*
X240666Y980439D01*
X240646Y980436D01*
X240627Y980438D01*
X240525Y980416D01*
X240423Y980400D01*
X240406Y980390D01*
X240386Y980386D01*
X240297Y980333D01*
X240206Y980284D01*
X240192Y980270D01*
X240175Y980260D01*
X240108Y980181D01*
X240036Y980106D01*
X240028Y980088D01*
X240015Y980073D01*
X239976Y979977D01*
X239933Y979883D01*
X239931Y979863D01*
X239923Y979845D01*
X239905Y979678D01*
X239905Y948988D01*
X239012Y948095D01*
X206588Y948095D01*
X205695Y948988D01*
X205695Y979678D01*
X205692Y979698D01*
X205694Y979717D01*
X205672Y979819D01*
X205656Y979921D01*
X205646Y979938D01*
X205642Y979958D01*
X205589Y980047D01*
X205540Y980138D01*
X205526Y980152D01*
X205516Y980169D01*
X205437Y980236D01*
X205362Y980308D01*
X205344Y980316D01*
X205329Y980329D01*
X205233Y980368D01*
X205139Y980411D01*
X205119Y980413D01*
X205101Y980421D01*
X204934Y980439D01*
X150666Y980439D01*
X150646Y980436D01*
X150627Y980438D01*
X150525Y980416D01*
X150423Y980400D01*
X150406Y980390D01*
X150386Y980386D01*
X150297Y980333D01*
X150206Y980284D01*
X150192Y980270D01*
X150175Y980260D01*
X150108Y980181D01*
X150036Y980106D01*
X150028Y980088D01*
X150015Y980073D01*
X149976Y979977D01*
X149933Y979883D01*
X149931Y979863D01*
X149923Y979845D01*
X149905Y979678D01*
X149905Y948988D01*
X149012Y948095D01*
X116588Y948095D01*
X115695Y948988D01*
X115695Y979678D01*
X115692Y979698D01*
X115694Y979717D01*
X115672Y979819D01*
X115656Y979921D01*
X115646Y979938D01*
X115642Y979958D01*
X115589Y980047D01*
X115540Y980138D01*
X115526Y980152D01*
X115516Y980169D01*
X115437Y980236D01*
X115362Y980308D01*
X115344Y980316D01*
X115329Y980329D01*
X115233Y980368D01*
X115139Y980411D01*
X115119Y980413D01*
X115101Y980421D01*
X114934Y980439D01*
X10922Y980439D01*
X10902Y980436D01*
X10883Y980438D01*
X10781Y980416D01*
X10679Y980400D01*
X10662Y980390D01*
X10642Y980386D01*
X10553Y980333D01*
X10462Y980284D01*
X10448Y980270D01*
X10431Y980260D01*
X10364Y980181D01*
X10292Y980106D01*
X10284Y980088D01*
X10271Y980073D01*
X10232Y979977D01*
X10189Y979883D01*
X10187Y979863D01*
X10179Y979845D01*
X10161Y979678D01*
X10161Y10922D01*
X10164Y10902D01*
X10162Y10883D01*
X10184Y10781D01*
X10200Y10679D01*
X10210Y10662D01*
X10214Y10642D01*
X10267Y10553D01*
X10316Y10462D01*
X10330Y10448D01*
X10340Y10431D01*
X10419Y10364D01*
X10494Y10292D01*
X10512Y10284D01*
X10527Y10271D01*
X10623Y10232D01*
X10717Y10189D01*
X10737Y10187D01*
X10755Y10179D01*
X10922Y10161D01*
X147956Y10161D01*
X148026Y10172D01*
G37*
%LPC*%
G36*
X276800Y48199D02*
X276800Y48199D01*
X276799Y48200D01*
X276799Y104200D01*
X276800Y104201D01*
X296138Y104201D01*
X296209Y104212D01*
X296280Y104214D01*
X296329Y104232D01*
X296381Y104240D01*
X296444Y104274D01*
X296511Y104299D01*
X296552Y104331D01*
X296598Y104356D01*
X296647Y104407D01*
X296703Y104452D01*
X296732Y104496D01*
X296767Y104534D01*
X296798Y104599D01*
X296836Y104659D01*
X296849Y104710D01*
X296871Y104757D01*
X296879Y104828D01*
X296896Y104898D01*
X296892Y104950D01*
X296898Y105001D01*
X296883Y105072D01*
X296877Y105143D01*
X296857Y105191D01*
X296846Y105242D01*
X296809Y105303D01*
X296781Y105369D01*
X296736Y105425D01*
X296720Y105453D01*
X296702Y105468D01*
X296676Y105500D01*
X296513Y105663D01*
X295025Y109256D01*
X295025Y113144D01*
X296559Y116847D01*
X296585Y116960D01*
X296614Y117074D01*
X296614Y117080D01*
X296615Y117086D01*
X296604Y117203D01*
X296595Y117319D01*
X296592Y117325D01*
X296592Y117331D01*
X296544Y117439D01*
X296499Y117545D01*
X296494Y117551D01*
X296492Y117556D01*
X296479Y117569D01*
X296394Y117676D01*
X278150Y135920D01*
X275843Y138227D01*
X275843Y233161D01*
X275829Y233252D01*
X275821Y233342D01*
X275809Y233372D01*
X275804Y233404D01*
X275761Y233485D01*
X275725Y233569D01*
X275699Y233601D01*
X275688Y233622D01*
X275665Y233644D01*
X275620Y233700D01*
X233700Y275620D01*
X233626Y275673D01*
X233556Y275733D01*
X233526Y275745D01*
X233500Y275764D01*
X233413Y275791D01*
X233328Y275825D01*
X233287Y275829D01*
X233265Y275836D01*
X233233Y275835D01*
X233161Y275843D01*
X49327Y275843D01*
X34543Y290627D01*
X34543Y321946D01*
X34529Y322036D01*
X34521Y322127D01*
X34509Y322156D01*
X34504Y322188D01*
X34461Y322269D01*
X34425Y322353D01*
X34399Y322385D01*
X34388Y322406D01*
X34365Y322428D01*
X34320Y322484D01*
X29971Y326833D01*
X29971Y333567D01*
X34733Y338329D01*
X40883Y338329D01*
X40974Y338343D01*
X41064Y338351D01*
X41094Y338363D01*
X41126Y338368D01*
X41207Y338411D01*
X41291Y338447D01*
X41323Y338473D01*
X41344Y338484D01*
X41366Y338507D01*
X41422Y338552D01*
X47020Y344150D01*
X47073Y344224D01*
X47133Y344294D01*
X47145Y344324D01*
X47164Y344350D01*
X47191Y344437D01*
X47225Y344522D01*
X47229Y344563D01*
X47236Y344585D01*
X47235Y344617D01*
X47243Y344689D01*
X47243Y384884D01*
X47224Y384999D01*
X47207Y385115D01*
X47205Y385121D01*
X47204Y385127D01*
X47149Y385230D01*
X47096Y385335D01*
X47091Y385339D01*
X47088Y385345D01*
X47004Y385424D01*
X46920Y385507D01*
X46914Y385511D01*
X46910Y385514D01*
X46893Y385522D01*
X46773Y385588D01*
X45263Y386213D01*
X42513Y388963D01*
X41025Y392556D01*
X41025Y396444D01*
X42513Y400037D01*
X45263Y402787D01*
X48856Y404275D01*
X52744Y404275D01*
X56337Y402787D01*
X59087Y400037D01*
X60575Y396444D01*
X60575Y392556D01*
X59087Y388963D01*
X56337Y386213D01*
X54827Y385588D01*
X54727Y385526D01*
X54627Y385466D01*
X54623Y385461D01*
X54618Y385458D01*
X54543Y385369D01*
X54467Y385279D01*
X54465Y385273D01*
X54461Y385269D01*
X54419Y385161D01*
X54375Y385051D01*
X54374Y385044D01*
X54373Y385039D01*
X54372Y385021D01*
X54357Y384884D01*
X54357Y341427D01*
X46452Y333522D01*
X46399Y333448D01*
X46339Y333378D01*
X46327Y333348D01*
X46308Y333322D01*
X46281Y333235D01*
X46247Y333150D01*
X46243Y333109D01*
X46236Y333087D01*
X46237Y333055D01*
X46229Y332983D01*
X46229Y326833D01*
X41880Y322484D01*
X41827Y322410D01*
X41767Y322341D01*
X41755Y322310D01*
X41736Y322284D01*
X41709Y322197D01*
X41675Y322112D01*
X41671Y322071D01*
X41664Y322049D01*
X41665Y322017D01*
X41657Y321946D01*
X41657Y293889D01*
X41671Y293798D01*
X41679Y293708D01*
X41691Y293678D01*
X41696Y293646D01*
X41739Y293565D01*
X41775Y293481D01*
X41801Y293449D01*
X41812Y293428D01*
X41835Y293406D01*
X41880Y293350D01*
X52050Y283180D01*
X52124Y283127D01*
X52194Y283067D01*
X52224Y283055D01*
X52250Y283036D01*
X52337Y283009D01*
X52422Y282975D01*
X52463Y282971D01*
X52485Y282964D01*
X52517Y282965D01*
X52589Y282957D01*
X236423Y282957D01*
X282957Y236423D01*
X282957Y141489D01*
X282971Y141398D01*
X282979Y141308D01*
X282991Y141278D01*
X282996Y141246D01*
X283039Y141165D01*
X283075Y141081D01*
X283101Y141049D01*
X283112Y141028D01*
X283135Y141006D01*
X283180Y140950D01*
X302932Y121198D01*
X303006Y121145D01*
X303076Y121085D01*
X303106Y121073D01*
X303132Y121054D01*
X303219Y121027D01*
X303304Y120993D01*
X303345Y120989D01*
X303367Y120982D01*
X303399Y120983D01*
X303471Y120975D01*
X306744Y120975D01*
X310337Y119487D01*
X313087Y116737D01*
X314575Y113144D01*
X314575Y109256D01*
X313087Y105663D01*
X312924Y105500D01*
X312882Y105442D01*
X312833Y105390D01*
X312811Y105343D01*
X312780Y105301D01*
X312759Y105232D01*
X312729Y105167D01*
X312723Y105115D01*
X312708Y105065D01*
X312710Y104994D01*
X312702Y104923D01*
X312713Y104872D01*
X312714Y104820D01*
X312739Y104752D01*
X312754Y104682D01*
X312781Y104637D01*
X312799Y104589D01*
X312844Y104533D01*
X312880Y104471D01*
X312920Y104437D01*
X312952Y104397D01*
X313013Y104358D01*
X313067Y104311D01*
X313116Y104292D01*
X313159Y104264D01*
X313229Y104246D01*
X313295Y104219D01*
X313367Y104211D01*
X313398Y104203D01*
X313421Y104205D01*
X313462Y104201D01*
X332800Y104201D01*
X332801Y104200D01*
X332801Y48200D01*
X332800Y48199D01*
X276800Y48199D01*
G37*
%LPD*%
%LPC*%
G36*
X276800Y416499D02*
X276800Y416499D01*
X276799Y416500D01*
X276799Y472500D01*
X276800Y472501D01*
X296138Y472501D01*
X296209Y472512D01*
X296280Y472514D01*
X296329Y472532D01*
X296381Y472540D01*
X296444Y472574D01*
X296511Y472599D01*
X296552Y472631D01*
X296598Y472656D01*
X296647Y472707D01*
X296703Y472752D01*
X296732Y472796D01*
X296767Y472834D01*
X296798Y472899D01*
X296836Y472959D01*
X296849Y473010D01*
X296871Y473057D01*
X296879Y473128D01*
X296896Y473198D01*
X296892Y473250D01*
X296898Y473301D01*
X296883Y473372D01*
X296877Y473443D01*
X296857Y473491D01*
X296846Y473542D01*
X296809Y473603D01*
X296781Y473669D01*
X296736Y473725D01*
X296720Y473753D01*
X296702Y473768D01*
X296676Y473800D01*
X296513Y473963D01*
X295025Y477556D01*
X295025Y478282D01*
X295022Y478302D01*
X295024Y478321D01*
X295002Y478423D01*
X294986Y478525D01*
X294976Y478542D01*
X294972Y478562D01*
X294919Y478651D01*
X294870Y478742D01*
X294856Y478756D01*
X294846Y478773D01*
X294767Y478840D01*
X294692Y478912D01*
X294674Y478920D01*
X294659Y478933D01*
X294563Y478972D01*
X294469Y479015D01*
X294449Y479017D01*
X294431Y479025D01*
X294264Y479043D01*
X277927Y479043D01*
X174243Y582727D01*
X174243Y595111D01*
X174229Y595202D01*
X174221Y595292D01*
X174209Y595322D01*
X174204Y595354D01*
X174161Y595435D01*
X174125Y595519D01*
X174099Y595551D01*
X174088Y595572D01*
X174065Y595594D01*
X174020Y595650D01*
X110743Y658927D01*
X110743Y715646D01*
X110729Y715736D01*
X110721Y715827D01*
X110709Y715856D01*
X110704Y715888D01*
X110661Y715969D01*
X110625Y716053D01*
X110599Y716085D01*
X110588Y716106D01*
X110565Y716128D01*
X110520Y716184D01*
X106584Y720120D01*
X106510Y720173D01*
X106441Y720233D01*
X106410Y720245D01*
X106384Y720264D01*
X106297Y720291D01*
X106212Y720325D01*
X106171Y720329D01*
X106149Y720336D01*
X106117Y720335D01*
X106046Y720343D01*
X74727Y720343D01*
X47243Y747827D01*
X47243Y753184D01*
X47224Y753299D01*
X47207Y753415D01*
X47205Y753421D01*
X47204Y753427D01*
X47149Y753530D01*
X47096Y753635D01*
X47091Y753639D01*
X47088Y753645D01*
X47004Y753724D01*
X46920Y753807D01*
X46914Y753811D01*
X46910Y753814D01*
X46893Y753822D01*
X46773Y753888D01*
X45263Y754513D01*
X42513Y757263D01*
X41025Y760856D01*
X41025Y764744D01*
X42513Y768337D01*
X45263Y771087D01*
X48856Y772575D01*
X52744Y772575D01*
X56337Y771087D01*
X59087Y768337D01*
X60575Y764744D01*
X60575Y760856D01*
X59087Y757263D01*
X56337Y754513D01*
X54827Y753888D01*
X54727Y753826D01*
X54627Y753766D01*
X54623Y753761D01*
X54618Y753758D01*
X54543Y753669D01*
X54467Y753579D01*
X54465Y753573D01*
X54461Y753569D01*
X54419Y753461D01*
X54375Y753351D01*
X54374Y753344D01*
X54373Y753339D01*
X54372Y753321D01*
X54357Y753184D01*
X54357Y751089D01*
X54371Y750998D01*
X54379Y750908D01*
X54391Y750878D01*
X54396Y750846D01*
X54439Y750765D01*
X54475Y750681D01*
X54501Y750649D01*
X54512Y750628D01*
X54535Y750606D01*
X54580Y750550D01*
X77450Y727680D01*
X77524Y727627D01*
X77594Y727567D01*
X77624Y727555D01*
X77650Y727536D01*
X77737Y727509D01*
X77822Y727475D01*
X77863Y727471D01*
X77885Y727464D01*
X77917Y727465D01*
X77989Y727457D01*
X106046Y727457D01*
X106136Y727471D01*
X106227Y727479D01*
X106256Y727491D01*
X106288Y727496D01*
X106369Y727539D01*
X106453Y727575D01*
X106485Y727601D01*
X106506Y727612D01*
X106528Y727635D01*
X106584Y727680D01*
X110933Y732029D01*
X117667Y732029D01*
X122429Y727267D01*
X122429Y720533D01*
X118080Y716184D01*
X118027Y716110D01*
X117967Y716041D01*
X117955Y716010D01*
X117936Y715984D01*
X117909Y715897D01*
X117875Y715812D01*
X117871Y715771D01*
X117864Y715749D01*
X117865Y715717D01*
X117857Y715646D01*
X117857Y662189D01*
X117871Y662098D01*
X117879Y662008D01*
X117891Y661978D01*
X117896Y661946D01*
X117939Y661865D01*
X117975Y661781D01*
X118001Y661749D01*
X118012Y661728D01*
X118035Y661706D01*
X118080Y661650D01*
X181357Y598373D01*
X181357Y585989D01*
X181371Y585898D01*
X181379Y585808D01*
X181391Y585778D01*
X181396Y585746D01*
X181439Y585665D01*
X181475Y585581D01*
X181501Y585549D01*
X181512Y585528D01*
X181535Y585506D01*
X181580Y585450D01*
X280650Y486380D01*
X280724Y486327D01*
X280794Y486267D01*
X280824Y486255D01*
X280850Y486236D01*
X280937Y486209D01*
X281022Y486175D01*
X281063Y486171D01*
X281085Y486164D01*
X281117Y486165D01*
X281189Y486157D01*
X297318Y486157D01*
X297408Y486171D01*
X297499Y486179D01*
X297529Y486191D01*
X297561Y486196D01*
X297641Y486239D01*
X297725Y486275D01*
X297757Y486301D01*
X297778Y486312D01*
X297800Y486335D01*
X297856Y486380D01*
X299263Y487787D01*
X302856Y489275D01*
X306744Y489275D01*
X310337Y487787D01*
X313087Y485037D01*
X314575Y481444D01*
X314575Y477556D01*
X313087Y473963D01*
X312924Y473800D01*
X312882Y473742D01*
X312833Y473690D01*
X312811Y473643D01*
X312780Y473601D01*
X312759Y473532D01*
X312729Y473467D01*
X312723Y473415D01*
X312708Y473365D01*
X312710Y473294D01*
X312702Y473223D01*
X312713Y473172D01*
X312714Y473120D01*
X312739Y473052D01*
X312754Y472982D01*
X312781Y472937D01*
X312799Y472889D01*
X312844Y472833D01*
X312880Y472771D01*
X312920Y472737D01*
X312952Y472697D01*
X313013Y472658D01*
X313067Y472611D01*
X313116Y472592D01*
X313159Y472564D01*
X313229Y472546D01*
X313295Y472519D01*
X313367Y472511D01*
X313398Y472503D01*
X313421Y472505D01*
X313462Y472501D01*
X332800Y472501D01*
X332801Y472500D01*
X332801Y416500D01*
X332800Y416499D01*
X276800Y416499D01*
G37*
%LPD*%
%LPC*%
G36*
X22800Y784799D02*
X22800Y784799D01*
X22799Y784800D01*
X22799Y840800D01*
X22800Y840801D01*
X42138Y840801D01*
X42209Y840812D01*
X42280Y840814D01*
X42329Y840832D01*
X42381Y840840D01*
X42444Y840874D01*
X42511Y840899D01*
X42552Y840931D01*
X42598Y840956D01*
X42647Y841007D01*
X42703Y841052D01*
X42732Y841096D01*
X42767Y841134D01*
X42798Y841199D01*
X42836Y841259D01*
X42849Y841310D01*
X42871Y841357D01*
X42879Y841428D01*
X42896Y841498D01*
X42892Y841550D01*
X42898Y841601D01*
X42883Y841672D01*
X42877Y841743D01*
X42857Y841791D01*
X42846Y841842D01*
X42809Y841903D01*
X42781Y841969D01*
X42736Y842025D01*
X42720Y842053D01*
X42702Y842068D01*
X42676Y842100D01*
X42513Y842263D01*
X41025Y845856D01*
X41025Y849744D01*
X42513Y853337D01*
X45263Y856087D01*
X48856Y857575D01*
X52744Y857575D01*
X56337Y856087D01*
X59087Y853337D01*
X60575Y849744D01*
X60575Y845856D01*
X59087Y842263D01*
X58924Y842100D01*
X58882Y842042D01*
X58833Y841990D01*
X58811Y841943D01*
X58780Y841901D01*
X58759Y841832D01*
X58729Y841767D01*
X58723Y841715D01*
X58708Y841665D01*
X58710Y841594D01*
X58702Y841523D01*
X58713Y841472D01*
X58714Y841420D01*
X58739Y841352D01*
X58754Y841282D01*
X58781Y841237D01*
X58799Y841189D01*
X58844Y841133D01*
X58880Y841071D01*
X58920Y841037D01*
X58952Y840997D01*
X59013Y840958D01*
X59067Y840911D01*
X59116Y840892D01*
X59159Y840864D01*
X59229Y840846D01*
X59295Y840819D01*
X59367Y840811D01*
X59398Y840803D01*
X59421Y840805D01*
X59462Y840801D01*
X78800Y840801D01*
X78801Y840800D01*
X78801Y784800D01*
X78800Y784799D01*
X22800Y784799D01*
G37*
%LPD*%
%LPC*%
G36*
X22800Y48199D02*
X22800Y48199D01*
X22799Y48200D01*
X22799Y104200D01*
X22800Y104201D01*
X42138Y104201D01*
X42209Y104212D01*
X42280Y104214D01*
X42329Y104232D01*
X42381Y104240D01*
X42444Y104274D01*
X42511Y104299D01*
X42552Y104331D01*
X42598Y104356D01*
X42647Y104407D01*
X42703Y104452D01*
X42732Y104496D01*
X42767Y104534D01*
X42798Y104599D01*
X42836Y104659D01*
X42849Y104710D01*
X42871Y104757D01*
X42879Y104828D01*
X42896Y104898D01*
X42892Y104950D01*
X42898Y105001D01*
X42883Y105072D01*
X42877Y105143D01*
X42857Y105191D01*
X42846Y105242D01*
X42809Y105303D01*
X42781Y105369D01*
X42736Y105425D01*
X42720Y105453D01*
X42702Y105468D01*
X42676Y105500D01*
X42513Y105663D01*
X41025Y109256D01*
X41025Y113144D01*
X42513Y116737D01*
X45263Y119487D01*
X48856Y120975D01*
X52744Y120975D01*
X56337Y119487D01*
X59087Y116737D01*
X60575Y113144D01*
X60575Y109256D01*
X59087Y105663D01*
X58924Y105500D01*
X58882Y105442D01*
X58833Y105390D01*
X58811Y105343D01*
X58780Y105301D01*
X58759Y105232D01*
X58729Y105167D01*
X58723Y105115D01*
X58708Y105065D01*
X58710Y104994D01*
X58702Y104923D01*
X58713Y104872D01*
X58714Y104820D01*
X58739Y104752D01*
X58754Y104682D01*
X58781Y104637D01*
X58799Y104589D01*
X58844Y104533D01*
X58880Y104471D01*
X58920Y104437D01*
X58952Y104397D01*
X59013Y104358D01*
X59067Y104311D01*
X59116Y104292D01*
X59159Y104264D01*
X59229Y104246D01*
X59295Y104219D01*
X59367Y104211D01*
X59398Y104203D01*
X59421Y104205D01*
X59462Y104201D01*
X78800Y104201D01*
X78801Y104200D01*
X78801Y48200D01*
X78800Y48199D01*
X22800Y48199D01*
G37*
%LPD*%
%LPC*%
G36*
X276800Y784799D02*
X276800Y784799D01*
X276799Y784800D01*
X276799Y840800D01*
X276800Y840801D01*
X296138Y840801D01*
X296209Y840812D01*
X296280Y840814D01*
X296329Y840832D01*
X296381Y840840D01*
X296444Y840874D01*
X296511Y840899D01*
X296552Y840931D01*
X296598Y840956D01*
X296647Y841007D01*
X296703Y841052D01*
X296732Y841096D01*
X296767Y841134D01*
X296798Y841199D01*
X296836Y841259D01*
X296849Y841310D01*
X296871Y841357D01*
X296879Y841428D01*
X296896Y841498D01*
X296892Y841550D01*
X296898Y841601D01*
X296883Y841672D01*
X296877Y841743D01*
X296857Y841791D01*
X296846Y841842D01*
X296809Y841903D01*
X296781Y841969D01*
X296736Y842025D01*
X296720Y842053D01*
X296702Y842068D01*
X296676Y842100D01*
X296513Y842263D01*
X295025Y845856D01*
X295025Y849744D01*
X296513Y853337D01*
X299263Y856087D01*
X302856Y857575D01*
X306744Y857575D01*
X310337Y856087D01*
X313087Y853337D01*
X314575Y849744D01*
X314575Y845856D01*
X313087Y842263D01*
X312924Y842100D01*
X312882Y842042D01*
X312833Y841990D01*
X312811Y841943D01*
X312780Y841901D01*
X312759Y841832D01*
X312729Y841767D01*
X312723Y841715D01*
X312708Y841665D01*
X312710Y841594D01*
X312702Y841523D01*
X312713Y841472D01*
X312714Y841420D01*
X312739Y841352D01*
X312754Y841282D01*
X312781Y841237D01*
X312799Y841189D01*
X312844Y841133D01*
X312880Y841071D01*
X312920Y841037D01*
X312952Y840997D01*
X313013Y840958D01*
X313067Y840911D01*
X313116Y840892D01*
X313159Y840864D01*
X313229Y840846D01*
X313295Y840819D01*
X313367Y840811D01*
X313398Y840803D01*
X313421Y840805D01*
X313462Y840801D01*
X332800Y840801D01*
X332801Y840800D01*
X332801Y784800D01*
X332800Y784799D01*
X276800Y784799D01*
G37*
%LPD*%
%LPC*%
G36*
X22800Y416499D02*
X22800Y416499D01*
X22799Y416500D01*
X22799Y472500D01*
X22800Y472501D01*
X42138Y472501D01*
X42209Y472512D01*
X42280Y472514D01*
X42329Y472532D01*
X42381Y472540D01*
X42444Y472574D01*
X42511Y472599D01*
X42552Y472631D01*
X42598Y472656D01*
X42647Y472707D01*
X42703Y472752D01*
X42732Y472796D01*
X42767Y472834D01*
X42798Y472899D01*
X42836Y472959D01*
X42849Y473010D01*
X42871Y473057D01*
X42879Y473128D01*
X42896Y473198D01*
X42892Y473250D01*
X42898Y473301D01*
X42883Y473372D01*
X42877Y473443D01*
X42857Y473491D01*
X42846Y473542D01*
X42809Y473603D01*
X42781Y473669D01*
X42736Y473725D01*
X42720Y473753D01*
X42702Y473768D01*
X42676Y473800D01*
X42513Y473963D01*
X41025Y477556D01*
X41025Y481444D01*
X42513Y485037D01*
X45263Y487787D01*
X48856Y489275D01*
X52744Y489275D01*
X56337Y487787D01*
X59087Y485037D01*
X60575Y481444D01*
X60575Y477556D01*
X59087Y473963D01*
X58924Y473800D01*
X58882Y473742D01*
X58833Y473690D01*
X58811Y473643D01*
X58780Y473601D01*
X58759Y473532D01*
X58729Y473467D01*
X58723Y473415D01*
X58708Y473365D01*
X58710Y473294D01*
X58702Y473223D01*
X58713Y473172D01*
X58714Y473120D01*
X58739Y473052D01*
X58754Y472982D01*
X58781Y472937D01*
X58799Y472889D01*
X58844Y472833D01*
X58880Y472771D01*
X58920Y472737D01*
X58952Y472697D01*
X59013Y472658D01*
X59067Y472611D01*
X59116Y472592D01*
X59159Y472564D01*
X59229Y472546D01*
X59295Y472519D01*
X59367Y472511D01*
X59398Y472503D01*
X59421Y472505D01*
X59462Y472501D01*
X78800Y472501D01*
X78801Y472500D01*
X78801Y416500D01*
X78800Y416499D01*
X22800Y416499D01*
G37*
%LPD*%
%LPC*%
G36*
X132155Y817935D02*
X132155Y817935D01*
X129375Y819087D01*
X127247Y821215D01*
X126095Y823995D01*
X126095Y827005D01*
X127247Y829785D01*
X129375Y831913D01*
X132155Y833065D01*
X147245Y833065D01*
X150025Y831913D01*
X152153Y829785D01*
X152260Y829527D01*
X152321Y829428D01*
X152382Y829327D01*
X152386Y829323D01*
X152390Y829318D01*
X152479Y829244D01*
X152569Y829167D01*
X152574Y829165D01*
X152579Y829161D01*
X152687Y829119D01*
X152797Y829075D01*
X152804Y829074D01*
X152809Y829073D01*
X152827Y829072D01*
X152963Y829057D01*
X163311Y829057D01*
X163402Y829071D01*
X163492Y829079D01*
X163522Y829091D01*
X163554Y829096D01*
X163635Y829139D01*
X163719Y829175D01*
X163751Y829201D01*
X163772Y829212D01*
X163794Y829235D01*
X163850Y829280D01*
X174020Y839450D01*
X174073Y839524D01*
X174133Y839594D01*
X174145Y839624D01*
X174164Y839650D01*
X174191Y839737D01*
X174225Y839822D01*
X174229Y839863D01*
X174236Y839885D01*
X174235Y839917D01*
X174243Y839989D01*
X174243Y884532D01*
X174240Y884552D01*
X174242Y884571D01*
X174220Y884673D01*
X174204Y884775D01*
X174194Y884792D01*
X174190Y884812D01*
X174137Y884901D01*
X174088Y884992D01*
X174074Y885006D01*
X174064Y885023D01*
X173985Y885090D01*
X173910Y885162D01*
X173892Y885170D01*
X173877Y885183D01*
X173781Y885222D01*
X173757Y885233D01*
X167843Y891146D01*
X167840Y891162D01*
X167787Y891251D01*
X167738Y891342D01*
X167724Y891356D01*
X167714Y891373D01*
X167635Y891440D01*
X167560Y891512D01*
X167542Y891520D01*
X167527Y891533D01*
X167431Y891572D01*
X167337Y891615D01*
X167317Y891617D01*
X167299Y891625D01*
X167132Y891643D01*
X163468Y891643D01*
X163448Y891640D01*
X163429Y891642D01*
X163327Y891620D01*
X163225Y891604D01*
X163208Y891594D01*
X163188Y891590D01*
X163099Y891537D01*
X163008Y891488D01*
X162994Y891474D01*
X162977Y891464D01*
X162910Y891385D01*
X162838Y891310D01*
X162830Y891292D01*
X162817Y891277D01*
X162778Y891181D01*
X162767Y891157D01*
X156904Y885293D01*
X148696Y885293D01*
X142893Y891096D01*
X142893Y899304D01*
X148696Y905107D01*
X156904Y905107D01*
X162831Y899179D01*
X162862Y899122D01*
X162878Y899107D01*
X162889Y899088D01*
X162966Y899022D01*
X163040Y898953D01*
X163060Y898943D01*
X163077Y898929D01*
X163171Y898892D01*
X163263Y898849D01*
X163285Y898846D01*
X163306Y898838D01*
X163473Y898821D01*
X167137Y898843D01*
X167154Y898846D01*
X167171Y898844D01*
X167275Y898866D01*
X167379Y898884D01*
X167395Y898892D01*
X167412Y898896D01*
X167503Y898950D01*
X167596Y899000D01*
X167608Y899013D01*
X167623Y899022D01*
X167688Y899098D01*
X173746Y905157D01*
X173762Y905160D01*
X173851Y905213D01*
X173942Y905262D01*
X173956Y905276D01*
X173973Y905286D01*
X174040Y905365D01*
X174112Y905440D01*
X174120Y905458D01*
X174133Y905473D01*
X174172Y905569D01*
X174215Y905663D01*
X174217Y905683D01*
X174225Y905701D01*
X174243Y905868D01*
X174243Y915873D01*
X189027Y930657D01*
X264911Y930657D01*
X265002Y930671D01*
X265092Y930679D01*
X265122Y930691D01*
X265154Y930696D01*
X265235Y930739D01*
X265319Y930775D01*
X265351Y930801D01*
X265372Y930812D01*
X265394Y930835D01*
X265450Y930880D01*
X270276Y935706D01*
X270344Y935800D01*
X270414Y935895D01*
X270416Y935901D01*
X270420Y935906D01*
X270454Y936017D01*
X270491Y936129D01*
X270490Y936135D01*
X270492Y936141D01*
X270489Y936258D01*
X270488Y936375D01*
X270486Y936382D01*
X270486Y936387D01*
X270480Y936405D01*
X270441Y936536D01*
X269874Y937905D01*
X269874Y941695D01*
X271324Y945196D01*
X274004Y947876D01*
X277505Y949326D01*
X281295Y949326D01*
X284796Y947876D01*
X287476Y945196D01*
X288926Y941695D01*
X288926Y937905D01*
X287476Y934404D01*
X284796Y931724D01*
X281295Y930274D01*
X277505Y930274D01*
X276136Y930841D01*
X276022Y930868D01*
X275909Y930897D01*
X275903Y930896D01*
X275896Y930898D01*
X275780Y930887D01*
X275664Y930878D01*
X275658Y930875D01*
X275652Y930874D01*
X275544Y930827D01*
X275437Y930781D01*
X275431Y930777D01*
X275427Y930774D01*
X275413Y930762D01*
X275306Y930676D01*
X270480Y925850D01*
X268173Y923543D01*
X192289Y923543D01*
X192198Y923529D01*
X192108Y923521D01*
X192078Y923509D01*
X192046Y923504D01*
X191965Y923461D01*
X191881Y923425D01*
X191849Y923399D01*
X191828Y923388D01*
X191806Y923365D01*
X191750Y923320D01*
X181580Y913150D01*
X181527Y913076D01*
X181467Y913006D01*
X181455Y912976D01*
X181436Y912950D01*
X181409Y912863D01*
X181375Y912778D01*
X181371Y912737D01*
X181364Y912715D01*
X181365Y912683D01*
X181357Y912611D01*
X181357Y905868D01*
X181360Y905848D01*
X181358Y905829D01*
X181380Y905727D01*
X181396Y905625D01*
X181406Y905608D01*
X181410Y905588D01*
X181463Y905499D01*
X181512Y905408D01*
X181526Y905394D01*
X181536Y905377D01*
X181615Y905310D01*
X181690Y905238D01*
X181708Y905230D01*
X181723Y905217D01*
X181819Y905178D01*
X181843Y905167D01*
X187707Y899304D01*
X187707Y891096D01*
X181854Y885243D01*
X181838Y885240D01*
X181749Y885187D01*
X181658Y885138D01*
X181644Y885124D01*
X181627Y885114D01*
X181560Y885035D01*
X181488Y884960D01*
X181480Y884942D01*
X181467Y884927D01*
X181428Y884831D01*
X181385Y884737D01*
X181383Y884717D01*
X181375Y884699D01*
X181357Y884532D01*
X181357Y836727D01*
X166573Y821943D01*
X152963Y821943D01*
X152849Y821925D01*
X152732Y821907D01*
X152727Y821905D01*
X152721Y821904D01*
X152618Y821849D01*
X152513Y821796D01*
X152509Y821791D01*
X152503Y821788D01*
X152423Y821704D01*
X152341Y821620D01*
X152337Y821614D01*
X152334Y821610D01*
X152326Y821593D01*
X152260Y821473D01*
X152153Y821215D01*
X150025Y819087D01*
X147245Y817935D01*
X132155Y817935D01*
G37*
%LPD*%
%LPC*%
G36*
X326833Y283971D02*
X326833Y283971D01*
X322484Y288320D01*
X322410Y288373D01*
X322341Y288433D01*
X322310Y288445D01*
X322284Y288464D01*
X322197Y288491D01*
X322112Y288525D01*
X322071Y288529D01*
X322049Y288536D01*
X322017Y288535D01*
X321946Y288543D01*
X290627Y288543D01*
X265450Y313720D01*
X265376Y313773D01*
X265306Y313833D01*
X265276Y313845D01*
X265250Y313864D01*
X265163Y313891D01*
X265078Y313925D01*
X265037Y313929D01*
X265015Y313936D01*
X264983Y313935D01*
X264911Y313943D01*
X262254Y313943D01*
X262164Y313929D01*
X262073Y313921D01*
X262044Y313909D01*
X262012Y313904D01*
X261931Y313861D01*
X261847Y313825D01*
X261815Y313799D01*
X261794Y313788D01*
X261772Y313765D01*
X261716Y313720D01*
X257367Y309371D01*
X250633Y309371D01*
X245871Y314133D01*
X245871Y320283D01*
X245857Y320374D01*
X245849Y320464D01*
X245837Y320494D01*
X245832Y320526D01*
X245789Y320607D01*
X245753Y320691D01*
X245727Y320723D01*
X245716Y320744D01*
X245693Y320766D01*
X245648Y320822D01*
X233700Y332770D01*
X233626Y332823D01*
X233556Y332883D01*
X233526Y332895D01*
X233500Y332914D01*
X233413Y332941D01*
X233328Y332975D01*
X233287Y332979D01*
X233265Y332986D01*
X233233Y332985D01*
X233161Y332993D01*
X201727Y332993D01*
X174243Y360477D01*
X174243Y391911D01*
X174229Y392002D01*
X174221Y392092D01*
X174209Y392122D01*
X174204Y392154D01*
X174161Y392235D01*
X174125Y392319D01*
X174099Y392351D01*
X174088Y392372D01*
X174065Y392394D01*
X174020Y392450D01*
X163850Y402620D01*
X163776Y402673D01*
X163706Y402733D01*
X163676Y402745D01*
X163650Y402764D01*
X163563Y402791D01*
X163478Y402825D01*
X163437Y402829D01*
X163415Y402836D01*
X163383Y402835D01*
X163311Y402843D01*
X152963Y402843D01*
X152849Y402825D01*
X152732Y402807D01*
X152727Y402805D01*
X152721Y402804D01*
X152618Y402749D01*
X152513Y402696D01*
X152509Y402691D01*
X152503Y402688D01*
X152423Y402604D01*
X152341Y402520D01*
X152337Y402514D01*
X152334Y402510D01*
X152326Y402493D01*
X152260Y402373D01*
X152153Y402115D01*
X150025Y399987D01*
X147245Y398835D01*
X132155Y398835D01*
X129375Y399987D01*
X127247Y402115D01*
X126095Y404895D01*
X126095Y407905D01*
X127247Y410685D01*
X129375Y412813D01*
X132155Y413965D01*
X147245Y413965D01*
X150025Y412813D01*
X152153Y410685D01*
X152260Y410427D01*
X152321Y410328D01*
X152382Y410227D01*
X152386Y410223D01*
X152390Y410218D01*
X152479Y410144D01*
X152569Y410067D01*
X152574Y410065D01*
X152579Y410061D01*
X152687Y410019D01*
X152797Y409975D01*
X152804Y409974D01*
X152809Y409973D01*
X152827Y409972D01*
X152963Y409957D01*
X166573Y409957D01*
X181357Y395173D01*
X181357Y363739D01*
X181371Y363648D01*
X181379Y363558D01*
X181391Y363528D01*
X181396Y363496D01*
X181439Y363415D01*
X181475Y363331D01*
X181501Y363299D01*
X181512Y363278D01*
X181535Y363256D01*
X181580Y363200D01*
X204450Y340330D01*
X204524Y340277D01*
X204594Y340217D01*
X204624Y340205D01*
X204650Y340186D01*
X204737Y340159D01*
X204822Y340125D01*
X204863Y340121D01*
X204885Y340114D01*
X204917Y340115D01*
X204989Y340107D01*
X236423Y340107D01*
X250678Y325852D01*
X250752Y325799D01*
X250822Y325739D01*
X250852Y325727D01*
X250878Y325708D01*
X250965Y325681D01*
X251050Y325647D01*
X251091Y325643D01*
X251113Y325636D01*
X251145Y325637D01*
X251217Y325629D01*
X257367Y325629D01*
X261716Y321280D01*
X261790Y321227D01*
X261859Y321167D01*
X261890Y321155D01*
X261916Y321136D01*
X262003Y321109D01*
X262088Y321075D01*
X262129Y321071D01*
X262151Y321064D01*
X262183Y321065D01*
X262254Y321057D01*
X268173Y321057D01*
X293350Y295880D01*
X293424Y295827D01*
X293494Y295767D01*
X293524Y295755D01*
X293550Y295736D01*
X293637Y295709D01*
X293722Y295675D01*
X293763Y295671D01*
X293785Y295664D01*
X293817Y295665D01*
X293889Y295657D01*
X321946Y295657D01*
X322036Y295671D01*
X322127Y295679D01*
X322156Y295691D01*
X322188Y295696D01*
X322269Y295739D01*
X322353Y295775D01*
X322385Y295801D01*
X322406Y295812D01*
X322428Y295835D01*
X322484Y295880D01*
X326833Y300229D01*
X333567Y300229D01*
X338329Y295467D01*
X338329Y288733D01*
X333567Y283971D01*
X326833Y283971D01*
G37*
%LPD*%
%LPC*%
G36*
X250633Y283971D02*
X250633Y283971D01*
X246284Y288320D01*
X246210Y288373D01*
X246141Y288433D01*
X246110Y288445D01*
X246084Y288464D01*
X245997Y288491D01*
X245912Y288525D01*
X245871Y288529D01*
X245849Y288536D01*
X245817Y288535D01*
X245746Y288543D01*
X150927Y288543D01*
X117622Y321848D01*
X117548Y321901D01*
X117478Y321961D01*
X117448Y321973D01*
X117422Y321992D01*
X117335Y322019D01*
X117250Y322053D01*
X117209Y322057D01*
X117187Y322064D01*
X117155Y322063D01*
X117083Y322071D01*
X110933Y322071D01*
X106171Y326833D01*
X106171Y333567D01*
X110520Y337916D01*
X110573Y337990D01*
X110633Y338059D01*
X110645Y338090D01*
X110664Y338116D01*
X110691Y338203D01*
X110725Y338288D01*
X110729Y338329D01*
X110736Y338351D01*
X110735Y338383D01*
X110743Y338454D01*
X110743Y369773D01*
X125527Y384557D01*
X126437Y384557D01*
X126551Y384575D01*
X126668Y384593D01*
X126673Y384595D01*
X126679Y384596D01*
X126782Y384651D01*
X126887Y384704D01*
X126891Y384709D01*
X126897Y384712D01*
X126977Y384796D01*
X127059Y384880D01*
X127063Y384886D01*
X127066Y384890D01*
X127074Y384907D01*
X127140Y385027D01*
X127247Y385285D01*
X129375Y387413D01*
X132155Y388565D01*
X147245Y388565D01*
X150025Y387413D01*
X152153Y385285D01*
X153305Y382505D01*
X153305Y379495D01*
X152153Y376715D01*
X150025Y374587D01*
X147245Y373435D01*
X132155Y373435D01*
X129375Y374587D01*
X128034Y375928D01*
X128018Y375939D01*
X128006Y375955D01*
X127918Y376011D01*
X127834Y376071D01*
X127815Y376077D01*
X127799Y376088D01*
X127698Y376113D01*
X127599Y376144D01*
X127579Y376143D01*
X127560Y376148D01*
X127457Y376140D01*
X127354Y376137D01*
X127335Y376130D01*
X127315Y376129D01*
X127220Y376088D01*
X127122Y376053D01*
X127107Y376040D01*
X127089Y376032D01*
X126958Y375928D01*
X118080Y367050D01*
X118027Y366976D01*
X117967Y366906D01*
X117955Y366876D01*
X117936Y366850D01*
X117909Y366763D01*
X117875Y366678D01*
X117871Y366637D01*
X117864Y366615D01*
X117865Y366583D01*
X117857Y366511D01*
X117857Y338454D01*
X117871Y338364D01*
X117879Y338273D01*
X117891Y338243D01*
X117896Y338212D01*
X117939Y338131D01*
X117975Y338047D01*
X118001Y338015D01*
X118012Y337994D01*
X118035Y337972D01*
X118080Y337916D01*
X122429Y333567D01*
X122429Y327417D01*
X122443Y327326D01*
X122451Y327236D01*
X122463Y327206D01*
X122468Y327174D01*
X122511Y327093D01*
X122547Y327009D01*
X122573Y326977D01*
X122584Y326956D01*
X122607Y326934D01*
X122652Y326878D01*
X153650Y295880D01*
X153724Y295827D01*
X153794Y295767D01*
X153824Y295755D01*
X153850Y295736D01*
X153937Y295709D01*
X154022Y295675D01*
X154063Y295671D01*
X154085Y295664D01*
X154117Y295665D01*
X154189Y295657D01*
X245746Y295657D01*
X245836Y295671D01*
X245927Y295679D01*
X245956Y295691D01*
X245988Y295696D01*
X246069Y295739D01*
X246153Y295775D01*
X246185Y295801D01*
X246206Y295812D01*
X246228Y295835D01*
X246284Y295880D01*
X250633Y300229D01*
X257367Y300229D01*
X262129Y295467D01*
X262129Y288733D01*
X257367Y283971D01*
X250633Y283971D01*
G37*
%LPD*%
%LPC*%
G36*
X132155Y94035D02*
X132155Y94035D01*
X129375Y95187D01*
X127247Y97315D01*
X126095Y100095D01*
X126095Y103105D01*
X127247Y105885D01*
X128278Y106916D01*
X128289Y106932D01*
X128305Y106944D01*
X128361Y107032D01*
X128421Y107116D01*
X128427Y107135D01*
X128438Y107151D01*
X128463Y107252D01*
X128494Y107351D01*
X128493Y107371D01*
X128498Y107390D01*
X128490Y107493D01*
X128487Y107596D01*
X128480Y107615D01*
X128479Y107635D01*
X128438Y107730D01*
X128403Y107828D01*
X128390Y107843D01*
X128382Y107861D01*
X128278Y107992D01*
X49550Y186720D01*
X49476Y186773D01*
X49406Y186833D01*
X49376Y186845D01*
X49350Y186864D01*
X49263Y186891D01*
X49178Y186925D01*
X49137Y186929D01*
X49115Y186936D01*
X49083Y186935D01*
X49011Y186943D01*
X33654Y186943D01*
X33564Y186929D01*
X33473Y186921D01*
X33444Y186909D01*
X33412Y186904D01*
X33331Y186861D01*
X33247Y186825D01*
X33215Y186799D01*
X33194Y186788D01*
X33172Y186765D01*
X33116Y186720D01*
X28767Y182371D01*
X22033Y182371D01*
X17271Y187133D01*
X17271Y193867D01*
X21620Y198216D01*
X21673Y198290D01*
X21733Y198359D01*
X21745Y198390D01*
X21764Y198416D01*
X21791Y198503D01*
X21825Y198588D01*
X21829Y198629D01*
X21836Y198651D01*
X21835Y198683D01*
X21843Y198754D01*
X21843Y207646D01*
X21829Y207736D01*
X21821Y207827D01*
X21809Y207856D01*
X21804Y207888D01*
X21761Y207969D01*
X21725Y208053D01*
X21699Y208085D01*
X21688Y208106D01*
X21665Y208128D01*
X21620Y208184D01*
X17271Y212533D01*
X17271Y219267D01*
X22033Y224029D01*
X28767Y224029D01*
X33529Y219267D01*
X33529Y212533D01*
X29180Y208184D01*
X29127Y208110D01*
X29067Y208041D01*
X29055Y208010D01*
X29036Y207984D01*
X29009Y207897D01*
X28975Y207812D01*
X28971Y207771D01*
X28964Y207749D01*
X28965Y207717D01*
X28957Y207646D01*
X28957Y198754D01*
X28971Y198664D01*
X28979Y198573D01*
X28991Y198544D01*
X28996Y198512D01*
X29039Y198431D01*
X29075Y198347D01*
X29101Y198315D01*
X29112Y198294D01*
X29135Y198272D01*
X29180Y198216D01*
X33116Y194280D01*
X33190Y194227D01*
X33259Y194167D01*
X33290Y194155D01*
X33316Y194136D01*
X33403Y194109D01*
X33488Y194075D01*
X33529Y194071D01*
X33551Y194064D01*
X33583Y194065D01*
X33654Y194057D01*
X52273Y194057D01*
X136942Y109388D01*
X137016Y109335D01*
X137086Y109275D01*
X137116Y109263D01*
X137142Y109244D01*
X137229Y109217D01*
X137314Y109183D01*
X137355Y109179D01*
X137377Y109172D01*
X137409Y109173D01*
X137481Y109165D01*
X147245Y109165D01*
X150025Y108013D01*
X152153Y105885D01*
X153305Y103105D01*
X153305Y100095D01*
X152153Y97315D01*
X150025Y95187D01*
X147245Y94035D01*
X132155Y94035D01*
G37*
%LPD*%
%LPC*%
G36*
X208355Y43235D02*
X208355Y43235D01*
X205575Y44387D01*
X203447Y46515D01*
X202295Y49295D01*
X202295Y52305D01*
X203447Y55085D01*
X205575Y57213D01*
X208355Y58365D01*
X211582Y58365D01*
X211602Y58368D01*
X211621Y58366D01*
X211723Y58388D01*
X211825Y58404D01*
X211842Y58414D01*
X211862Y58418D01*
X211951Y58471D01*
X212042Y58520D01*
X212056Y58534D01*
X212073Y58544D01*
X212140Y58623D01*
X212212Y58698D01*
X212220Y58716D01*
X212233Y58731D01*
X212272Y58827D01*
X212315Y58921D01*
X212317Y58941D01*
X212325Y58959D01*
X212343Y59126D01*
X212343Y67874D01*
X212340Y67894D01*
X212342Y67913D01*
X212320Y68015D01*
X212304Y68117D01*
X212294Y68134D01*
X212290Y68154D01*
X212237Y68243D01*
X212188Y68334D01*
X212174Y68348D01*
X212164Y68365D01*
X212085Y68432D01*
X212010Y68504D01*
X211992Y68512D01*
X211977Y68525D01*
X211881Y68564D01*
X211787Y68607D01*
X211767Y68609D01*
X211749Y68617D01*
X211582Y68635D01*
X208355Y68635D01*
X205575Y69787D01*
X203447Y71915D01*
X202295Y74695D01*
X202295Y77705D01*
X203447Y80485D01*
X204478Y81516D01*
X204489Y81532D01*
X204505Y81544D01*
X204561Y81632D01*
X204621Y81716D01*
X204627Y81735D01*
X204638Y81751D01*
X204663Y81852D01*
X204694Y81951D01*
X204693Y81971D01*
X204698Y81990D01*
X204690Y82093D01*
X204687Y82196D01*
X204680Y82215D01*
X204679Y82235D01*
X204638Y82330D01*
X204603Y82428D01*
X204590Y82443D01*
X204582Y82461D01*
X204478Y82592D01*
X189250Y97820D01*
X186943Y100127D01*
X186943Y112511D01*
X186929Y112602D01*
X186921Y112692D01*
X186909Y112722D01*
X186904Y112754D01*
X186861Y112835D01*
X186825Y112919D01*
X186799Y112951D01*
X186788Y112972D01*
X186765Y112994D01*
X186720Y113050D01*
X151300Y148470D01*
X151226Y148523D01*
X151156Y148583D01*
X151126Y148595D01*
X151100Y148614D01*
X151013Y148641D01*
X150928Y148675D01*
X150887Y148679D01*
X150865Y148686D01*
X150833Y148685D01*
X150761Y148693D01*
X148696Y148693D01*
X142893Y154496D01*
X142893Y162704D01*
X148696Y168507D01*
X156904Y168507D01*
X162707Y162704D01*
X162707Y154496D01*
X159558Y151348D01*
X159547Y151332D01*
X159531Y151320D01*
X159475Y151232D01*
X159415Y151148D01*
X159409Y151129D01*
X159398Y151113D01*
X159373Y151012D01*
X159342Y150913D01*
X159343Y150893D01*
X159338Y150874D01*
X159346Y150771D01*
X159349Y150667D01*
X159356Y150649D01*
X159357Y150629D01*
X159398Y150534D01*
X159433Y150436D01*
X159446Y150421D01*
X159454Y150403D01*
X159558Y150272D01*
X191750Y118080D01*
X194057Y115773D01*
X194057Y103389D01*
X194071Y103298D01*
X194079Y103208D01*
X194091Y103178D01*
X194096Y103146D01*
X194139Y103065D01*
X194175Y102981D01*
X194201Y102949D01*
X194212Y102928D01*
X194235Y102906D01*
X194280Y102850D01*
X213142Y83988D01*
X213216Y83935D01*
X213286Y83875D01*
X213316Y83863D01*
X213342Y83844D01*
X213429Y83817D01*
X213514Y83783D01*
X213555Y83779D01*
X213577Y83772D01*
X213609Y83773D01*
X213681Y83765D01*
X223445Y83765D01*
X226225Y82613D01*
X228353Y80485D01*
X229505Y77705D01*
X229505Y74695D01*
X228353Y71915D01*
X226225Y69787D01*
X223445Y68635D01*
X220218Y68635D01*
X220198Y68632D01*
X220179Y68634D01*
X220077Y68612D01*
X219975Y68596D01*
X219958Y68586D01*
X219938Y68582D01*
X219849Y68529D01*
X219758Y68480D01*
X219744Y68466D01*
X219727Y68456D01*
X219660Y68377D01*
X219588Y68302D01*
X219580Y68284D01*
X219567Y68269D01*
X219528Y68173D01*
X219485Y68079D01*
X219483Y68059D01*
X219475Y68041D01*
X219457Y67874D01*
X219457Y59126D01*
X219460Y59106D01*
X219458Y59087D01*
X219480Y58985D01*
X219496Y58883D01*
X219506Y58866D01*
X219510Y58846D01*
X219563Y58757D01*
X219612Y58666D01*
X219626Y58652D01*
X219636Y58635D01*
X219715Y58568D01*
X219790Y58496D01*
X219808Y58488D01*
X219823Y58475D01*
X219919Y58436D01*
X220013Y58393D01*
X220033Y58391D01*
X220051Y58383D01*
X220218Y58365D01*
X223445Y58365D01*
X226225Y57213D01*
X228353Y55085D01*
X229505Y52305D01*
X229505Y49295D01*
X228353Y46515D01*
X226225Y44387D01*
X223445Y43235D01*
X208355Y43235D01*
G37*
%LPD*%
%LPC*%
G36*
X302856Y16425D02*
X302856Y16425D01*
X299263Y17913D01*
X296513Y20663D01*
X295950Y22022D01*
X295880Y22136D01*
X295821Y22231D01*
X295711Y22322D01*
X295632Y22388D01*
X295631Y22388D01*
X295521Y22431D01*
X295402Y22476D01*
X295401Y22476D01*
X295235Y22492D01*
X255805Y21871D01*
X255720Y21856D01*
X255635Y21849D01*
X255621Y21843D01*
X254034Y21843D01*
X254029Y21842D01*
X254022Y21843D01*
X252550Y21820D01*
X251509Y22861D01*
X251505Y22864D01*
X251501Y22869D01*
X250360Y23974D01*
X250353Y23991D01*
X250322Y24029D01*
X250309Y24053D01*
X250287Y24074D01*
X250248Y24122D01*
X237743Y36627D01*
X237743Y87111D01*
X237729Y87202D01*
X237721Y87292D01*
X237709Y87322D01*
X237704Y87354D01*
X237661Y87435D01*
X237625Y87519D01*
X237599Y87551D01*
X237588Y87572D01*
X237565Y87594D01*
X237520Y87650D01*
X228642Y96528D01*
X228626Y96539D01*
X228614Y96555D01*
X228527Y96611D01*
X228443Y96671D01*
X228424Y96677D01*
X228407Y96688D01*
X228306Y96713D01*
X228208Y96744D01*
X228188Y96743D01*
X228168Y96748D01*
X228065Y96740D01*
X227962Y96737D01*
X227943Y96730D01*
X227923Y96729D01*
X227828Y96688D01*
X227731Y96653D01*
X227715Y96640D01*
X227697Y96632D01*
X227566Y96528D01*
X226225Y95187D01*
X223445Y94035D01*
X208355Y94035D01*
X205575Y95187D01*
X203447Y97315D01*
X202295Y100095D01*
X202295Y103105D01*
X203447Y105885D01*
X205575Y108013D01*
X208355Y109165D01*
X223445Y109165D01*
X226225Y108013D01*
X228353Y105885D01*
X228460Y105627D01*
X228522Y105527D01*
X228582Y105427D01*
X228586Y105423D01*
X228590Y105418D01*
X228679Y105344D01*
X228769Y105267D01*
X228774Y105265D01*
X228779Y105261D01*
X228887Y105219D01*
X228997Y105175D01*
X229004Y105174D01*
X229009Y105173D01*
X229027Y105172D01*
X229163Y105157D01*
X230073Y105157D01*
X244857Y90373D01*
X244857Y39889D01*
X244871Y39798D01*
X244879Y39708D01*
X244891Y39678D01*
X244896Y39646D01*
X244939Y39565D01*
X244975Y39481D01*
X245001Y39449D01*
X245012Y39428D01*
X245035Y39406D01*
X245080Y39350D01*
X255222Y29208D01*
X255301Y29151D01*
X255376Y29089D01*
X255400Y29080D01*
X255422Y29064D01*
X255515Y29036D01*
X255605Y29001D01*
X255638Y28998D01*
X255657Y28992D01*
X255690Y28993D01*
X255772Y28985D01*
X295134Y29605D01*
X295243Y29625D01*
X295353Y29641D01*
X295364Y29646D01*
X295376Y29649D01*
X295473Y29702D01*
X295572Y29752D01*
X295580Y29761D01*
X295591Y29767D01*
X295666Y29848D01*
X295744Y29928D01*
X295751Y29941D01*
X295758Y29948D01*
X295769Y29973D01*
X295825Y30075D01*
X296513Y31737D01*
X299263Y34487D01*
X302856Y35975D01*
X306744Y35975D01*
X310337Y34487D01*
X313087Y31737D01*
X314575Y28144D01*
X314575Y24256D01*
X313087Y20663D01*
X310337Y17913D01*
X306744Y16425D01*
X302856Y16425D01*
G37*
%LPD*%
%LPC*%
G36*
X162902Y629693D02*
X162902Y629693D01*
X159793Y632802D01*
X159793Y637198D01*
X160304Y637709D01*
X160357Y637783D01*
X160417Y637853D01*
X160429Y637883D01*
X160448Y637909D01*
X160475Y637996D01*
X160509Y638081D01*
X160513Y638122D01*
X160520Y638144D01*
X160519Y638176D01*
X160527Y638247D01*
X160527Y658191D01*
X160513Y658281D01*
X160505Y658372D01*
X160493Y658401D01*
X160488Y658433D01*
X160445Y658514D01*
X160409Y658598D01*
X160383Y658630D01*
X160372Y658651D01*
X160349Y658673D01*
X160304Y658729D01*
X147827Y671206D01*
X147827Y703962D01*
X147813Y704052D01*
X147805Y704143D01*
X147793Y704172D01*
X147788Y704204D01*
X147745Y704285D01*
X147709Y704369D01*
X147683Y704401D01*
X147672Y704422D01*
X147649Y704444D01*
X147604Y704500D01*
X144271Y707833D01*
X144271Y714567D01*
X147604Y717900D01*
X147657Y717974D01*
X147717Y718043D01*
X147729Y718074D01*
X147748Y718100D01*
X147775Y718187D01*
X147809Y718272D01*
X147813Y718313D01*
X147820Y718335D01*
X147819Y718367D01*
X147827Y718438D01*
X147827Y734391D01*
X147813Y734481D01*
X147805Y734572D01*
X147793Y734601D01*
X147788Y734633D01*
X147745Y734714D01*
X147709Y734798D01*
X147683Y734830D01*
X147672Y734851D01*
X147649Y734873D01*
X147604Y734929D01*
X141021Y741512D01*
X140947Y741565D01*
X140877Y741625D01*
X140847Y741637D01*
X140821Y741656D01*
X140734Y741683D01*
X140649Y741717D01*
X140608Y741721D01*
X140586Y741728D01*
X140554Y741727D01*
X140483Y741735D01*
X132155Y741735D01*
X129375Y742887D01*
X127247Y745015D01*
X126095Y747795D01*
X126095Y750805D01*
X127247Y753585D01*
X129375Y755713D01*
X132155Y756865D01*
X147245Y756865D01*
X150025Y755713D01*
X152153Y753585D01*
X153305Y750805D01*
X153305Y747795D01*
X152153Y745015D01*
X151841Y744703D01*
X151829Y744686D01*
X151814Y744674D01*
X151757Y744587D01*
X151697Y744503D01*
X151691Y744484D01*
X151681Y744467D01*
X151655Y744367D01*
X151625Y744268D01*
X151625Y744248D01*
X151621Y744229D01*
X151629Y744126D01*
X151631Y744022D01*
X151638Y744003D01*
X151640Y743983D01*
X151680Y743888D01*
X151716Y743791D01*
X151728Y743775D01*
X151736Y743757D01*
X151841Y743626D01*
X156973Y738494D01*
X156973Y718438D01*
X156987Y718348D01*
X156995Y718257D01*
X157007Y718228D01*
X157012Y718196D01*
X157055Y718115D01*
X157091Y718031D01*
X157117Y717999D01*
X157128Y717978D01*
X157151Y717956D01*
X157196Y717900D01*
X160529Y714567D01*
X160529Y707833D01*
X157196Y704500D01*
X157143Y704426D01*
X157083Y704357D01*
X157071Y704326D01*
X157052Y704300D01*
X157025Y704213D01*
X156991Y704128D01*
X156987Y704087D01*
X156980Y704065D01*
X156981Y704033D01*
X156973Y703962D01*
X156973Y675309D01*
X156987Y675219D01*
X156995Y675128D01*
X157007Y675099D01*
X157012Y675067D01*
X157055Y674986D01*
X157091Y674902D01*
X157117Y674870D01*
X157128Y674849D01*
X157151Y674827D01*
X157196Y674771D01*
X169673Y662294D01*
X169673Y638247D01*
X169687Y638157D01*
X169695Y638066D01*
X169707Y638037D01*
X169712Y638005D01*
X169755Y637924D01*
X169791Y637840D01*
X169817Y637808D01*
X169828Y637787D01*
X169851Y637765D01*
X169896Y637709D01*
X170407Y637198D01*
X170407Y632802D01*
X167298Y629693D01*
X162902Y629693D01*
G37*
%LPD*%
%LPC*%
G36*
X326833Y309371D02*
X326833Y309371D01*
X322484Y313720D01*
X322410Y313773D01*
X322341Y313833D01*
X322310Y313845D01*
X322284Y313864D01*
X322197Y313891D01*
X322112Y313925D01*
X322071Y313929D01*
X322049Y313936D01*
X322017Y313935D01*
X321946Y313943D01*
X290627Y313943D01*
X265450Y339120D01*
X265376Y339173D01*
X265306Y339233D01*
X265276Y339245D01*
X265250Y339264D01*
X265163Y339291D01*
X265078Y339325D01*
X265037Y339329D01*
X265015Y339336D01*
X264983Y339335D01*
X264911Y339343D01*
X262254Y339343D01*
X262164Y339329D01*
X262073Y339321D01*
X262044Y339309D01*
X262012Y339304D01*
X261931Y339261D01*
X261847Y339225D01*
X261815Y339199D01*
X261794Y339188D01*
X261772Y339165D01*
X261716Y339120D01*
X257367Y334771D01*
X250633Y334771D01*
X245871Y339533D01*
X245871Y345683D01*
X245857Y345774D01*
X245849Y345864D01*
X245837Y345894D01*
X245832Y345926D01*
X245789Y346007D01*
X245753Y346091D01*
X245727Y346123D01*
X245716Y346144D01*
X245693Y346166D01*
X245648Y346222D01*
X240050Y351820D01*
X239976Y351873D01*
X239906Y351933D01*
X239876Y351945D01*
X239850Y351964D01*
X239763Y351991D01*
X239678Y352025D01*
X239637Y352029D01*
X239615Y352036D01*
X239583Y352035D01*
X239511Y352043D01*
X229163Y352043D01*
X229049Y352025D01*
X228932Y352007D01*
X228927Y352005D01*
X228921Y352004D01*
X228818Y351949D01*
X228713Y351896D01*
X228709Y351891D01*
X228703Y351888D01*
X228623Y351804D01*
X228541Y351720D01*
X228537Y351714D01*
X228534Y351710D01*
X228526Y351693D01*
X228460Y351573D01*
X228353Y351315D01*
X226225Y349187D01*
X223445Y348035D01*
X208355Y348035D01*
X205575Y349187D01*
X203447Y351315D01*
X202295Y354095D01*
X202295Y357105D01*
X203447Y359885D01*
X205575Y362013D01*
X208355Y363165D01*
X223445Y363165D01*
X226225Y362013D01*
X228353Y359885D01*
X228460Y359627D01*
X228521Y359528D01*
X228582Y359427D01*
X228586Y359423D01*
X228590Y359418D01*
X228679Y359344D01*
X228769Y359267D01*
X228774Y359265D01*
X228779Y359261D01*
X228887Y359219D01*
X228997Y359175D01*
X229004Y359174D01*
X229009Y359173D01*
X229027Y359172D01*
X229163Y359157D01*
X242773Y359157D01*
X250678Y351252D01*
X250752Y351199D01*
X250822Y351139D01*
X250852Y351127D01*
X250878Y351108D01*
X250965Y351081D01*
X251050Y351047D01*
X251091Y351043D01*
X251113Y351036D01*
X251145Y351037D01*
X251217Y351029D01*
X257367Y351029D01*
X261716Y346680D01*
X261790Y346627D01*
X261859Y346567D01*
X261890Y346555D01*
X261916Y346536D01*
X262003Y346509D01*
X262088Y346475D01*
X262129Y346471D01*
X262151Y346464D01*
X262183Y346465D01*
X262254Y346457D01*
X268173Y346457D01*
X293350Y321280D01*
X293424Y321227D01*
X293494Y321167D01*
X293524Y321155D01*
X293550Y321136D01*
X293637Y321109D01*
X293722Y321075D01*
X293763Y321071D01*
X293785Y321064D01*
X293817Y321065D01*
X293889Y321057D01*
X321946Y321057D01*
X322036Y321071D01*
X322127Y321079D01*
X322156Y321091D01*
X322188Y321096D01*
X322269Y321139D01*
X322353Y321175D01*
X322385Y321201D01*
X322406Y321212D01*
X322428Y321235D01*
X322484Y321280D01*
X326833Y325629D01*
X333567Y325629D01*
X338329Y320867D01*
X338329Y314133D01*
X333567Y309371D01*
X326833Y309371D01*
G37*
%LPD*%
%LPC*%
G36*
X132155Y424235D02*
X132155Y424235D01*
X129375Y425387D01*
X127247Y427515D01*
X126095Y430295D01*
X126095Y433305D01*
X127247Y436085D01*
X129375Y438213D01*
X132155Y439365D01*
X147245Y439365D01*
X150025Y438213D01*
X152153Y436085D01*
X152260Y435827D01*
X152321Y435728D01*
X152382Y435627D01*
X152386Y435623D01*
X152390Y435618D01*
X152479Y435544D01*
X152569Y435467D01*
X152574Y435465D01*
X152579Y435461D01*
X152687Y435419D01*
X152797Y435375D01*
X152804Y435374D01*
X152809Y435373D01*
X152827Y435372D01*
X152963Y435357D01*
X163311Y435357D01*
X163402Y435371D01*
X163492Y435379D01*
X163522Y435391D01*
X163554Y435396D01*
X163635Y435439D01*
X163719Y435475D01*
X163751Y435501D01*
X163772Y435512D01*
X163794Y435535D01*
X163850Y435580D01*
X174020Y445750D01*
X174073Y445824D01*
X174133Y445894D01*
X174145Y445924D01*
X174164Y445950D01*
X174191Y446037D01*
X174225Y446122D01*
X174229Y446163D01*
X174236Y446185D01*
X174235Y446217D01*
X174243Y446289D01*
X174243Y516232D01*
X174240Y516252D01*
X174242Y516271D01*
X174220Y516373D01*
X174204Y516475D01*
X174194Y516492D01*
X174190Y516512D01*
X174137Y516601D01*
X174088Y516692D01*
X174074Y516706D01*
X174064Y516723D01*
X173985Y516790D01*
X173910Y516862D01*
X173892Y516870D01*
X173877Y516883D01*
X173781Y516922D01*
X173757Y516933D01*
X167893Y522796D01*
X167893Y531004D01*
X173696Y536807D01*
X181904Y536807D01*
X187707Y531004D01*
X187707Y522796D01*
X181854Y516943D01*
X181838Y516940D01*
X181749Y516887D01*
X181658Y516838D01*
X181644Y516824D01*
X181627Y516814D01*
X181560Y516735D01*
X181488Y516660D01*
X181480Y516642D01*
X181467Y516627D01*
X181428Y516531D01*
X181385Y516437D01*
X181383Y516417D01*
X181375Y516399D01*
X181357Y516232D01*
X181357Y443027D01*
X166573Y428243D01*
X152963Y428243D01*
X152849Y428225D01*
X152732Y428207D01*
X152727Y428205D01*
X152721Y428204D01*
X152618Y428149D01*
X152513Y428096D01*
X152509Y428091D01*
X152503Y428088D01*
X152423Y428004D01*
X152341Y427920D01*
X152337Y427914D01*
X152334Y427910D01*
X152326Y427893D01*
X152260Y427773D01*
X152153Y427515D01*
X150025Y425387D01*
X147245Y424235D01*
X132155Y424235D01*
G37*
%LPD*%
%LPC*%
G36*
X326833Y334771D02*
X326833Y334771D01*
X322484Y339120D01*
X322410Y339173D01*
X322341Y339233D01*
X322310Y339245D01*
X322284Y339264D01*
X322197Y339291D01*
X322112Y339325D01*
X322071Y339329D01*
X322049Y339336D01*
X322017Y339335D01*
X321946Y339343D01*
X290627Y339343D01*
X252750Y377220D01*
X252676Y377273D01*
X252606Y377333D01*
X252576Y377345D01*
X252550Y377364D01*
X252463Y377391D01*
X252378Y377425D01*
X252337Y377429D01*
X252315Y377436D01*
X252283Y377435D01*
X252211Y377443D01*
X229163Y377443D01*
X229049Y377425D01*
X228932Y377407D01*
X228927Y377405D01*
X228921Y377404D01*
X228818Y377349D01*
X228713Y377296D01*
X228709Y377291D01*
X228703Y377288D01*
X228623Y377204D01*
X228541Y377120D01*
X228537Y377114D01*
X228534Y377110D01*
X228526Y377093D01*
X228460Y376973D01*
X228353Y376715D01*
X226225Y374587D01*
X223445Y373435D01*
X208355Y373435D01*
X205575Y374587D01*
X203447Y376715D01*
X202295Y379495D01*
X202295Y382505D01*
X203447Y385285D01*
X205575Y387413D01*
X208355Y388565D01*
X223445Y388565D01*
X226225Y387413D01*
X228353Y385285D01*
X228460Y385027D01*
X228521Y384928D01*
X228582Y384827D01*
X228586Y384823D01*
X228590Y384818D01*
X228679Y384744D01*
X228769Y384667D01*
X228774Y384665D01*
X228779Y384661D01*
X228887Y384619D01*
X228997Y384575D01*
X229004Y384574D01*
X229009Y384573D01*
X229027Y384572D01*
X229163Y384557D01*
X255473Y384557D01*
X293350Y346680D01*
X293424Y346627D01*
X293494Y346567D01*
X293524Y346555D01*
X293550Y346536D01*
X293637Y346509D01*
X293722Y346475D01*
X293763Y346471D01*
X293785Y346464D01*
X293817Y346465D01*
X293889Y346457D01*
X321946Y346457D01*
X322036Y346471D01*
X322127Y346479D01*
X322156Y346491D01*
X322188Y346496D01*
X322269Y346539D01*
X322353Y346575D01*
X322385Y346601D01*
X322406Y346612D01*
X322428Y346635D01*
X322484Y346680D01*
X326833Y351029D01*
X333567Y351029D01*
X338329Y346267D01*
X338329Y339533D01*
X333567Y334771D01*
X326833Y334771D01*
G37*
%LPD*%
%LPC*%
G36*
X302856Y753025D02*
X302856Y753025D01*
X299263Y754513D01*
X296513Y757263D01*
X296219Y757973D01*
X296158Y758073D01*
X296098Y758173D01*
X296093Y758177D01*
X296090Y758182D01*
X295999Y758257D01*
X295911Y758333D01*
X295905Y758335D01*
X295900Y758339D01*
X295792Y758381D01*
X295683Y758425D01*
X295675Y758426D01*
X295670Y758427D01*
X295652Y758428D01*
X295516Y758443D01*
X265227Y758443D01*
X228642Y795028D01*
X228626Y795039D01*
X228614Y795055D01*
X228526Y795111D01*
X228443Y795171D01*
X228424Y795177D01*
X228407Y795188D01*
X228306Y795213D01*
X228208Y795244D01*
X228188Y795243D01*
X228168Y795248D01*
X228065Y795240D01*
X227962Y795237D01*
X227943Y795230D01*
X227923Y795229D01*
X227828Y795188D01*
X227731Y795153D01*
X227715Y795140D01*
X227697Y795132D01*
X227566Y795028D01*
X226225Y793687D01*
X223445Y792535D01*
X208355Y792535D01*
X205575Y793687D01*
X203447Y795815D01*
X202295Y798595D01*
X202295Y801605D01*
X203447Y804385D01*
X205575Y806513D01*
X208355Y807665D01*
X223445Y807665D01*
X226225Y806513D01*
X228353Y804385D01*
X228460Y804127D01*
X228521Y804028D01*
X228582Y803927D01*
X228586Y803923D01*
X228590Y803918D01*
X228679Y803844D01*
X228769Y803767D01*
X228774Y803765D01*
X228779Y803761D01*
X228887Y803719D01*
X228997Y803675D01*
X229004Y803674D01*
X229009Y803673D01*
X229027Y803672D01*
X229163Y803657D01*
X230073Y803657D01*
X267950Y765780D01*
X268024Y765727D01*
X268094Y765667D01*
X268124Y765655D01*
X268150Y765636D01*
X268237Y765609D01*
X268322Y765575D01*
X268363Y765571D01*
X268385Y765564D01*
X268417Y765565D01*
X268489Y765557D01*
X294853Y765557D01*
X294968Y765576D01*
X295084Y765593D01*
X295090Y765595D01*
X295096Y765596D01*
X295199Y765651D01*
X295303Y765704D01*
X295308Y765709D01*
X295313Y765712D01*
X295393Y765796D01*
X295476Y765880D01*
X295479Y765886D01*
X295483Y765890D01*
X295490Y765907D01*
X295556Y766027D01*
X296513Y768337D01*
X299263Y771087D01*
X302856Y772575D01*
X306744Y772575D01*
X310337Y771087D01*
X313087Y768337D01*
X314575Y764744D01*
X314575Y760856D01*
X313087Y757263D01*
X310337Y754513D01*
X306744Y753025D01*
X302856Y753025D01*
G37*
%LPD*%
%LPC*%
G36*
X302856Y384725D02*
X302856Y384725D01*
X299263Y386213D01*
X296513Y388963D01*
X295025Y392556D01*
X295025Y396444D01*
X295522Y397644D01*
X295524Y397650D01*
X295527Y397655D01*
X295552Y397770D01*
X295578Y397883D01*
X295578Y397889D01*
X295579Y397896D01*
X295566Y398012D01*
X295555Y398128D01*
X295553Y398134D01*
X295552Y398140D01*
X295503Y398246D01*
X295455Y398353D01*
X295451Y398357D01*
X295448Y398363D01*
X295339Y398491D01*
X290914Y402638D01*
X290848Y402681D01*
X290788Y402733D01*
X290746Y402750D01*
X290709Y402774D01*
X290633Y402795D01*
X290560Y402825D01*
X290501Y402831D01*
X290472Y402839D01*
X290445Y402838D01*
X290393Y402843D01*
X229163Y402843D01*
X229049Y402825D01*
X228932Y402807D01*
X228927Y402805D01*
X228921Y402804D01*
X228818Y402749D01*
X228713Y402696D01*
X228709Y402691D01*
X228703Y402688D01*
X228623Y402604D01*
X228541Y402520D01*
X228537Y402514D01*
X228534Y402510D01*
X228526Y402493D01*
X228460Y402373D01*
X228353Y402115D01*
X226225Y399987D01*
X223445Y398835D01*
X208355Y398835D01*
X205575Y399987D01*
X203447Y402115D01*
X202295Y404895D01*
X202295Y407905D01*
X203447Y410685D01*
X205575Y412813D01*
X208355Y413965D01*
X223445Y413965D01*
X226225Y412813D01*
X228353Y410685D01*
X228460Y410427D01*
X228521Y410328D01*
X228582Y410227D01*
X228586Y410223D01*
X228590Y410218D01*
X228679Y410144D01*
X228769Y410067D01*
X228774Y410065D01*
X228779Y410061D01*
X228887Y410019D01*
X228997Y409975D01*
X229004Y409974D01*
X229009Y409973D01*
X229027Y409972D01*
X229163Y409957D01*
X292030Y409957D01*
X292039Y409958D01*
X292055Y409957D01*
X293525Y410005D01*
X294565Y408965D01*
X294573Y408959D01*
X294583Y408947D01*
X300219Y403667D01*
X300306Y403608D01*
X300390Y403546D01*
X300408Y403540D01*
X300423Y403530D01*
X300524Y403502D01*
X300624Y403470D01*
X300642Y403470D01*
X300661Y403465D01*
X300765Y403471D01*
X300870Y403472D01*
X300892Y403479D01*
X300906Y403479D01*
X300935Y403491D01*
X301031Y403519D01*
X302856Y404275D01*
X306744Y404275D01*
X310337Y402787D01*
X313087Y400037D01*
X314575Y396444D01*
X314575Y392556D01*
X313087Y388963D01*
X310337Y386213D01*
X306744Y384725D01*
X302856Y384725D01*
G37*
%LPD*%
%LPC*%
G36*
X206588Y211495D02*
X206588Y211495D01*
X205695Y212388D01*
X205695Y244812D01*
X206588Y245705D01*
X239012Y245705D01*
X239905Y244812D01*
X239905Y212388D01*
X239012Y211495D01*
X206588Y211495D01*
G37*
%LPD*%
%LPC*%
G36*
X116588Y211495D02*
X116588Y211495D01*
X115695Y212388D01*
X115695Y244812D01*
X116588Y245705D01*
X149012Y245705D01*
X149905Y244812D01*
X149905Y212388D01*
X149012Y211495D01*
X116588Y211495D01*
G37*
%LPD*%
%LPC*%
G36*
X116588Y579795D02*
X116588Y579795D01*
X115695Y580688D01*
X115695Y613112D01*
X116588Y614005D01*
X149012Y614005D01*
X149905Y613112D01*
X149905Y580688D01*
X149012Y579795D01*
X116588Y579795D01*
G37*
%LPD*%
%LPC*%
G36*
X206588Y579795D02*
X206588Y579795D01*
X205695Y580688D01*
X205695Y613112D01*
X206588Y614005D01*
X239012Y614005D01*
X239905Y613112D01*
X239905Y580688D01*
X239012Y579795D01*
X206588Y579795D01*
G37*
%LPD*%
%LPC*%
G36*
X132155Y767135D02*
X132155Y767135D01*
X129375Y768287D01*
X127247Y770415D01*
X126095Y773195D01*
X126095Y776205D01*
X127247Y778985D01*
X129375Y781113D01*
X132155Y782265D01*
X135382Y782265D01*
X135402Y782268D01*
X135421Y782266D01*
X135523Y782288D01*
X135625Y782304D01*
X135642Y782314D01*
X135662Y782318D01*
X135751Y782371D01*
X135842Y782420D01*
X135856Y782434D01*
X135873Y782444D01*
X135940Y782523D01*
X136012Y782598D01*
X136020Y782616D01*
X136033Y782631D01*
X136072Y782727D01*
X136115Y782821D01*
X136117Y782841D01*
X136125Y782859D01*
X136143Y783026D01*
X136143Y791774D01*
X136140Y791794D01*
X136142Y791813D01*
X136120Y791915D01*
X136104Y792017D01*
X136094Y792034D01*
X136090Y792054D01*
X136037Y792143D01*
X135988Y792234D01*
X135974Y792248D01*
X135964Y792265D01*
X135885Y792332D01*
X135810Y792404D01*
X135792Y792412D01*
X135777Y792425D01*
X135681Y792464D01*
X135587Y792507D01*
X135567Y792509D01*
X135549Y792517D01*
X135382Y792535D01*
X132155Y792535D01*
X129375Y793687D01*
X127247Y795815D01*
X127140Y796073D01*
X127079Y796172D01*
X127018Y796273D01*
X127014Y796277D01*
X127010Y796282D01*
X126921Y796356D01*
X126831Y796433D01*
X126826Y796435D01*
X126821Y796439D01*
X126713Y796480D01*
X126603Y796525D01*
X126596Y796526D01*
X126591Y796527D01*
X126573Y796528D01*
X126437Y796543D01*
X122554Y796543D01*
X122464Y796529D01*
X122373Y796521D01*
X122344Y796509D01*
X122312Y796504D01*
X122231Y796461D01*
X122147Y796425D01*
X122115Y796399D01*
X122094Y796388D01*
X122084Y796378D01*
X122083Y796377D01*
X122070Y796363D01*
X122016Y796320D01*
X117667Y791971D01*
X110933Y791971D01*
X106171Y796733D01*
X106171Y803467D01*
X110933Y808229D01*
X117667Y808229D01*
X122016Y803880D01*
X122090Y803827D01*
X122159Y803767D01*
X122190Y803755D01*
X122216Y803736D01*
X122303Y803709D01*
X122388Y803675D01*
X122429Y803671D01*
X122451Y803664D01*
X122483Y803665D01*
X122554Y803657D01*
X126437Y803657D01*
X126551Y803675D01*
X126668Y803693D01*
X126673Y803695D01*
X126679Y803696D01*
X126782Y803751D01*
X126887Y803804D01*
X126891Y803809D01*
X126897Y803812D01*
X126977Y803896D01*
X127059Y803980D01*
X127063Y803986D01*
X127066Y803990D01*
X127074Y804007D01*
X127140Y804127D01*
X127247Y804385D01*
X129375Y806513D01*
X132155Y807665D01*
X147245Y807665D01*
X150025Y806513D01*
X152153Y804385D01*
X153305Y801605D01*
X153305Y798595D01*
X152153Y795815D01*
X150025Y793687D01*
X147245Y792535D01*
X144018Y792535D01*
X143998Y792532D01*
X143979Y792534D01*
X143877Y792512D01*
X143775Y792496D01*
X143758Y792486D01*
X143738Y792482D01*
X143649Y792429D01*
X143558Y792380D01*
X143544Y792366D01*
X143527Y792356D01*
X143460Y792277D01*
X143388Y792202D01*
X143380Y792184D01*
X143367Y792169D01*
X143328Y792073D01*
X143285Y791979D01*
X143283Y791959D01*
X143275Y791941D01*
X143257Y791774D01*
X143257Y783026D01*
X143260Y783006D01*
X143258Y782987D01*
X143280Y782885D01*
X143296Y782783D01*
X143306Y782766D01*
X143310Y782746D01*
X143363Y782657D01*
X143412Y782566D01*
X143426Y782552D01*
X143436Y782535D01*
X143515Y782468D01*
X143590Y782396D01*
X143608Y782388D01*
X143623Y782375D01*
X143719Y782336D01*
X143813Y782293D01*
X143833Y782291D01*
X143851Y782283D01*
X144018Y782265D01*
X147245Y782265D01*
X150025Y781113D01*
X152153Y778985D01*
X153305Y776205D01*
X153305Y773195D01*
X152153Y770415D01*
X150025Y768287D01*
X147245Y767135D01*
X132155Y767135D01*
G37*
%LPD*%
%LPC*%
G36*
X208355Y741735D02*
X208355Y741735D01*
X205575Y742887D01*
X203447Y745015D01*
X202295Y747795D01*
X202295Y750805D01*
X203447Y753585D01*
X205575Y755713D01*
X208355Y756865D01*
X211582Y756865D01*
X211602Y756868D01*
X211621Y756866D01*
X211723Y756888D01*
X211825Y756904D01*
X211842Y756914D01*
X211862Y756918D01*
X211951Y756971D01*
X212042Y757020D01*
X212056Y757034D01*
X212073Y757044D01*
X212140Y757123D01*
X212212Y757198D01*
X212220Y757216D01*
X212233Y757231D01*
X212272Y757327D01*
X212315Y757421D01*
X212317Y757441D01*
X212325Y757459D01*
X212343Y757626D01*
X212343Y766374D01*
X212340Y766394D01*
X212342Y766413D01*
X212320Y766515D01*
X212304Y766617D01*
X212294Y766634D01*
X212290Y766654D01*
X212237Y766743D01*
X212188Y766834D01*
X212174Y766848D01*
X212164Y766865D01*
X212085Y766932D01*
X212010Y767004D01*
X211992Y767012D01*
X211977Y767025D01*
X211881Y767064D01*
X211787Y767107D01*
X211767Y767109D01*
X211749Y767117D01*
X211582Y767135D01*
X208355Y767135D01*
X205575Y768287D01*
X203447Y770415D01*
X202295Y773195D01*
X202295Y776205D01*
X203447Y778985D01*
X205575Y781113D01*
X208355Y782265D01*
X223445Y782265D01*
X226225Y781113D01*
X228353Y778985D01*
X229505Y776205D01*
X229505Y773195D01*
X228353Y770415D01*
X226225Y768287D01*
X223445Y767135D01*
X220218Y767135D01*
X220198Y767132D01*
X220179Y767134D01*
X220077Y767112D01*
X219975Y767096D01*
X219958Y767086D01*
X219938Y767082D01*
X219849Y767029D01*
X219758Y766980D01*
X219744Y766966D01*
X219727Y766956D01*
X219660Y766877D01*
X219588Y766802D01*
X219580Y766784D01*
X219567Y766769D01*
X219528Y766673D01*
X219485Y766579D01*
X219483Y766559D01*
X219475Y766541D01*
X219457Y766374D01*
X219457Y757626D01*
X219460Y757606D01*
X219458Y757587D01*
X219480Y757485D01*
X219496Y757383D01*
X219506Y757366D01*
X219510Y757346D01*
X219563Y757257D01*
X219612Y757166D01*
X219626Y757152D01*
X219636Y757135D01*
X219715Y757068D01*
X219790Y756996D01*
X219808Y756988D01*
X219823Y756975D01*
X219919Y756936D01*
X220013Y756893D01*
X220033Y756891D01*
X220051Y756883D01*
X220218Y756865D01*
X223445Y756865D01*
X226225Y755713D01*
X228353Y753585D01*
X229505Y750805D01*
X229505Y747795D01*
X228353Y745015D01*
X226225Y742887D01*
X223445Y741735D01*
X208355Y741735D01*
G37*
%LPD*%
%LPC*%
G36*
X98233Y156971D02*
X98233Y156971D01*
X93471Y161733D01*
X93471Y168467D01*
X97820Y172816D01*
X97873Y172890D01*
X97933Y172959D01*
X97945Y172990D01*
X97964Y173016D01*
X97991Y173103D01*
X98025Y173188D01*
X98029Y173229D01*
X98036Y173251D01*
X98035Y173283D01*
X98043Y173354D01*
X98043Y182246D01*
X98029Y182336D01*
X98021Y182427D01*
X98009Y182456D01*
X98004Y182488D01*
X97961Y182569D01*
X97925Y182653D01*
X97899Y182685D01*
X97888Y182706D01*
X97865Y182728D01*
X97820Y182784D01*
X93471Y187133D01*
X93471Y193867D01*
X98233Y198629D01*
X104967Y198629D01*
X109729Y193867D01*
X109729Y187133D01*
X105380Y182784D01*
X105327Y182710D01*
X105267Y182641D01*
X105255Y182610D01*
X105236Y182584D01*
X105209Y182497D01*
X105175Y182412D01*
X105171Y182371D01*
X105164Y182349D01*
X105165Y182317D01*
X105157Y182246D01*
X105157Y173354D01*
X105171Y173264D01*
X105179Y173173D01*
X105191Y173144D01*
X105196Y173112D01*
X105239Y173031D01*
X105275Y172947D01*
X105301Y172915D01*
X105312Y172894D01*
X105335Y172872D01*
X105380Y172816D01*
X109729Y168467D01*
X109729Y161733D01*
X104967Y156971D01*
X98233Y156971D01*
G37*
%LPD*%
%LPC*%
G36*
X193786Y516993D02*
X193786Y516993D01*
X192893Y517886D01*
X192893Y535914D01*
X193786Y536807D01*
X211814Y536807D01*
X212707Y535914D01*
X212707Y517886D01*
X211814Y516993D01*
X193786Y516993D01*
G37*
%LPD*%
%LPC*%
G36*
X193786Y885293D02*
X193786Y885293D01*
X192893Y886186D01*
X192893Y904214D01*
X193786Y905107D01*
X211814Y905107D01*
X212707Y904214D01*
X212707Y886186D01*
X211814Y885293D01*
X193786Y885293D01*
G37*
%LPD*%
%LPC*%
G36*
X132155Y68635D02*
X132155Y68635D01*
X129375Y69787D01*
X127247Y71915D01*
X126095Y74695D01*
X126095Y77705D01*
X127247Y80485D01*
X129375Y82613D01*
X132155Y83765D01*
X147245Y83765D01*
X150025Y82613D01*
X152153Y80485D01*
X153305Y77705D01*
X153305Y74695D01*
X152153Y71915D01*
X150025Y69787D01*
X147245Y68635D01*
X132155Y68635D01*
G37*
%LPD*%
%LPC*%
G36*
X208355Y817935D02*
X208355Y817935D01*
X205575Y819087D01*
X203447Y821215D01*
X202295Y823995D01*
X202295Y827005D01*
X203447Y829785D01*
X205575Y831913D01*
X208355Y833065D01*
X223445Y833065D01*
X226225Y831913D01*
X228353Y829785D01*
X229505Y827005D01*
X229505Y823995D01*
X228353Y821215D01*
X226225Y819087D01*
X223445Y817935D01*
X208355Y817935D01*
G37*
%LPD*%
%LPC*%
G36*
X132155Y43235D02*
X132155Y43235D01*
X129375Y44387D01*
X127247Y46515D01*
X126095Y49295D01*
X126095Y52305D01*
X127247Y55085D01*
X129375Y57213D01*
X132155Y58365D01*
X147245Y58365D01*
X150025Y57213D01*
X152153Y55085D01*
X153305Y52305D01*
X153305Y49295D01*
X152153Y46515D01*
X150025Y44387D01*
X147245Y43235D01*
X132155Y43235D01*
G37*
%LPD*%
%LPC*%
G36*
X132155Y348035D02*
X132155Y348035D01*
X129375Y349187D01*
X127247Y351315D01*
X126095Y354095D01*
X126095Y357105D01*
X127247Y359885D01*
X129375Y362013D01*
X132155Y363165D01*
X147245Y363165D01*
X150025Y362013D01*
X152153Y359885D01*
X153305Y357105D01*
X153305Y354095D01*
X152153Y351315D01*
X150025Y349187D01*
X147245Y348035D01*
X132155Y348035D01*
G37*
%LPD*%
%LPC*%
G36*
X132155Y119435D02*
X132155Y119435D01*
X129375Y120587D01*
X127247Y122715D01*
X126095Y125495D01*
X126095Y128505D01*
X127247Y131285D01*
X129375Y133413D01*
X132155Y134565D01*
X147245Y134565D01*
X150025Y133413D01*
X152153Y131285D01*
X153305Y128505D01*
X153305Y125495D01*
X152153Y122715D01*
X150025Y120587D01*
X147245Y119435D01*
X132155Y119435D01*
G37*
%LPD*%
%LPC*%
G36*
X208355Y119435D02*
X208355Y119435D01*
X205575Y120587D01*
X203447Y122715D01*
X202295Y125495D01*
X202295Y128505D01*
X203447Y131285D01*
X205575Y133413D01*
X208355Y134565D01*
X223445Y134565D01*
X226225Y133413D01*
X228353Y131285D01*
X229505Y128505D01*
X229505Y125495D01*
X228353Y122715D01*
X226225Y120587D01*
X223445Y119435D01*
X208355Y119435D01*
G37*
%LPD*%
%LPC*%
G36*
X208355Y424235D02*
X208355Y424235D01*
X205575Y425387D01*
X203447Y427515D01*
X202295Y430295D01*
X202295Y433305D01*
X203447Y436085D01*
X205575Y438213D01*
X208355Y439365D01*
X223445Y439365D01*
X226225Y438213D01*
X228353Y436085D01*
X229505Y433305D01*
X229505Y430295D01*
X228353Y427515D01*
X226225Y425387D01*
X223445Y424235D01*
X208355Y424235D01*
G37*
%LPD*%
%LPC*%
G36*
X173696Y148693D02*
X173696Y148693D01*
X167893Y154496D01*
X167893Y162704D01*
X173696Y168507D01*
X181904Y168507D01*
X187707Y162704D01*
X187707Y154496D01*
X181904Y148693D01*
X173696Y148693D01*
G37*
%LPD*%
%LPC*%
G36*
X148696Y516993D02*
X148696Y516993D01*
X142893Y522796D01*
X142893Y531004D01*
X148696Y536807D01*
X156904Y536807D01*
X162707Y531004D01*
X162707Y522796D01*
X156904Y516993D01*
X148696Y516993D01*
G37*
%LPD*%
%LPC*%
G36*
X48856Y16425D02*
X48856Y16425D01*
X45263Y17913D01*
X42513Y20663D01*
X41025Y24256D01*
X41025Y28144D01*
X42513Y31737D01*
X45263Y34487D01*
X48856Y35975D01*
X52744Y35975D01*
X56337Y34487D01*
X59087Y31737D01*
X60575Y28144D01*
X60575Y24256D01*
X59087Y20663D01*
X56337Y17913D01*
X52744Y16425D01*
X48856Y16425D01*
G37*
%LPD*%
%LPC*%
G36*
X313554Y682624D02*
X313554Y682624D01*
X307974Y688204D01*
X307974Y696096D01*
X313554Y701676D01*
X321446Y701676D01*
X327026Y696096D01*
X327026Y688204D01*
X321446Y682624D01*
X313554Y682624D01*
G37*
%LPD*%
%LPC*%
G36*
X271155Y638174D02*
X271155Y638174D01*
X267654Y639624D01*
X264974Y642304D01*
X263524Y645805D01*
X263524Y649595D01*
X264974Y653096D01*
X267654Y655776D01*
X271155Y657226D01*
X274945Y657226D01*
X278446Y655776D01*
X281126Y653096D01*
X282576Y649595D01*
X282576Y645805D01*
X281126Y642304D01*
X278446Y639624D01*
X274945Y638174D01*
X271155Y638174D01*
G37*
%LPD*%
%LPC*%
G36*
X34523Y569213D02*
X34523Y569213D01*
X29463Y574273D01*
X29463Y581427D01*
X34523Y586487D01*
X41677Y586487D01*
X46737Y581427D01*
X46737Y574273D01*
X41677Y569213D01*
X34523Y569213D01*
G37*
%LPD*%
%LPC*%
G36*
X59923Y569213D02*
X59923Y569213D01*
X54863Y574273D01*
X54863Y581427D01*
X59923Y586487D01*
X67077Y586487D01*
X72137Y581427D01*
X72137Y574273D01*
X67077Y569213D01*
X59923Y569213D01*
G37*
%LPD*%
%LPC*%
G36*
X34523Y670813D02*
X34523Y670813D01*
X29463Y675873D01*
X29463Y683027D01*
X34523Y688087D01*
X41677Y688087D01*
X46737Y683027D01*
X46737Y675873D01*
X41677Y670813D01*
X34523Y670813D01*
G37*
%LPD*%
%LPC*%
G36*
X59923Y670813D02*
X59923Y670813D01*
X54863Y675873D01*
X54863Y683027D01*
X59923Y688087D01*
X67077Y688087D01*
X72137Y683027D01*
X72137Y675873D01*
X67077Y670813D01*
X59923Y670813D01*
G37*
%LPD*%
%LPC*%
G36*
X276033Y601471D02*
X276033Y601471D01*
X271271Y606233D01*
X271271Y612967D01*
X276033Y617729D01*
X282767Y617729D01*
X287529Y612967D01*
X287529Y606233D01*
X282767Y601471D01*
X276033Y601471D01*
G37*
%LPD*%
%LPC*%
G36*
X301433Y525271D02*
X301433Y525271D01*
X296671Y530033D01*
X296671Y536767D01*
X301433Y541529D01*
X308167Y541529D01*
X312929Y536767D01*
X312929Y530033D01*
X308167Y525271D01*
X301433Y525271D01*
G37*
%LPD*%
%LPC*%
G36*
X250633Y131571D02*
X250633Y131571D01*
X245871Y136333D01*
X245871Y143067D01*
X250633Y147829D01*
X257367Y147829D01*
X262129Y143067D01*
X262129Y136333D01*
X257367Y131571D01*
X250633Y131571D01*
G37*
%LPD*%
%LPC*%
G36*
X276033Y525271D02*
X276033Y525271D01*
X271271Y530033D01*
X271271Y536767D01*
X276033Y541529D01*
X282767Y541529D01*
X287529Y536767D01*
X287529Y530033D01*
X282767Y525271D01*
X276033Y525271D01*
G37*
%LPD*%
%LPC*%
G36*
X22033Y156971D02*
X22033Y156971D01*
X17271Y161733D01*
X17271Y168467D01*
X22033Y173229D01*
X28767Y173229D01*
X33529Y168467D01*
X33529Y161733D01*
X28767Y156971D01*
X22033Y156971D01*
G37*
%LPD*%
%LPC*%
G36*
X301433Y601471D02*
X301433Y601471D01*
X296671Y606233D01*
X296671Y612967D01*
X301433Y617729D01*
X308167Y617729D01*
X312929Y612967D01*
X312929Y606233D01*
X308167Y601471D01*
X301433Y601471D01*
G37*
%LPD*%
%LPC*%
G36*
X199833Y461771D02*
X199833Y461771D01*
X195071Y466533D01*
X195071Y473267D01*
X199833Y478029D01*
X206567Y478029D01*
X211329Y473267D01*
X211329Y466533D01*
X206567Y461771D01*
X199833Y461771D01*
G37*
%LPD*%
%LPC*%
G36*
X149033Y309371D02*
X149033Y309371D01*
X144271Y314133D01*
X144271Y320867D01*
X149033Y325629D01*
X155767Y325629D01*
X160529Y320867D01*
X160529Y314133D01*
X155767Y309371D01*
X149033Y309371D01*
G37*
%LPD*%
%LPC*%
G36*
X199833Y855471D02*
X199833Y855471D01*
X195071Y860233D01*
X195071Y866967D01*
X199833Y871729D01*
X206567Y871729D01*
X211329Y866967D01*
X211329Y860233D01*
X206567Y855471D01*
X199833Y855471D01*
G37*
%LPD*%
%LPC*%
G36*
X204323Y160123D02*
X204323Y160123D01*
X204323Y169523D01*
X211516Y169523D01*
X212163Y169350D01*
X212742Y169015D01*
X213215Y168542D01*
X213550Y167963D01*
X213723Y167316D01*
X213723Y160123D01*
X204323Y160123D01*
G37*
%LPD*%
%LPC*%
G36*
X204323Y147677D02*
X204323Y147677D01*
X204323Y157077D01*
X213723Y157077D01*
X213723Y149884D01*
X213550Y149237D01*
X213215Y148658D01*
X212742Y148185D01*
X212163Y147850D01*
X211516Y147677D01*
X204323Y147677D01*
G37*
%LPD*%
%LPC*%
G36*
X191877Y160123D02*
X191877Y160123D01*
X191877Y167316D01*
X192050Y167963D01*
X192385Y168542D01*
X192858Y169015D01*
X193437Y169350D01*
X194084Y169523D01*
X201277Y169523D01*
X201277Y160123D01*
X191877Y160123D01*
G37*
%LPD*%
%LPC*%
G36*
X194084Y147677D02*
X194084Y147677D01*
X193437Y147850D01*
X192858Y148185D01*
X192385Y148658D01*
X192050Y149237D01*
X191877Y149884D01*
X191877Y157077D01*
X201277Y157077D01*
X201277Y147677D01*
X194084Y147677D01*
G37*
%LPD*%
%LPC*%
G36*
X299973Y649223D02*
X299973Y649223D01*
X299973Y658242D01*
X302817Y658242D01*
X308992Y652067D01*
X308992Y649223D01*
X299973Y649223D01*
G37*
%LPD*%
%LPC*%
G36*
X306323Y941323D02*
X306323Y941323D01*
X306323Y950342D01*
X309167Y950342D01*
X315342Y944167D01*
X315342Y941323D01*
X306323Y941323D01*
G37*
%LPD*%
%LPC*%
G36*
X287908Y649223D02*
X287908Y649223D01*
X287908Y652067D01*
X294083Y658242D01*
X296927Y658242D01*
X296927Y649223D01*
X287908Y649223D01*
G37*
%LPD*%
%LPC*%
G36*
X294258Y941323D02*
X294258Y941323D01*
X294258Y944167D01*
X300433Y950342D01*
X303277Y950342D01*
X303277Y941323D01*
X294258Y941323D01*
G37*
%LPD*%
%LPC*%
G36*
X306323Y929258D02*
X306323Y929258D01*
X306323Y938277D01*
X315342Y938277D01*
X315342Y935433D01*
X309167Y929258D01*
X306323Y929258D01*
G37*
%LPD*%
%LPC*%
G36*
X299973Y637158D02*
X299973Y637158D01*
X299973Y646177D01*
X308992Y646177D01*
X308992Y643333D01*
X302817Y637158D01*
X299973Y637158D01*
G37*
%LPD*%
%LPC*%
G36*
X300433Y929258D02*
X300433Y929258D01*
X294258Y935433D01*
X294258Y938277D01*
X303277Y938277D01*
X303277Y929258D01*
X300433Y929258D01*
G37*
%LPD*%
%LPC*%
G36*
X294083Y637158D02*
X294083Y637158D01*
X287908Y643333D01*
X287908Y646177D01*
X296927Y646177D01*
X296927Y637158D01*
X294083Y637158D01*
G37*
%LPD*%
%LPC*%
G36*
X306323Y879323D02*
X306323Y879323D01*
X306323Y888484D01*
X307327Y888325D01*
X308942Y887800D01*
X310455Y887029D01*
X311830Y886031D01*
X313031Y884830D01*
X314029Y883455D01*
X314800Y881942D01*
X315325Y880327D01*
X315484Y879323D01*
X306323Y879323D01*
G37*
%LPD*%
%LPC*%
G36*
X52323Y879323D02*
X52323Y879323D01*
X52323Y888484D01*
X53327Y888325D01*
X54942Y887800D01*
X56455Y887029D01*
X57830Y886031D01*
X59031Y884830D01*
X60029Y883455D01*
X60800Y881942D01*
X61325Y880327D01*
X61484Y879323D01*
X52323Y879323D01*
G37*
%LPD*%
%LPC*%
G36*
X306323Y511023D02*
X306323Y511023D01*
X306323Y520184D01*
X307327Y520025D01*
X308942Y519500D01*
X310455Y518729D01*
X311830Y517731D01*
X313031Y516530D01*
X314029Y515155D01*
X314800Y513642D01*
X315325Y512027D01*
X315484Y511023D01*
X306323Y511023D01*
G37*
%LPD*%
%LPC*%
G36*
X52323Y511023D02*
X52323Y511023D01*
X52323Y520184D01*
X53327Y520025D01*
X54942Y519500D01*
X56455Y518729D01*
X57830Y517731D01*
X59031Y516530D01*
X60029Y515155D01*
X60800Y513642D01*
X61325Y512027D01*
X61484Y511023D01*
X52323Y511023D01*
G37*
%LPD*%
%LPC*%
G36*
X306323Y142723D02*
X306323Y142723D01*
X306323Y151884D01*
X307327Y151725D01*
X308942Y151200D01*
X310455Y150429D01*
X311830Y149431D01*
X313031Y148230D01*
X314029Y146855D01*
X314800Y145342D01*
X315325Y143727D01*
X315484Y142723D01*
X306323Y142723D01*
G37*
%LPD*%
%LPC*%
G36*
X52323Y142723D02*
X52323Y142723D01*
X52323Y151884D01*
X53327Y151725D01*
X54942Y151200D01*
X56455Y150429D01*
X57830Y149431D01*
X59031Y148230D01*
X60029Y146855D01*
X60800Y145342D01*
X61325Y143727D01*
X61484Y142723D01*
X52323Y142723D01*
G37*
%LPD*%
%LPC*%
G36*
X52323Y876277D02*
X52323Y876277D01*
X61484Y876277D01*
X61325Y875273D01*
X60800Y873658D01*
X60029Y872145D01*
X59031Y870770D01*
X57830Y869569D01*
X56455Y868571D01*
X54942Y867800D01*
X53327Y867275D01*
X52323Y867116D01*
X52323Y876277D01*
G37*
%LPD*%
%LPC*%
G36*
X40116Y511023D02*
X40116Y511023D01*
X40275Y512027D01*
X40800Y513642D01*
X41571Y515155D01*
X42569Y516530D01*
X43770Y517731D01*
X45145Y518729D01*
X46658Y519500D01*
X48273Y520025D01*
X49277Y520184D01*
X49277Y511023D01*
X40116Y511023D01*
G37*
%LPD*%
%LPC*%
G36*
X52323Y507977D02*
X52323Y507977D01*
X61484Y507977D01*
X61325Y506973D01*
X60800Y505358D01*
X60029Y503845D01*
X59031Y502470D01*
X57830Y501269D01*
X56455Y500271D01*
X54942Y499500D01*
X53327Y498975D01*
X52323Y498816D01*
X52323Y507977D01*
G37*
%LPD*%
%LPC*%
G36*
X306323Y139677D02*
X306323Y139677D01*
X315484Y139677D01*
X315325Y138673D01*
X314800Y137058D01*
X314029Y135545D01*
X313031Y134170D01*
X311830Y132969D01*
X310455Y131971D01*
X308942Y131200D01*
X307327Y130675D01*
X306323Y130516D01*
X306323Y139677D01*
G37*
%LPD*%
%LPC*%
G36*
X294116Y511023D02*
X294116Y511023D01*
X294275Y512027D01*
X294800Y513642D01*
X295571Y515155D01*
X296569Y516530D01*
X297770Y517731D01*
X299145Y518729D01*
X300658Y519500D01*
X302273Y520025D01*
X303277Y520184D01*
X303277Y511023D01*
X294116Y511023D01*
G37*
%LPD*%
%LPC*%
G36*
X306323Y507977D02*
X306323Y507977D01*
X315484Y507977D01*
X315325Y506973D01*
X314800Y505358D01*
X314029Y503845D01*
X313031Y502470D01*
X311830Y501269D01*
X310455Y500271D01*
X308942Y499500D01*
X307327Y498975D01*
X306323Y498816D01*
X306323Y507977D01*
G37*
%LPD*%
%LPC*%
G36*
X52323Y139677D02*
X52323Y139677D01*
X61484Y139677D01*
X61325Y138673D01*
X60800Y137058D01*
X60029Y135545D01*
X59031Y134170D01*
X57830Y132969D01*
X56455Y131971D01*
X54942Y131200D01*
X53327Y130675D01*
X52323Y130516D01*
X52323Y139677D01*
G37*
%LPD*%
%LPC*%
G36*
X306323Y876277D02*
X306323Y876277D01*
X315484Y876277D01*
X315325Y875273D01*
X314800Y873658D01*
X314029Y872145D01*
X313031Y870770D01*
X311830Y869569D01*
X310455Y868571D01*
X308942Y867800D01*
X307327Y867275D01*
X306323Y867116D01*
X306323Y876277D01*
G37*
%LPD*%
%LPC*%
G36*
X294116Y879323D02*
X294116Y879323D01*
X294275Y880327D01*
X294800Y881942D01*
X295571Y883455D01*
X296569Y884830D01*
X297770Y886031D01*
X299145Y887029D01*
X300658Y887800D01*
X302273Y888325D01*
X303277Y888484D01*
X303277Y879323D01*
X294116Y879323D01*
G37*
%LPD*%
%LPC*%
G36*
X40116Y879323D02*
X40116Y879323D01*
X40275Y880327D01*
X40800Y881942D01*
X41571Y883455D01*
X42569Y884830D01*
X43770Y886031D01*
X45145Y887029D01*
X46658Y887800D01*
X48273Y888325D01*
X49277Y888484D01*
X49277Y879323D01*
X40116Y879323D01*
G37*
%LPD*%
%LPC*%
G36*
X40116Y142723D02*
X40116Y142723D01*
X40275Y143727D01*
X40800Y145342D01*
X41571Y146855D01*
X42569Y148230D01*
X43770Y149431D01*
X45145Y150429D01*
X46658Y151200D01*
X48273Y151725D01*
X49277Y151884D01*
X49277Y142723D01*
X40116Y142723D01*
G37*
%LPD*%
%LPC*%
G36*
X294116Y142723D02*
X294116Y142723D01*
X294275Y143727D01*
X294800Y145342D01*
X295571Y146855D01*
X296569Y148230D01*
X297770Y149431D01*
X299145Y150429D01*
X300658Y151200D01*
X302273Y151725D01*
X303277Y151884D01*
X303277Y142723D01*
X294116Y142723D01*
G37*
%LPD*%
%LPC*%
G36*
X48273Y498975D02*
X48273Y498975D01*
X46658Y499500D01*
X45145Y500271D01*
X43770Y501269D01*
X42569Y502470D01*
X41571Y503845D01*
X40800Y505358D01*
X40275Y506973D01*
X40116Y507977D01*
X49277Y507977D01*
X49277Y498816D01*
X48273Y498975D01*
G37*
%LPD*%
%LPC*%
G36*
X302273Y130675D02*
X302273Y130675D01*
X300658Y131200D01*
X299145Y131971D01*
X297770Y132969D01*
X296569Y134170D01*
X295571Y135545D01*
X294800Y137058D01*
X294275Y138673D01*
X294116Y139677D01*
X303277Y139677D01*
X303277Y130516D01*
X302273Y130675D01*
G37*
%LPD*%
%LPC*%
G36*
X302273Y867275D02*
X302273Y867275D01*
X300658Y867800D01*
X299145Y868571D01*
X297770Y869569D01*
X296569Y870770D01*
X295571Y872145D01*
X294800Y873658D01*
X294275Y875273D01*
X294116Y876277D01*
X303277Y876277D01*
X303277Y867116D01*
X302273Y867275D01*
G37*
%LPD*%
%LPC*%
G36*
X48273Y130675D02*
X48273Y130675D01*
X46658Y131200D01*
X45145Y131971D01*
X43770Y132969D01*
X42569Y134170D01*
X41571Y135545D01*
X40800Y137058D01*
X40275Y138673D01*
X40116Y139677D01*
X49277Y139677D01*
X49277Y130516D01*
X48273Y130675D01*
G37*
%LPD*%
%LPC*%
G36*
X48273Y867275D02*
X48273Y867275D01*
X46658Y867800D01*
X45145Y868571D01*
X43770Y869569D01*
X42569Y870770D01*
X41571Y872145D01*
X40800Y873658D01*
X40275Y875273D01*
X40116Y876277D01*
X49277Y876277D01*
X49277Y867116D01*
X48273Y867275D01*
G37*
%LPD*%
%LPC*%
G36*
X302273Y498975D02*
X302273Y498975D01*
X300658Y499500D01*
X299145Y500271D01*
X297770Y501269D01*
X296569Y502470D01*
X295571Y503845D01*
X294800Y505358D01*
X294275Y506973D01*
X294116Y507977D01*
X303277Y507977D01*
X303277Y498816D01*
X302273Y498975D01*
G37*
%LPD*%
%LPC*%
G36*
X319023Y719073D02*
X319023Y719073D01*
X319023Y727982D01*
X319968Y727832D01*
X321547Y727319D01*
X323025Y726566D01*
X324367Y725591D01*
X325541Y724417D01*
X326516Y723075D01*
X327269Y721597D01*
X327782Y720018D01*
X327932Y719073D01*
X319023Y719073D01*
G37*
%LPD*%
%LPC*%
G36*
X319023Y716027D02*
X319023Y716027D01*
X327932Y716027D01*
X327782Y715082D01*
X327269Y713503D01*
X326516Y712025D01*
X325541Y710683D01*
X324367Y709509D01*
X323025Y708534D01*
X321547Y707781D01*
X319968Y707268D01*
X319023Y707118D01*
X319023Y716027D01*
G37*
%LPD*%
%LPC*%
G36*
X307068Y719073D02*
X307068Y719073D01*
X307218Y720018D01*
X307731Y721597D01*
X308484Y723075D01*
X309459Y724417D01*
X310633Y725591D01*
X311975Y726566D01*
X313453Y727319D01*
X315032Y727832D01*
X315977Y727982D01*
X315977Y719073D01*
X307068Y719073D01*
G37*
%LPD*%
%LPC*%
G36*
X315032Y707268D02*
X315032Y707268D01*
X313453Y707781D01*
X311975Y708534D01*
X310633Y709509D01*
X309459Y710683D01*
X308484Y712025D01*
X307731Y713503D01*
X307218Y715082D01*
X307068Y716027D01*
X315977Y716027D01*
X315977Y707118D01*
X315032Y707268D01*
G37*
%LPD*%
%LPC*%
G36*
X65023Y604773D02*
X65023Y604773D01*
X65023Y612903D01*
X67498Y612903D01*
X73153Y607248D01*
X73153Y604773D01*
X65023Y604773D01*
G37*
%LPD*%
%LPC*%
G36*
X39623Y630173D02*
X39623Y630173D01*
X39623Y638303D01*
X42098Y638303D01*
X47753Y632648D01*
X47753Y630173D01*
X39623Y630173D01*
G37*
%LPD*%
%LPC*%
G36*
X65023Y630173D02*
X65023Y630173D01*
X65023Y638303D01*
X67498Y638303D01*
X73153Y632648D01*
X73153Y630173D01*
X65023Y630173D01*
G37*
%LPD*%
%LPC*%
G36*
X65023Y655573D02*
X65023Y655573D01*
X65023Y663703D01*
X67498Y663703D01*
X73153Y658048D01*
X73153Y655573D01*
X65023Y655573D01*
G37*
%LPD*%
%LPC*%
G36*
X39623Y655573D02*
X39623Y655573D01*
X39623Y663703D01*
X42098Y663703D01*
X47753Y658048D01*
X47753Y655573D01*
X39623Y655573D01*
G37*
%LPD*%
%LPC*%
G36*
X39623Y604773D02*
X39623Y604773D01*
X39623Y612903D01*
X42098Y612903D01*
X47753Y607248D01*
X47753Y604773D01*
X39623Y604773D01*
G37*
%LPD*%
%LPC*%
G36*
X28447Y630173D02*
X28447Y630173D01*
X28447Y632648D01*
X34102Y638303D01*
X36577Y638303D01*
X36577Y630173D01*
X28447Y630173D01*
G37*
%LPD*%
%LPC*%
G36*
X53847Y630173D02*
X53847Y630173D01*
X53847Y632648D01*
X59502Y638303D01*
X61977Y638303D01*
X61977Y630173D01*
X53847Y630173D01*
G37*
%LPD*%
%LPC*%
G36*
X53847Y604773D02*
X53847Y604773D01*
X53847Y607248D01*
X59502Y612903D01*
X61977Y612903D01*
X61977Y604773D01*
X53847Y604773D01*
G37*
%LPD*%
%LPC*%
G36*
X28447Y604773D02*
X28447Y604773D01*
X28447Y607248D01*
X34102Y612903D01*
X36577Y612903D01*
X36577Y604773D01*
X28447Y604773D01*
G37*
%LPD*%
%LPC*%
G36*
X53847Y655573D02*
X53847Y655573D01*
X53847Y658048D01*
X59502Y663703D01*
X61977Y663703D01*
X61977Y655573D01*
X53847Y655573D01*
G37*
%LPD*%
%LPC*%
G36*
X28447Y655573D02*
X28447Y655573D01*
X28447Y658048D01*
X34102Y663703D01*
X36577Y663703D01*
X36577Y655573D01*
X28447Y655573D01*
G37*
%LPD*%
%LPC*%
G36*
X39623Y593597D02*
X39623Y593597D01*
X39623Y601727D01*
X47753Y601727D01*
X47753Y599252D01*
X42098Y593597D01*
X39623Y593597D01*
G37*
%LPD*%
%LPC*%
G36*
X65023Y593597D02*
X65023Y593597D01*
X65023Y601727D01*
X73153Y601727D01*
X73153Y599252D01*
X67498Y593597D01*
X65023Y593597D01*
G37*
%LPD*%
%LPC*%
G36*
X39623Y618997D02*
X39623Y618997D01*
X39623Y627127D01*
X47753Y627127D01*
X47753Y624652D01*
X42098Y618997D01*
X39623Y618997D01*
G37*
%LPD*%
%LPC*%
G36*
X65023Y618997D02*
X65023Y618997D01*
X65023Y627127D01*
X73153Y627127D01*
X73153Y624652D01*
X67498Y618997D01*
X65023Y618997D01*
G37*
%LPD*%
%LPC*%
G36*
X65023Y644397D02*
X65023Y644397D01*
X65023Y652527D01*
X73153Y652527D01*
X73153Y650052D01*
X67498Y644397D01*
X65023Y644397D01*
G37*
%LPD*%
%LPC*%
G36*
X39623Y644397D02*
X39623Y644397D01*
X39623Y652527D01*
X47753Y652527D01*
X47753Y650052D01*
X42098Y644397D01*
X39623Y644397D01*
G37*
%LPD*%
%LPC*%
G36*
X59502Y593597D02*
X59502Y593597D01*
X53847Y599252D01*
X53847Y601727D01*
X61977Y601727D01*
X61977Y593597D01*
X59502Y593597D01*
G37*
%LPD*%
%LPC*%
G36*
X59502Y618997D02*
X59502Y618997D01*
X53847Y624652D01*
X53847Y627127D01*
X61977Y627127D01*
X61977Y618997D01*
X59502Y618997D01*
G37*
%LPD*%
%LPC*%
G36*
X34102Y593597D02*
X34102Y593597D01*
X28447Y599252D01*
X28447Y601727D01*
X36577Y601727D01*
X36577Y593597D01*
X34102Y593597D01*
G37*
%LPD*%
%LPC*%
G36*
X34102Y618997D02*
X34102Y618997D01*
X28447Y624652D01*
X28447Y627127D01*
X36577Y627127D01*
X36577Y618997D01*
X34102Y618997D01*
G37*
%LPD*%
%LPC*%
G36*
X34102Y644397D02*
X34102Y644397D01*
X28447Y650052D01*
X28447Y652527D01*
X36577Y652527D01*
X36577Y644397D01*
X34102Y644397D01*
G37*
%LPD*%
%LPC*%
G36*
X59502Y644397D02*
X59502Y644397D01*
X53847Y650052D01*
X53847Y652527D01*
X61977Y652527D01*
X61977Y644397D01*
X59502Y644397D01*
G37*
%LPD*%
%LPC*%
G36*
X204723Y319023D02*
X204723Y319023D01*
X204723Y326645D01*
X206988Y326645D01*
X212345Y321288D01*
X212345Y319023D01*
X204723Y319023D01*
G37*
%LPD*%
%LPC*%
G36*
X204723Y712723D02*
X204723Y712723D01*
X204723Y720345D01*
X206988Y720345D01*
X212345Y714988D01*
X212345Y712723D01*
X204723Y712723D01*
G37*
%LPD*%
%LPC*%
G36*
X153923Y471423D02*
X153923Y471423D01*
X153923Y479045D01*
X156188Y479045D01*
X161545Y473688D01*
X161545Y471423D01*
X153923Y471423D01*
G37*
%LPD*%
%LPC*%
G36*
X153923Y865123D02*
X153923Y865123D01*
X153923Y872745D01*
X156188Y872745D01*
X161545Y867388D01*
X161545Y865123D01*
X153923Y865123D01*
G37*
%LPD*%
%LPC*%
G36*
X255523Y192023D02*
X255523Y192023D01*
X255523Y199645D01*
X257788Y199645D01*
X263145Y194288D01*
X263145Y192023D01*
X255523Y192023D01*
G37*
%LPD*%
%LPC*%
G36*
X103123Y217423D02*
X103123Y217423D01*
X103123Y225045D01*
X105388Y225045D01*
X110745Y219688D01*
X110745Y217423D01*
X103123Y217423D01*
G37*
%LPD*%
%LPC*%
G36*
X204723Y20573D02*
X204723Y20573D01*
X204723Y28195D01*
X206988Y28195D01*
X212345Y22838D01*
X212345Y20573D01*
X204723Y20573D01*
G37*
%LPD*%
%LPC*%
G36*
X194055Y20573D02*
X194055Y20573D01*
X194055Y22838D01*
X199412Y28195D01*
X201677Y28195D01*
X201677Y20573D01*
X194055Y20573D01*
G37*
%LPD*%
%LPC*%
G36*
X194055Y319023D02*
X194055Y319023D01*
X194055Y321288D01*
X199412Y326645D01*
X201677Y326645D01*
X201677Y319023D01*
X194055Y319023D01*
G37*
%LPD*%
%LPC*%
G36*
X92455Y217423D02*
X92455Y217423D01*
X92455Y219688D01*
X97812Y225045D01*
X100077Y225045D01*
X100077Y217423D01*
X92455Y217423D01*
G37*
%LPD*%
%LPC*%
G36*
X143255Y471423D02*
X143255Y471423D01*
X143255Y473688D01*
X148612Y479045D01*
X150877Y479045D01*
X150877Y471423D01*
X143255Y471423D01*
G37*
%LPD*%
%LPC*%
G36*
X143255Y865123D02*
X143255Y865123D01*
X143255Y867388D01*
X148612Y872745D01*
X150877Y872745D01*
X150877Y865123D01*
X143255Y865123D01*
G37*
%LPD*%
%LPC*%
G36*
X194055Y712723D02*
X194055Y712723D01*
X194055Y714988D01*
X199412Y720345D01*
X201677Y720345D01*
X201677Y712723D01*
X194055Y712723D01*
G37*
%LPD*%
%LPC*%
G36*
X153923Y854455D02*
X153923Y854455D01*
X153923Y862077D01*
X161545Y862077D01*
X161545Y859812D01*
X156188Y854455D01*
X153923Y854455D01*
G37*
%LPD*%
%LPC*%
G36*
X153923Y460755D02*
X153923Y460755D01*
X153923Y468377D01*
X161545Y468377D01*
X161545Y466112D01*
X156188Y460755D01*
X153923Y460755D01*
G37*
%LPD*%
%LPC*%
G36*
X244855Y192023D02*
X244855Y192023D01*
X244855Y194288D01*
X250212Y199645D01*
X252477Y199645D01*
X252477Y192023D01*
X244855Y192023D01*
G37*
%LPD*%
%LPC*%
G36*
X103123Y206755D02*
X103123Y206755D01*
X103123Y214377D01*
X110745Y214377D01*
X110745Y212112D01*
X105388Y206755D01*
X103123Y206755D01*
G37*
%LPD*%
%LPC*%
G36*
X204723Y702055D02*
X204723Y702055D01*
X204723Y709677D01*
X212345Y709677D01*
X212345Y707412D01*
X206988Y702055D01*
X204723Y702055D01*
G37*
%LPD*%
%LPC*%
G36*
X255523Y181355D02*
X255523Y181355D01*
X255523Y188977D01*
X263145Y188977D01*
X263145Y186712D01*
X257788Y181355D01*
X255523Y181355D01*
G37*
%LPD*%
%LPC*%
G36*
X204723Y308355D02*
X204723Y308355D01*
X204723Y315977D01*
X212345Y315977D01*
X212345Y313712D01*
X206988Y308355D01*
X204723Y308355D01*
G37*
%LPD*%
%LPC*%
G36*
X250212Y181355D02*
X250212Y181355D01*
X244855Y186712D01*
X244855Y188977D01*
X252477Y188977D01*
X252477Y181355D01*
X250212Y181355D01*
G37*
%LPD*%
%LPC*%
G36*
X148612Y460755D02*
X148612Y460755D01*
X143255Y466112D01*
X143255Y468377D01*
X150877Y468377D01*
X150877Y460755D01*
X148612Y460755D01*
G37*
%LPD*%
%LPC*%
G36*
X148612Y854455D02*
X148612Y854455D01*
X143255Y859812D01*
X143255Y862077D01*
X150877Y862077D01*
X150877Y854455D01*
X148612Y854455D01*
G37*
%LPD*%
%LPC*%
G36*
X97812Y206755D02*
X97812Y206755D01*
X92455Y212112D01*
X92455Y214377D01*
X100077Y214377D01*
X100077Y206755D01*
X97812Y206755D01*
G37*
%LPD*%
%LPC*%
G36*
X199412Y702055D02*
X199412Y702055D01*
X194055Y707412D01*
X194055Y709677D01*
X201677Y709677D01*
X201677Y702055D01*
X199412Y702055D01*
G37*
%LPD*%
%LPC*%
G36*
X199412Y308355D02*
X199412Y308355D01*
X194055Y313712D01*
X194055Y315977D01*
X201677Y315977D01*
X201677Y308355D01*
X199412Y308355D01*
G37*
%LPD*%
%LPC*%
G36*
X50799Y509499D02*
X50799Y509499D01*
X50799Y509501D01*
X50801Y509501D01*
X50801Y509499D01*
X50799Y509499D01*
G37*
%LPD*%
%LPC*%
G36*
X203199Y317499D02*
X203199Y317499D01*
X203199Y317501D01*
X203201Y317501D01*
X203201Y317499D01*
X203199Y317499D01*
G37*
%LPD*%
%LPC*%
G36*
X202799Y158599D02*
X202799Y158599D01*
X202799Y158601D01*
X202801Y158601D01*
X202801Y158599D01*
X202799Y158599D01*
G37*
%LPD*%
%LPC*%
G36*
X63499Y654049D02*
X63499Y654049D01*
X63499Y654051D01*
X63501Y654051D01*
X63501Y654049D01*
X63499Y654049D01*
G37*
%LPD*%
%LPC*%
G36*
X298449Y647699D02*
X298449Y647699D01*
X298449Y647701D01*
X298451Y647701D01*
X298451Y647699D01*
X298449Y647699D01*
G37*
%LPD*%
%LPC*%
G36*
X253999Y190499D02*
X253999Y190499D01*
X253999Y190501D01*
X254001Y190501D01*
X254001Y190499D01*
X253999Y190499D01*
G37*
%LPD*%
%LPC*%
G36*
X203199Y711199D02*
X203199Y711199D01*
X203199Y711201D01*
X203201Y711201D01*
X203201Y711199D01*
X203199Y711199D01*
G37*
%LPD*%
%LPC*%
G36*
X50799Y141199D02*
X50799Y141199D01*
X50799Y141201D01*
X50801Y141201D01*
X50801Y141199D01*
X50799Y141199D01*
G37*
%LPD*%
%LPC*%
G36*
X304799Y141199D02*
X304799Y141199D01*
X304799Y141201D01*
X304801Y141201D01*
X304801Y141199D01*
X304799Y141199D01*
G37*
%LPD*%
%LPC*%
G36*
X317499Y717549D02*
X317499Y717549D01*
X317499Y717551D01*
X317501Y717551D01*
X317501Y717549D01*
X317499Y717549D01*
G37*
%LPD*%
%LPC*%
G36*
X63499Y603249D02*
X63499Y603249D01*
X63499Y603251D01*
X63501Y603251D01*
X63501Y603249D01*
X63499Y603249D01*
G37*
%LPD*%
%LPC*%
G36*
X304799Y509499D02*
X304799Y509499D01*
X304799Y509501D01*
X304801Y509501D01*
X304801Y509499D01*
X304799Y509499D01*
G37*
%LPD*%
%LPC*%
G36*
X63499Y628649D02*
X63499Y628649D01*
X63499Y628651D01*
X63501Y628651D01*
X63501Y628649D01*
X63499Y628649D01*
G37*
%LPD*%
%LPC*%
G36*
X38099Y628649D02*
X38099Y628649D01*
X38099Y628651D01*
X38101Y628651D01*
X38101Y628649D01*
X38099Y628649D01*
G37*
%LPD*%
%LPC*%
G36*
X152399Y863599D02*
X152399Y863599D01*
X152399Y863601D01*
X152401Y863601D01*
X152401Y863599D01*
X152399Y863599D01*
G37*
%LPD*%
%LPC*%
G36*
X101599Y215899D02*
X101599Y215899D01*
X101599Y215901D01*
X101601Y215901D01*
X101601Y215899D01*
X101599Y215899D01*
G37*
%LPD*%
%LPC*%
G36*
X38099Y603249D02*
X38099Y603249D01*
X38099Y603251D01*
X38101Y603251D01*
X38101Y603249D01*
X38099Y603249D01*
G37*
%LPD*%
%LPC*%
G36*
X50799Y877799D02*
X50799Y877799D01*
X50799Y877801D01*
X50801Y877801D01*
X50801Y877799D01*
X50799Y877799D01*
G37*
%LPD*%
%LPC*%
G36*
X304799Y877799D02*
X304799Y877799D01*
X304799Y877801D01*
X304801Y877801D01*
X304801Y877799D01*
X304799Y877799D01*
G37*
%LPD*%
%LPC*%
G36*
X304799Y939799D02*
X304799Y939799D01*
X304799Y939801D01*
X304801Y939801D01*
X304801Y939799D01*
X304799Y939799D01*
G37*
%LPD*%
%LPC*%
G36*
X152399Y469899D02*
X152399Y469899D01*
X152399Y469901D01*
X152401Y469901D01*
X152401Y469899D01*
X152399Y469899D01*
G37*
%LPD*%
%LPC*%
G36*
X38099Y654049D02*
X38099Y654049D01*
X38099Y654051D01*
X38101Y654051D01*
X38101Y654049D01*
X38099Y654049D01*
G37*
%LPD*%
D10*
X221940Y749300D02*
X209860Y749300D01*
X209860Y774700D02*
X221940Y774700D01*
X221940Y800100D02*
X209860Y800100D01*
X209860Y825500D02*
X221940Y825500D01*
X145740Y825500D02*
X133660Y825500D01*
X133660Y800100D02*
X145740Y800100D01*
X145740Y774700D02*
X133660Y774700D01*
X133660Y749300D02*
X145740Y749300D01*
X209860Y50800D02*
X221940Y50800D01*
X221940Y76200D02*
X209860Y76200D01*
X209860Y101600D02*
X221940Y101600D01*
X221940Y127000D02*
X209860Y127000D01*
X145740Y127000D02*
X133660Y127000D01*
X133660Y101600D02*
X145740Y101600D01*
X145740Y76200D02*
X133660Y76200D01*
X133660Y50800D02*
X145740Y50800D01*
X209860Y355600D02*
X221940Y355600D01*
X221940Y381000D02*
X209860Y381000D01*
X209860Y406400D02*
X221940Y406400D01*
X221940Y431800D02*
X209860Y431800D01*
X145740Y431800D02*
X133660Y431800D01*
X133660Y406400D02*
X145740Y406400D01*
X145740Y381000D02*
X133660Y381000D01*
X133660Y355600D02*
X145740Y355600D01*
D11*
X50800Y762800D03*
X50800Y847800D03*
X50800Y877800D03*
X50800Y26200D03*
X50800Y111200D03*
X50800Y141200D03*
X304800Y762800D03*
X304800Y847800D03*
X304800Y877800D03*
X304800Y26200D03*
X304800Y111200D03*
X304800Y141200D03*
X50800Y394500D03*
X50800Y479500D03*
X50800Y509500D03*
X304800Y394500D03*
X304800Y479500D03*
X304800Y509500D03*
D12*
X202800Y895200D03*
D13*
X177800Y895200D03*
X152800Y895200D03*
D14*
X132800Y965200D03*
X222800Y965200D03*
D12*
X202800Y158600D03*
D13*
X177800Y158600D03*
X152800Y158600D03*
D14*
X132800Y228600D03*
X222800Y228600D03*
D12*
X202800Y526900D03*
D13*
X177800Y526900D03*
X152800Y526900D03*
D14*
X132800Y596900D03*
X222800Y596900D03*
D15*
X304800Y939800D03*
D16*
X279400Y939800D03*
D17*
X114300Y800100D03*
X114300Y723900D03*
D18*
X25400Y190500D03*
X101600Y190500D03*
D19*
X101600Y215900D03*
X25400Y215900D03*
X101600Y165100D03*
X25400Y165100D03*
X330200Y342900D03*
X254000Y342900D03*
X330200Y292100D03*
X254000Y292100D03*
X330200Y317500D03*
X254000Y317500D03*
D17*
X279400Y609600D03*
X279400Y533400D03*
D20*
X304800Y533400D03*
X304800Y609600D03*
D19*
X114300Y330200D03*
X38100Y330200D03*
D18*
X152400Y711200D03*
X203200Y711200D03*
D19*
X203200Y863600D03*
X152400Y863600D03*
D20*
X254000Y139700D03*
X254000Y190500D03*
D18*
X152400Y19050D03*
X203200Y19050D03*
X152400Y317500D03*
X203200Y317500D03*
D19*
X203200Y469900D03*
X152400Y469900D03*
D21*
X38100Y679450D03*
X63500Y679450D03*
X38100Y654050D03*
X63500Y654050D03*
X38100Y628650D03*
X63500Y628650D03*
X38100Y603250D03*
X63500Y603250D03*
X38100Y577850D03*
X63500Y577850D03*
D22*
X317500Y692150D03*
D16*
X317500Y717550D03*
D15*
X298450Y647700D03*
D16*
X273050Y647700D03*
D23*
X152400Y736600D02*
X139700Y749300D01*
X152400Y736600D02*
X152400Y711200D01*
X152400Y673100D01*
X165100Y660400D01*
X165100Y635000D01*
D24*
X165100Y635000D03*
D25*
X139700Y774700D02*
X139700Y800100D01*
X114300Y800100D01*
X215900Y76200D02*
X215900Y50800D01*
X190500Y101600D02*
X190500Y114300D01*
X190500Y101600D02*
X215900Y76200D01*
X190500Y114300D02*
X152400Y152400D01*
X152400Y158600D01*
X152800Y158600D01*
X25400Y190500D02*
X25400Y215900D01*
X25400Y190500D02*
X50800Y190500D01*
X139700Y101600D01*
X101600Y165100D02*
X101600Y190500D01*
X139700Y406400D02*
X165100Y406400D01*
X177800Y393700D01*
X177800Y361950D01*
X234950Y336550D02*
X254000Y317500D01*
X234950Y336550D02*
X203200Y336550D01*
X177800Y361950D01*
X254000Y317500D02*
X266700Y317500D01*
X292100Y292100D01*
X330200Y292100D01*
X330200Y317500D02*
X292100Y317500D01*
X266700Y342900D01*
X254000Y342900D01*
X241300Y355600D02*
X215900Y355600D01*
X241300Y355600D02*
X254000Y342900D01*
X254000Y381000D02*
X215900Y381000D01*
X254000Y381000D02*
X292100Y342900D01*
X330200Y342900D01*
X127000Y381000D02*
X114300Y368300D01*
X127000Y381000D02*
X139700Y381000D01*
X114300Y368300D02*
X114300Y330200D01*
X152400Y292100D01*
X254000Y292100D01*
X177800Y444500D02*
X177800Y526900D01*
X177800Y444500D02*
X165100Y431800D01*
X139700Y431800D01*
X215900Y749300D02*
X215900Y774700D01*
X165100Y825500D02*
X139700Y825500D01*
X165100Y825500D02*
X177800Y838200D01*
X266700Y927100D02*
X279400Y939800D01*
X266700Y927100D02*
X190500Y927100D01*
X177800Y914400D01*
X177800Y895350D01*
X152800Y895200D01*
X177800Y895200D01*
X177800Y838200D01*
X304800Y762800D02*
X304800Y762000D01*
X266700Y762000D01*
X228600Y800100D01*
X215900Y800100D01*
X215900Y406400D02*
X292100Y406400D01*
X304800Y394500D01*
X228600Y101600D02*
X215900Y101600D01*
X228600Y101600D02*
X241300Y88900D01*
X241300Y38100D01*
X254000Y25400D01*
X304800Y26200D01*
X50800Y749300D02*
X50800Y762800D01*
X50800Y749300D02*
X76200Y723900D01*
X114300Y723900D01*
X304800Y482600D02*
X304800Y479500D01*
X304800Y482600D02*
X279400Y482600D01*
X177800Y584200D01*
X177800Y596900D01*
X114300Y660400D02*
X114300Y723900D01*
X114300Y660400D02*
X177800Y596900D01*
X50800Y394500D02*
X50800Y342900D01*
X38100Y330200D01*
X304800Y114300D02*
X304800Y111200D01*
X304800Y114300D02*
X279400Y139700D01*
X279400Y234950D01*
X234950Y279400D01*
X50800Y279400D01*
X38100Y292100D01*
X38100Y330200D01*
M02*
