G04 EAGLE Gerber RS-274X export*
G75*
%MOMM*%
%FSLAX34Y34*%
%LPD*%
%INSilkscreen Bottom*%
%IPPOS*%
%AMOC8*
5,1,8,0,0,1.08239X$1,22.5*%
G01*
%ADD10C,0.101600*%
%ADD11C,0.050800*%
%ADD12C,0.203200*%
%ADD13C,0.076200*%


D10*
X91228Y899047D02*
X89281Y899047D01*
X89281Y892556D01*
X93176Y892556D01*
X93275Y892558D01*
X93375Y892564D01*
X93474Y892573D01*
X93572Y892586D01*
X93670Y892603D01*
X93768Y892624D01*
X93864Y892649D01*
X93959Y892677D01*
X94053Y892709D01*
X94146Y892744D01*
X94238Y892783D01*
X94328Y892826D01*
X94416Y892871D01*
X94503Y892921D01*
X94587Y892973D01*
X94670Y893029D01*
X94750Y893087D01*
X94828Y893149D01*
X94903Y893214D01*
X94976Y893282D01*
X95046Y893352D01*
X95114Y893425D01*
X95179Y893500D01*
X95241Y893578D01*
X95299Y893658D01*
X95355Y893741D01*
X95407Y893825D01*
X95457Y893912D01*
X95502Y894000D01*
X95545Y894090D01*
X95584Y894182D01*
X95619Y894275D01*
X95651Y894369D01*
X95679Y894464D01*
X95704Y894560D01*
X95725Y894658D01*
X95742Y894756D01*
X95755Y894854D01*
X95764Y894953D01*
X95770Y895053D01*
X95772Y895152D01*
X95772Y901644D01*
X95770Y901743D01*
X95764Y901843D01*
X95755Y901942D01*
X95742Y902040D01*
X95725Y902138D01*
X95704Y902236D01*
X95679Y902332D01*
X95651Y902427D01*
X95619Y902521D01*
X95584Y902614D01*
X95545Y902706D01*
X95502Y902796D01*
X95457Y902884D01*
X95407Y902971D01*
X95355Y903055D01*
X95299Y903138D01*
X95241Y903218D01*
X95179Y903296D01*
X95114Y903371D01*
X95046Y903444D01*
X94976Y903514D01*
X94903Y903582D01*
X94828Y903647D01*
X94750Y903709D01*
X94670Y903767D01*
X94587Y903823D01*
X94503Y903875D01*
X94416Y903925D01*
X94328Y903970D01*
X94238Y904013D01*
X94146Y904052D01*
X94053Y904087D01*
X93959Y904119D01*
X93864Y904147D01*
X93768Y904172D01*
X93670Y904193D01*
X93572Y904210D01*
X93474Y904223D01*
X93375Y904232D01*
X93275Y904238D01*
X93176Y904240D01*
X89281Y904240D01*
X83557Y904240D02*
X83557Y892556D01*
X78365Y892556D01*
X73095Y892556D02*
X73095Y904240D01*
X74394Y892556D02*
X71797Y892556D01*
X71797Y904240D02*
X74394Y904240D01*
X66816Y904240D02*
X66816Y892556D01*
X66816Y904240D02*
X63570Y904240D01*
X63457Y904238D01*
X63344Y904232D01*
X63231Y904222D01*
X63118Y904208D01*
X63006Y904191D01*
X62895Y904169D01*
X62785Y904144D01*
X62675Y904114D01*
X62567Y904081D01*
X62460Y904044D01*
X62354Y904004D01*
X62250Y903959D01*
X62147Y903911D01*
X62046Y903860D01*
X61947Y903805D01*
X61850Y903747D01*
X61755Y903685D01*
X61662Y903620D01*
X61572Y903552D01*
X61484Y903481D01*
X61398Y903406D01*
X61315Y903329D01*
X61235Y903249D01*
X61158Y903166D01*
X61083Y903080D01*
X61012Y902992D01*
X60944Y902902D01*
X60879Y902809D01*
X60817Y902714D01*
X60759Y902617D01*
X60704Y902518D01*
X60653Y902417D01*
X60605Y902314D01*
X60560Y902210D01*
X60520Y902104D01*
X60483Y901997D01*
X60450Y901889D01*
X60420Y901779D01*
X60395Y901669D01*
X60373Y901558D01*
X60356Y901446D01*
X60342Y901333D01*
X60332Y901220D01*
X60326Y901107D01*
X60324Y900994D01*
X60325Y900994D02*
X60325Y895802D01*
X60324Y895802D02*
X60326Y895689D01*
X60332Y895576D01*
X60342Y895463D01*
X60356Y895350D01*
X60373Y895238D01*
X60395Y895127D01*
X60420Y895017D01*
X60450Y894907D01*
X60483Y894799D01*
X60520Y894692D01*
X60560Y894586D01*
X60605Y894482D01*
X60653Y894379D01*
X60704Y894278D01*
X60759Y894179D01*
X60817Y894082D01*
X60879Y893987D01*
X60944Y893894D01*
X61012Y893804D01*
X61083Y893716D01*
X61158Y893630D01*
X61235Y893547D01*
X61315Y893467D01*
X61398Y893390D01*
X61484Y893315D01*
X61572Y893244D01*
X61662Y893176D01*
X61755Y893111D01*
X61850Y893049D01*
X61947Y892991D01*
X62046Y892936D01*
X62147Y892885D01*
X62250Y892837D01*
X62354Y892792D01*
X62460Y892752D01*
X62567Y892715D01*
X62675Y892682D01*
X62785Y892652D01*
X62895Y892627D01*
X63006Y892605D01*
X63118Y892588D01*
X63231Y892574D01*
X63344Y892564D01*
X63457Y892558D01*
X63570Y892556D01*
X66816Y892556D01*
X54601Y892556D02*
X49409Y892556D01*
X54601Y892556D02*
X54601Y904240D01*
X49409Y904240D01*
X50707Y899047D02*
X54601Y899047D01*
X45593Y891258D02*
X40400Y891258D01*
X35955Y895802D02*
X35955Y900994D01*
X35953Y901107D01*
X35947Y901220D01*
X35937Y901333D01*
X35923Y901446D01*
X35906Y901558D01*
X35884Y901669D01*
X35859Y901779D01*
X35829Y901889D01*
X35796Y901997D01*
X35759Y902104D01*
X35719Y902210D01*
X35674Y902314D01*
X35626Y902417D01*
X35575Y902518D01*
X35520Y902617D01*
X35462Y902714D01*
X35400Y902809D01*
X35335Y902902D01*
X35267Y902992D01*
X35196Y903080D01*
X35121Y903166D01*
X35044Y903249D01*
X34964Y903329D01*
X34881Y903406D01*
X34795Y903481D01*
X34707Y903552D01*
X34617Y903620D01*
X34524Y903685D01*
X34429Y903747D01*
X34332Y903805D01*
X34233Y903860D01*
X34132Y903911D01*
X34029Y903959D01*
X33925Y904004D01*
X33819Y904044D01*
X33712Y904081D01*
X33604Y904114D01*
X33494Y904144D01*
X33384Y904169D01*
X33273Y904191D01*
X33161Y904208D01*
X33048Y904222D01*
X32935Y904232D01*
X32822Y904238D01*
X32709Y904240D01*
X32596Y904238D01*
X32483Y904232D01*
X32370Y904222D01*
X32257Y904208D01*
X32145Y904191D01*
X32034Y904169D01*
X31924Y904144D01*
X31814Y904114D01*
X31706Y904081D01*
X31599Y904044D01*
X31493Y904004D01*
X31389Y903959D01*
X31286Y903911D01*
X31185Y903860D01*
X31086Y903805D01*
X30989Y903747D01*
X30894Y903685D01*
X30801Y903620D01*
X30711Y903552D01*
X30623Y903481D01*
X30537Y903406D01*
X30454Y903329D01*
X30374Y903249D01*
X30297Y903166D01*
X30222Y903080D01*
X30151Y902992D01*
X30083Y902902D01*
X30018Y902809D01*
X29956Y902714D01*
X29898Y902617D01*
X29843Y902518D01*
X29792Y902417D01*
X29744Y902314D01*
X29699Y902210D01*
X29659Y902104D01*
X29622Y901997D01*
X29589Y901889D01*
X29559Y901779D01*
X29534Y901669D01*
X29512Y901558D01*
X29495Y901446D01*
X29481Y901333D01*
X29471Y901220D01*
X29465Y901107D01*
X29463Y900994D01*
X29464Y900994D02*
X29464Y895802D01*
X29463Y895802D02*
X29465Y895689D01*
X29471Y895576D01*
X29481Y895463D01*
X29495Y895350D01*
X29512Y895238D01*
X29534Y895127D01*
X29559Y895017D01*
X29589Y894907D01*
X29622Y894799D01*
X29659Y894692D01*
X29699Y894586D01*
X29744Y894482D01*
X29792Y894379D01*
X29843Y894278D01*
X29898Y894179D01*
X29956Y894082D01*
X30018Y893987D01*
X30083Y893894D01*
X30151Y893804D01*
X30222Y893716D01*
X30297Y893630D01*
X30374Y893547D01*
X30454Y893467D01*
X30537Y893390D01*
X30623Y893315D01*
X30711Y893244D01*
X30801Y893176D01*
X30894Y893111D01*
X30989Y893049D01*
X31086Y892991D01*
X31185Y892936D01*
X31286Y892885D01*
X31389Y892837D01*
X31493Y892792D01*
X31599Y892752D01*
X31706Y892715D01*
X31814Y892682D01*
X31924Y892652D01*
X32034Y892627D01*
X32145Y892605D01*
X32257Y892588D01*
X32370Y892574D01*
X32483Y892564D01*
X32596Y892558D01*
X32709Y892556D01*
X32822Y892558D01*
X32935Y892564D01*
X33048Y892574D01*
X33161Y892588D01*
X33273Y892605D01*
X33384Y892627D01*
X33494Y892652D01*
X33604Y892682D01*
X33712Y892715D01*
X33819Y892752D01*
X33925Y892792D01*
X34029Y892837D01*
X34132Y892885D01*
X34233Y892936D01*
X34332Y892991D01*
X34429Y893049D01*
X34524Y893111D01*
X34617Y893176D01*
X34707Y893244D01*
X34795Y893315D01*
X34881Y893390D01*
X34964Y893467D01*
X35044Y893547D01*
X35121Y893630D01*
X35196Y893716D01*
X35267Y893804D01*
X35335Y893894D01*
X35400Y893987D01*
X35462Y894082D01*
X35520Y894179D01*
X35575Y894278D01*
X35626Y894379D01*
X35674Y894482D01*
X35719Y894586D01*
X35759Y894692D01*
X35796Y894799D01*
X35829Y894907D01*
X35859Y895017D01*
X35884Y895127D01*
X35906Y895238D01*
X35923Y895350D01*
X35937Y895463D01*
X35947Y895576D01*
X35953Y895689D01*
X35955Y895802D01*
X24144Y895802D02*
X24144Y904240D01*
X24145Y895802D02*
X24143Y895689D01*
X24137Y895576D01*
X24127Y895463D01*
X24113Y895350D01*
X24096Y895238D01*
X24074Y895127D01*
X24049Y895017D01*
X24019Y894907D01*
X23986Y894799D01*
X23949Y894692D01*
X23909Y894586D01*
X23864Y894482D01*
X23816Y894379D01*
X23765Y894278D01*
X23710Y894179D01*
X23652Y894082D01*
X23590Y893987D01*
X23525Y893894D01*
X23457Y893804D01*
X23386Y893716D01*
X23311Y893630D01*
X23234Y893547D01*
X23154Y893467D01*
X23071Y893390D01*
X22985Y893315D01*
X22897Y893244D01*
X22807Y893176D01*
X22714Y893111D01*
X22619Y893049D01*
X22522Y892991D01*
X22423Y892936D01*
X22322Y892885D01*
X22219Y892837D01*
X22115Y892792D01*
X22009Y892752D01*
X21902Y892715D01*
X21794Y892682D01*
X21684Y892652D01*
X21574Y892627D01*
X21463Y892605D01*
X21351Y892588D01*
X21238Y892574D01*
X21125Y892564D01*
X21012Y892558D01*
X20899Y892556D01*
X20786Y892558D01*
X20673Y892564D01*
X20560Y892574D01*
X20447Y892588D01*
X20335Y892605D01*
X20224Y892627D01*
X20114Y892652D01*
X20004Y892682D01*
X19896Y892715D01*
X19789Y892752D01*
X19683Y892792D01*
X19579Y892837D01*
X19476Y892885D01*
X19375Y892936D01*
X19276Y892991D01*
X19179Y893049D01*
X19084Y893111D01*
X18991Y893176D01*
X18901Y893244D01*
X18813Y893315D01*
X18727Y893390D01*
X18644Y893467D01*
X18564Y893547D01*
X18487Y893630D01*
X18412Y893716D01*
X18341Y893804D01*
X18273Y893894D01*
X18208Y893987D01*
X18146Y894082D01*
X18088Y894179D01*
X18033Y894278D01*
X17982Y894379D01*
X17934Y894482D01*
X17889Y894586D01*
X17849Y894692D01*
X17812Y894799D01*
X17779Y894907D01*
X17749Y895017D01*
X17724Y895127D01*
X17702Y895238D01*
X17685Y895350D01*
X17671Y895463D01*
X17661Y895576D01*
X17655Y895689D01*
X17653Y895802D01*
X17653Y904240D01*
X9850Y904240D02*
X9850Y892556D01*
X13095Y904240D02*
X6604Y904240D01*
X102108Y18297D02*
X113792Y18297D01*
X102108Y18297D02*
X102108Y23489D01*
X102108Y28203D02*
X102108Y33395D01*
X102108Y28203D02*
X113792Y28203D01*
X113792Y33395D01*
X108599Y32097D02*
X108599Y28203D01*
X113792Y37056D02*
X102108Y40951D01*
X113792Y44845D01*
X102108Y49539D02*
X102108Y54731D01*
X102108Y49539D02*
X113792Y49539D01*
X113792Y54731D01*
X108599Y53433D02*
X108599Y49539D01*
X113792Y59445D02*
X102108Y59445D01*
X102108Y64637D01*
X100810Y68453D02*
X100810Y73646D01*
X105354Y78091D02*
X110546Y78091D01*
X110659Y78093D01*
X110772Y78099D01*
X110885Y78109D01*
X110998Y78123D01*
X111110Y78140D01*
X111221Y78162D01*
X111331Y78187D01*
X111441Y78217D01*
X111549Y78250D01*
X111656Y78287D01*
X111762Y78327D01*
X111866Y78372D01*
X111969Y78420D01*
X112070Y78471D01*
X112169Y78526D01*
X112266Y78584D01*
X112361Y78646D01*
X112454Y78711D01*
X112544Y78779D01*
X112632Y78850D01*
X112718Y78925D01*
X112801Y79002D01*
X112881Y79082D01*
X112958Y79165D01*
X113033Y79251D01*
X113104Y79339D01*
X113172Y79429D01*
X113237Y79522D01*
X113299Y79617D01*
X113357Y79714D01*
X113412Y79813D01*
X113463Y79914D01*
X113511Y80017D01*
X113556Y80121D01*
X113596Y80227D01*
X113633Y80334D01*
X113666Y80442D01*
X113696Y80552D01*
X113721Y80662D01*
X113743Y80773D01*
X113760Y80885D01*
X113774Y80998D01*
X113784Y81111D01*
X113790Y81224D01*
X113792Y81337D01*
X113790Y81450D01*
X113784Y81563D01*
X113774Y81676D01*
X113760Y81789D01*
X113743Y81901D01*
X113721Y82012D01*
X113696Y82122D01*
X113666Y82232D01*
X113633Y82340D01*
X113596Y82447D01*
X113556Y82553D01*
X113511Y82657D01*
X113463Y82760D01*
X113412Y82861D01*
X113357Y82960D01*
X113299Y83057D01*
X113237Y83152D01*
X113172Y83245D01*
X113104Y83335D01*
X113033Y83423D01*
X112958Y83509D01*
X112881Y83592D01*
X112801Y83672D01*
X112718Y83749D01*
X112632Y83824D01*
X112544Y83895D01*
X112454Y83963D01*
X112361Y84028D01*
X112266Y84090D01*
X112169Y84148D01*
X112070Y84203D01*
X111969Y84254D01*
X111866Y84302D01*
X111762Y84347D01*
X111656Y84387D01*
X111549Y84424D01*
X111441Y84457D01*
X111331Y84487D01*
X111221Y84512D01*
X111110Y84534D01*
X110998Y84551D01*
X110885Y84565D01*
X110772Y84575D01*
X110659Y84581D01*
X110546Y84583D01*
X110546Y84582D02*
X105354Y84582D01*
X105354Y84583D02*
X105241Y84581D01*
X105128Y84575D01*
X105015Y84565D01*
X104902Y84551D01*
X104790Y84534D01*
X104679Y84512D01*
X104569Y84487D01*
X104459Y84457D01*
X104351Y84424D01*
X104244Y84387D01*
X104138Y84347D01*
X104034Y84302D01*
X103931Y84254D01*
X103830Y84203D01*
X103731Y84148D01*
X103634Y84090D01*
X103539Y84028D01*
X103446Y83963D01*
X103356Y83895D01*
X103268Y83824D01*
X103182Y83749D01*
X103099Y83672D01*
X103019Y83592D01*
X102942Y83509D01*
X102867Y83423D01*
X102796Y83335D01*
X102728Y83245D01*
X102663Y83152D01*
X102601Y83057D01*
X102543Y82960D01*
X102488Y82861D01*
X102437Y82760D01*
X102389Y82657D01*
X102344Y82553D01*
X102304Y82447D01*
X102267Y82340D01*
X102234Y82232D01*
X102204Y82122D01*
X102179Y82012D01*
X102157Y81901D01*
X102140Y81789D01*
X102126Y81676D01*
X102116Y81563D01*
X102110Y81450D01*
X102108Y81337D01*
X102110Y81224D01*
X102116Y81111D01*
X102126Y80998D01*
X102140Y80885D01*
X102157Y80773D01*
X102179Y80662D01*
X102204Y80552D01*
X102234Y80442D01*
X102267Y80334D01*
X102304Y80227D01*
X102344Y80121D01*
X102389Y80017D01*
X102437Y79914D01*
X102488Y79813D01*
X102543Y79714D01*
X102601Y79617D01*
X102663Y79522D01*
X102728Y79429D01*
X102796Y79339D01*
X102867Y79251D01*
X102942Y79165D01*
X103019Y79082D01*
X103099Y79002D01*
X103182Y78925D01*
X103268Y78850D01*
X103356Y78779D01*
X103446Y78711D01*
X103539Y78646D01*
X103634Y78584D01*
X103731Y78526D01*
X103830Y78471D01*
X103931Y78420D01*
X104034Y78372D01*
X104138Y78327D01*
X104244Y78287D01*
X104351Y78250D01*
X104459Y78217D01*
X104569Y78187D01*
X104679Y78162D01*
X104790Y78140D01*
X104902Y78123D01*
X105015Y78109D01*
X105128Y78099D01*
X105241Y78093D01*
X105354Y78091D01*
X105354Y89902D02*
X113792Y89902D01*
X105354Y89901D02*
X105241Y89903D01*
X105128Y89909D01*
X105015Y89919D01*
X104902Y89933D01*
X104790Y89950D01*
X104679Y89972D01*
X104569Y89997D01*
X104459Y90027D01*
X104351Y90060D01*
X104244Y90097D01*
X104138Y90137D01*
X104034Y90182D01*
X103931Y90230D01*
X103830Y90281D01*
X103731Y90336D01*
X103634Y90394D01*
X103539Y90456D01*
X103446Y90521D01*
X103356Y90589D01*
X103268Y90660D01*
X103182Y90735D01*
X103099Y90812D01*
X103019Y90892D01*
X102942Y90975D01*
X102867Y91061D01*
X102796Y91149D01*
X102728Y91239D01*
X102663Y91332D01*
X102601Y91427D01*
X102543Y91524D01*
X102488Y91623D01*
X102437Y91724D01*
X102389Y91827D01*
X102344Y91931D01*
X102304Y92037D01*
X102267Y92144D01*
X102234Y92252D01*
X102204Y92362D01*
X102179Y92472D01*
X102157Y92583D01*
X102140Y92695D01*
X102126Y92808D01*
X102116Y92921D01*
X102110Y93034D01*
X102108Y93147D01*
X102110Y93260D01*
X102116Y93373D01*
X102126Y93486D01*
X102140Y93599D01*
X102157Y93711D01*
X102179Y93822D01*
X102204Y93932D01*
X102234Y94042D01*
X102267Y94150D01*
X102304Y94257D01*
X102344Y94363D01*
X102389Y94467D01*
X102437Y94570D01*
X102488Y94671D01*
X102543Y94770D01*
X102601Y94867D01*
X102663Y94962D01*
X102728Y95055D01*
X102796Y95145D01*
X102867Y95233D01*
X102942Y95319D01*
X103019Y95402D01*
X103099Y95482D01*
X103182Y95559D01*
X103268Y95634D01*
X103356Y95705D01*
X103446Y95773D01*
X103539Y95838D01*
X103634Y95900D01*
X103731Y95958D01*
X103830Y96013D01*
X103931Y96064D01*
X104034Y96112D01*
X104138Y96157D01*
X104244Y96197D01*
X104351Y96234D01*
X104459Y96267D01*
X104569Y96297D01*
X104679Y96322D01*
X104790Y96344D01*
X104902Y96361D01*
X105015Y96375D01*
X105128Y96385D01*
X105241Y96391D01*
X105354Y96393D01*
X113792Y96393D01*
X113792Y104196D02*
X102108Y104196D01*
X113792Y100951D02*
X113792Y107442D01*
X334264Y895999D02*
X336211Y895999D01*
X334264Y895999D02*
X334264Y889508D01*
X338159Y889508D01*
X338258Y889510D01*
X338358Y889516D01*
X338457Y889525D01*
X338555Y889538D01*
X338653Y889555D01*
X338751Y889576D01*
X338847Y889601D01*
X338942Y889629D01*
X339036Y889661D01*
X339129Y889696D01*
X339221Y889735D01*
X339311Y889778D01*
X339399Y889823D01*
X339486Y889873D01*
X339570Y889925D01*
X339653Y889981D01*
X339733Y890039D01*
X339811Y890101D01*
X339886Y890166D01*
X339959Y890234D01*
X340029Y890304D01*
X340097Y890377D01*
X340162Y890452D01*
X340224Y890530D01*
X340282Y890610D01*
X340338Y890693D01*
X340390Y890777D01*
X340440Y890864D01*
X340485Y890952D01*
X340528Y891042D01*
X340567Y891134D01*
X340602Y891227D01*
X340634Y891321D01*
X340662Y891416D01*
X340687Y891512D01*
X340708Y891610D01*
X340725Y891708D01*
X340738Y891806D01*
X340747Y891905D01*
X340753Y892005D01*
X340755Y892104D01*
X340755Y898596D01*
X340753Y898695D01*
X340747Y898795D01*
X340738Y898894D01*
X340725Y898992D01*
X340708Y899090D01*
X340687Y899188D01*
X340662Y899284D01*
X340634Y899379D01*
X340602Y899473D01*
X340567Y899566D01*
X340528Y899658D01*
X340485Y899748D01*
X340440Y899836D01*
X340390Y899923D01*
X340338Y900007D01*
X340282Y900090D01*
X340224Y900170D01*
X340162Y900248D01*
X340097Y900323D01*
X340029Y900396D01*
X339959Y900466D01*
X339886Y900534D01*
X339811Y900599D01*
X339733Y900661D01*
X339653Y900719D01*
X339570Y900775D01*
X339486Y900827D01*
X339399Y900877D01*
X339311Y900922D01*
X339221Y900965D01*
X339129Y901004D01*
X339036Y901039D01*
X338942Y901071D01*
X338847Y901099D01*
X338751Y901124D01*
X338653Y901145D01*
X338555Y901162D01*
X338457Y901175D01*
X338358Y901184D01*
X338258Y901190D01*
X338159Y901192D01*
X334264Y901192D01*
X328540Y901192D02*
X328540Y889508D01*
X323348Y889508D01*
X318079Y889508D02*
X318079Y901192D01*
X319377Y889508D02*
X316780Y889508D01*
X316780Y901192D02*
X319377Y901192D01*
X311799Y901192D02*
X311799Y889508D01*
X311799Y901192D02*
X308554Y901192D01*
X308441Y901190D01*
X308328Y901184D01*
X308215Y901174D01*
X308102Y901160D01*
X307990Y901143D01*
X307879Y901121D01*
X307769Y901096D01*
X307659Y901066D01*
X307551Y901033D01*
X307444Y900996D01*
X307338Y900956D01*
X307234Y900911D01*
X307131Y900863D01*
X307030Y900812D01*
X306931Y900757D01*
X306834Y900699D01*
X306739Y900637D01*
X306646Y900572D01*
X306556Y900504D01*
X306468Y900433D01*
X306382Y900358D01*
X306299Y900281D01*
X306219Y900201D01*
X306142Y900118D01*
X306067Y900032D01*
X305996Y899944D01*
X305928Y899854D01*
X305863Y899761D01*
X305801Y899666D01*
X305743Y899569D01*
X305688Y899470D01*
X305637Y899369D01*
X305589Y899266D01*
X305544Y899162D01*
X305504Y899056D01*
X305467Y898949D01*
X305434Y898841D01*
X305404Y898731D01*
X305379Y898621D01*
X305357Y898510D01*
X305340Y898398D01*
X305326Y898285D01*
X305316Y898172D01*
X305310Y898059D01*
X305308Y897946D01*
X305308Y892754D01*
X305310Y892641D01*
X305316Y892528D01*
X305326Y892415D01*
X305340Y892302D01*
X305357Y892190D01*
X305379Y892079D01*
X305404Y891969D01*
X305434Y891859D01*
X305467Y891751D01*
X305504Y891644D01*
X305544Y891538D01*
X305589Y891434D01*
X305637Y891331D01*
X305688Y891230D01*
X305743Y891131D01*
X305801Y891034D01*
X305863Y890939D01*
X305928Y890846D01*
X305996Y890756D01*
X306067Y890668D01*
X306142Y890582D01*
X306219Y890499D01*
X306299Y890419D01*
X306382Y890342D01*
X306468Y890267D01*
X306556Y890196D01*
X306646Y890128D01*
X306739Y890063D01*
X306834Y890001D01*
X306931Y889943D01*
X307030Y889888D01*
X307131Y889837D01*
X307234Y889789D01*
X307338Y889744D01*
X307444Y889704D01*
X307551Y889667D01*
X307659Y889634D01*
X307769Y889604D01*
X307879Y889579D01*
X307990Y889557D01*
X308102Y889540D01*
X308215Y889526D01*
X308328Y889516D01*
X308441Y889510D01*
X308554Y889508D01*
X311799Y889508D01*
X299585Y889508D02*
X294392Y889508D01*
X299585Y889508D02*
X299585Y901192D01*
X294392Y901192D01*
X295690Y895999D02*
X299585Y895999D01*
X290576Y888210D02*
X285383Y888210D01*
X279979Y889508D02*
X279979Y901192D01*
X281277Y889508D02*
X278680Y889508D01*
X278680Y901192D02*
X281277Y901192D01*
X273699Y901192D02*
X273699Y889508D01*
X267208Y889508D02*
X273699Y901192D01*
X267208Y901192D02*
X267208Y889508D01*
X253492Y21218D02*
X241808Y21218D01*
X241808Y26410D01*
X241808Y31124D02*
X241808Y36316D01*
X241808Y31124D02*
X253492Y31124D01*
X253492Y36316D01*
X248299Y35018D02*
X248299Y31124D01*
X253492Y39977D02*
X241808Y43871D01*
X253492Y47766D01*
X241808Y52460D02*
X241808Y57652D01*
X241808Y52460D02*
X253492Y52460D01*
X253492Y57652D01*
X248299Y56354D02*
X248299Y52460D01*
X253492Y62366D02*
X241808Y62366D01*
X241808Y67558D01*
X240510Y71374D02*
X240510Y76567D01*
X241808Y81971D02*
X253492Y81971D01*
X241808Y80673D02*
X241808Y83270D01*
X253492Y83270D02*
X253492Y80673D01*
X253492Y88251D02*
X241808Y88251D01*
X241808Y94742D02*
X253492Y88251D01*
X253492Y94742D02*
X241808Y94742D01*
X107075Y365704D02*
X107075Y370896D01*
X107073Y371009D01*
X107067Y371122D01*
X107057Y371235D01*
X107043Y371348D01*
X107026Y371460D01*
X107004Y371571D01*
X106979Y371681D01*
X106949Y371791D01*
X106916Y371899D01*
X106879Y372006D01*
X106839Y372112D01*
X106794Y372216D01*
X106746Y372319D01*
X106695Y372420D01*
X106640Y372519D01*
X106582Y372616D01*
X106520Y372711D01*
X106455Y372804D01*
X106387Y372894D01*
X106316Y372982D01*
X106241Y373068D01*
X106164Y373151D01*
X106084Y373231D01*
X106001Y373308D01*
X105915Y373383D01*
X105827Y373454D01*
X105737Y373522D01*
X105644Y373587D01*
X105549Y373649D01*
X105452Y373707D01*
X105353Y373762D01*
X105252Y373813D01*
X105149Y373861D01*
X105045Y373906D01*
X104939Y373946D01*
X104832Y373983D01*
X104724Y374016D01*
X104614Y374046D01*
X104504Y374071D01*
X104393Y374093D01*
X104281Y374110D01*
X104168Y374124D01*
X104055Y374134D01*
X103942Y374140D01*
X103829Y374142D01*
X103716Y374140D01*
X103603Y374134D01*
X103490Y374124D01*
X103377Y374110D01*
X103265Y374093D01*
X103154Y374071D01*
X103044Y374046D01*
X102934Y374016D01*
X102826Y373983D01*
X102719Y373946D01*
X102613Y373906D01*
X102509Y373861D01*
X102406Y373813D01*
X102305Y373762D01*
X102206Y373707D01*
X102109Y373649D01*
X102014Y373587D01*
X101921Y373522D01*
X101831Y373454D01*
X101743Y373383D01*
X101657Y373308D01*
X101574Y373231D01*
X101494Y373151D01*
X101417Y373068D01*
X101342Y372982D01*
X101271Y372894D01*
X101203Y372804D01*
X101138Y372711D01*
X101076Y372616D01*
X101018Y372519D01*
X100963Y372420D01*
X100912Y372319D01*
X100864Y372216D01*
X100819Y372112D01*
X100779Y372006D01*
X100742Y371899D01*
X100709Y371791D01*
X100679Y371681D01*
X100654Y371571D01*
X100632Y371460D01*
X100615Y371348D01*
X100601Y371235D01*
X100591Y371122D01*
X100585Y371009D01*
X100583Y370896D01*
X100584Y370896D02*
X100584Y365704D01*
X100583Y365704D02*
X100585Y365591D01*
X100591Y365478D01*
X100601Y365365D01*
X100615Y365252D01*
X100632Y365140D01*
X100654Y365029D01*
X100679Y364919D01*
X100709Y364809D01*
X100742Y364701D01*
X100779Y364594D01*
X100819Y364488D01*
X100864Y364384D01*
X100912Y364281D01*
X100963Y364180D01*
X101018Y364081D01*
X101076Y363984D01*
X101138Y363889D01*
X101203Y363796D01*
X101271Y363706D01*
X101342Y363618D01*
X101417Y363532D01*
X101494Y363449D01*
X101574Y363369D01*
X101657Y363292D01*
X101743Y363217D01*
X101831Y363146D01*
X101921Y363078D01*
X102014Y363013D01*
X102109Y362951D01*
X102206Y362893D01*
X102305Y362838D01*
X102406Y362787D01*
X102509Y362739D01*
X102613Y362694D01*
X102719Y362654D01*
X102826Y362617D01*
X102934Y362584D01*
X103044Y362554D01*
X103154Y362529D01*
X103265Y362507D01*
X103377Y362490D01*
X103490Y362476D01*
X103603Y362466D01*
X103716Y362460D01*
X103829Y362458D01*
X103942Y362460D01*
X104055Y362466D01*
X104168Y362476D01*
X104281Y362490D01*
X104393Y362507D01*
X104504Y362529D01*
X104614Y362554D01*
X104724Y362584D01*
X104832Y362617D01*
X104939Y362654D01*
X105045Y362694D01*
X105149Y362739D01*
X105252Y362787D01*
X105353Y362838D01*
X105452Y362893D01*
X105549Y362951D01*
X105644Y363013D01*
X105737Y363078D01*
X105827Y363146D01*
X105915Y363217D01*
X106001Y363292D01*
X106084Y363369D01*
X106164Y363449D01*
X106241Y363532D01*
X106316Y363618D01*
X106387Y363706D01*
X106455Y363796D01*
X106520Y363889D01*
X106582Y363984D01*
X106640Y364081D01*
X106695Y364180D01*
X106746Y364281D01*
X106794Y364384D01*
X106839Y364488D01*
X106879Y364594D01*
X106916Y364701D01*
X106949Y364809D01*
X106979Y364919D01*
X107004Y365029D01*
X107026Y365140D01*
X107043Y365252D01*
X107057Y365365D01*
X107067Y365478D01*
X107073Y365591D01*
X107075Y365704D01*
X95241Y362458D02*
X95241Y374142D01*
X90049Y374142D01*
X90049Y368949D02*
X95241Y368949D01*
X85335Y374142D02*
X85335Y362458D01*
X85335Y374142D02*
X80143Y374142D01*
X80143Y368949D02*
X85335Y368949D01*
X72319Y362458D02*
X72220Y362460D01*
X72120Y362466D01*
X72021Y362475D01*
X71923Y362488D01*
X71825Y362505D01*
X71727Y362526D01*
X71631Y362551D01*
X71536Y362579D01*
X71442Y362611D01*
X71349Y362646D01*
X71257Y362685D01*
X71167Y362728D01*
X71079Y362773D01*
X70992Y362823D01*
X70908Y362875D01*
X70825Y362931D01*
X70745Y362989D01*
X70667Y363051D01*
X70592Y363116D01*
X70519Y363184D01*
X70449Y363254D01*
X70381Y363327D01*
X70316Y363402D01*
X70254Y363480D01*
X70196Y363560D01*
X70140Y363643D01*
X70088Y363727D01*
X70038Y363814D01*
X69993Y363902D01*
X69950Y363992D01*
X69911Y364084D01*
X69876Y364177D01*
X69844Y364271D01*
X69816Y364366D01*
X69791Y364462D01*
X69770Y364560D01*
X69753Y364658D01*
X69740Y364756D01*
X69731Y364855D01*
X69725Y364955D01*
X69723Y365054D01*
X72319Y362458D02*
X72463Y362460D01*
X72608Y362466D01*
X72752Y362475D01*
X72895Y362488D01*
X73039Y362505D01*
X73182Y362526D01*
X73324Y362551D01*
X73465Y362579D01*
X73606Y362611D01*
X73746Y362647D01*
X73885Y362686D01*
X74023Y362729D01*
X74159Y362776D01*
X74295Y362826D01*
X74429Y362880D01*
X74561Y362937D01*
X74692Y362998D01*
X74821Y363062D01*
X74949Y363130D01*
X75075Y363201D01*
X75199Y363275D01*
X75320Y363352D01*
X75440Y363433D01*
X75558Y363516D01*
X75673Y363603D01*
X75786Y363693D01*
X75897Y363786D01*
X76005Y363881D01*
X76111Y363980D01*
X76214Y364081D01*
X75889Y371546D02*
X75887Y371645D01*
X75881Y371745D01*
X75872Y371844D01*
X75859Y371942D01*
X75842Y372040D01*
X75821Y372138D01*
X75796Y372234D01*
X75768Y372329D01*
X75736Y372423D01*
X75701Y372516D01*
X75662Y372608D01*
X75619Y372698D01*
X75574Y372786D01*
X75524Y372873D01*
X75472Y372957D01*
X75416Y373040D01*
X75358Y373120D01*
X75296Y373198D01*
X75231Y373273D01*
X75163Y373346D01*
X75093Y373416D01*
X75020Y373484D01*
X74945Y373549D01*
X74867Y373611D01*
X74787Y373669D01*
X74704Y373725D01*
X74620Y373777D01*
X74533Y373827D01*
X74445Y373872D01*
X74355Y373915D01*
X74263Y373954D01*
X74170Y373989D01*
X74076Y374021D01*
X73981Y374049D01*
X73885Y374074D01*
X73787Y374095D01*
X73689Y374112D01*
X73591Y374125D01*
X73492Y374134D01*
X73392Y374140D01*
X73293Y374142D01*
X73157Y374140D01*
X73021Y374134D01*
X72885Y374125D01*
X72749Y374112D01*
X72614Y374094D01*
X72480Y374074D01*
X72346Y374049D01*
X72212Y374021D01*
X72080Y373988D01*
X71949Y373953D01*
X71818Y373913D01*
X71689Y373870D01*
X71561Y373824D01*
X71435Y373773D01*
X71309Y373720D01*
X71186Y373662D01*
X71064Y373602D01*
X70944Y373538D01*
X70825Y373470D01*
X70709Y373400D01*
X70595Y373326D01*
X70482Y373249D01*
X70372Y373168D01*
X74591Y369274D02*
X74677Y369327D01*
X74761Y369384D01*
X74843Y369443D01*
X74923Y369506D01*
X75000Y369572D01*
X75075Y369640D01*
X75147Y369712D01*
X75216Y369786D01*
X75282Y369863D01*
X75345Y369942D01*
X75405Y370024D01*
X75462Y370108D01*
X75516Y370194D01*
X75566Y370282D01*
X75613Y370372D01*
X75657Y370463D01*
X75696Y370557D01*
X75733Y370651D01*
X75765Y370747D01*
X75794Y370845D01*
X75819Y370943D01*
X75840Y371042D01*
X75858Y371142D01*
X75871Y371242D01*
X75881Y371343D01*
X75887Y371445D01*
X75889Y371546D01*
X71021Y367326D02*
X70935Y367273D01*
X70851Y367216D01*
X70769Y367157D01*
X70689Y367094D01*
X70612Y367028D01*
X70537Y366960D01*
X70465Y366888D01*
X70396Y366814D01*
X70330Y366737D01*
X70267Y366658D01*
X70207Y366576D01*
X70150Y366492D01*
X70096Y366406D01*
X70046Y366318D01*
X69999Y366228D01*
X69955Y366137D01*
X69916Y366043D01*
X69879Y365949D01*
X69847Y365853D01*
X69818Y365755D01*
X69793Y365657D01*
X69772Y365558D01*
X69754Y365458D01*
X69741Y365358D01*
X69731Y365257D01*
X69725Y365155D01*
X69723Y365054D01*
X71021Y367326D02*
X74591Y369274D01*
X64761Y362458D02*
X59569Y362458D01*
X64761Y362458D02*
X64761Y374142D01*
X59569Y374142D01*
X60867Y368949D02*
X64761Y368949D01*
X52775Y374142D02*
X52775Y362458D01*
X56021Y374142D02*
X49530Y374142D01*
X45847Y361160D02*
X40654Y361160D01*
X36209Y365704D02*
X36209Y370896D01*
X36207Y371009D01*
X36201Y371122D01*
X36191Y371235D01*
X36177Y371348D01*
X36160Y371460D01*
X36138Y371571D01*
X36113Y371681D01*
X36083Y371791D01*
X36050Y371899D01*
X36013Y372006D01*
X35973Y372112D01*
X35928Y372216D01*
X35880Y372319D01*
X35829Y372420D01*
X35774Y372519D01*
X35716Y372616D01*
X35654Y372711D01*
X35589Y372804D01*
X35521Y372894D01*
X35450Y372982D01*
X35375Y373068D01*
X35298Y373151D01*
X35218Y373231D01*
X35135Y373308D01*
X35049Y373383D01*
X34961Y373454D01*
X34871Y373522D01*
X34778Y373587D01*
X34683Y373649D01*
X34586Y373707D01*
X34487Y373762D01*
X34386Y373813D01*
X34283Y373861D01*
X34179Y373906D01*
X34073Y373946D01*
X33966Y373983D01*
X33858Y374016D01*
X33748Y374046D01*
X33638Y374071D01*
X33527Y374093D01*
X33415Y374110D01*
X33302Y374124D01*
X33189Y374134D01*
X33076Y374140D01*
X32963Y374142D01*
X32850Y374140D01*
X32737Y374134D01*
X32624Y374124D01*
X32511Y374110D01*
X32399Y374093D01*
X32288Y374071D01*
X32178Y374046D01*
X32068Y374016D01*
X31960Y373983D01*
X31853Y373946D01*
X31747Y373906D01*
X31643Y373861D01*
X31540Y373813D01*
X31439Y373762D01*
X31340Y373707D01*
X31243Y373649D01*
X31148Y373587D01*
X31055Y373522D01*
X30965Y373454D01*
X30877Y373383D01*
X30791Y373308D01*
X30708Y373231D01*
X30628Y373151D01*
X30551Y373068D01*
X30476Y372982D01*
X30405Y372894D01*
X30337Y372804D01*
X30272Y372711D01*
X30210Y372616D01*
X30152Y372519D01*
X30097Y372420D01*
X30046Y372319D01*
X29998Y372216D01*
X29953Y372112D01*
X29913Y372006D01*
X29876Y371899D01*
X29843Y371791D01*
X29813Y371681D01*
X29788Y371571D01*
X29766Y371460D01*
X29749Y371348D01*
X29735Y371235D01*
X29725Y371122D01*
X29719Y371009D01*
X29717Y370896D01*
X29718Y370896D02*
X29718Y365704D01*
X29717Y365704D02*
X29719Y365591D01*
X29725Y365478D01*
X29735Y365365D01*
X29749Y365252D01*
X29766Y365140D01*
X29788Y365029D01*
X29813Y364919D01*
X29843Y364809D01*
X29876Y364701D01*
X29913Y364594D01*
X29953Y364488D01*
X29998Y364384D01*
X30046Y364281D01*
X30097Y364180D01*
X30152Y364081D01*
X30210Y363984D01*
X30272Y363889D01*
X30337Y363796D01*
X30405Y363706D01*
X30476Y363618D01*
X30551Y363532D01*
X30628Y363449D01*
X30708Y363369D01*
X30791Y363292D01*
X30877Y363217D01*
X30965Y363146D01*
X31055Y363078D01*
X31148Y363013D01*
X31243Y362951D01*
X31340Y362893D01*
X31439Y362838D01*
X31540Y362787D01*
X31643Y362739D01*
X31747Y362694D01*
X31853Y362654D01*
X31960Y362617D01*
X32068Y362584D01*
X32178Y362554D01*
X32288Y362529D01*
X32399Y362507D01*
X32511Y362490D01*
X32624Y362476D01*
X32737Y362466D01*
X32850Y362460D01*
X32963Y362458D01*
X33076Y362460D01*
X33189Y362466D01*
X33302Y362476D01*
X33415Y362490D01*
X33527Y362507D01*
X33638Y362529D01*
X33748Y362554D01*
X33858Y362584D01*
X33966Y362617D01*
X34073Y362654D01*
X34179Y362694D01*
X34283Y362739D01*
X34386Y362787D01*
X34487Y362838D01*
X34586Y362893D01*
X34683Y362951D01*
X34778Y363013D01*
X34871Y363078D01*
X34961Y363146D01*
X35049Y363217D01*
X35135Y363292D01*
X35218Y363369D01*
X35298Y363449D01*
X35375Y363532D01*
X35450Y363618D01*
X35521Y363706D01*
X35589Y363796D01*
X35654Y363889D01*
X35716Y363984D01*
X35774Y364081D01*
X35829Y364180D01*
X35880Y364281D01*
X35928Y364384D01*
X35973Y364488D01*
X36013Y364594D01*
X36050Y364701D01*
X36083Y364809D01*
X36113Y364919D01*
X36138Y365029D01*
X36160Y365140D01*
X36177Y365252D01*
X36191Y365365D01*
X36201Y365478D01*
X36207Y365591D01*
X36209Y365704D01*
X24398Y365704D02*
X24398Y374142D01*
X24399Y365704D02*
X24397Y365591D01*
X24391Y365478D01*
X24381Y365365D01*
X24367Y365252D01*
X24350Y365140D01*
X24328Y365029D01*
X24303Y364919D01*
X24273Y364809D01*
X24240Y364701D01*
X24203Y364594D01*
X24163Y364488D01*
X24118Y364384D01*
X24070Y364281D01*
X24019Y364180D01*
X23964Y364081D01*
X23906Y363984D01*
X23844Y363889D01*
X23779Y363796D01*
X23711Y363706D01*
X23640Y363618D01*
X23565Y363532D01*
X23488Y363449D01*
X23408Y363369D01*
X23325Y363292D01*
X23239Y363217D01*
X23151Y363146D01*
X23061Y363078D01*
X22968Y363013D01*
X22873Y362951D01*
X22776Y362893D01*
X22677Y362838D01*
X22576Y362787D01*
X22473Y362739D01*
X22369Y362694D01*
X22263Y362654D01*
X22156Y362617D01*
X22048Y362584D01*
X21938Y362554D01*
X21828Y362529D01*
X21717Y362507D01*
X21605Y362490D01*
X21492Y362476D01*
X21379Y362466D01*
X21266Y362460D01*
X21153Y362458D01*
X21040Y362460D01*
X20927Y362466D01*
X20814Y362476D01*
X20701Y362490D01*
X20589Y362507D01*
X20478Y362529D01*
X20368Y362554D01*
X20258Y362584D01*
X20150Y362617D01*
X20043Y362654D01*
X19937Y362694D01*
X19833Y362739D01*
X19730Y362787D01*
X19629Y362838D01*
X19530Y362893D01*
X19433Y362951D01*
X19338Y363013D01*
X19245Y363078D01*
X19155Y363146D01*
X19067Y363217D01*
X18981Y363292D01*
X18898Y363369D01*
X18818Y363449D01*
X18741Y363532D01*
X18666Y363618D01*
X18595Y363706D01*
X18527Y363796D01*
X18462Y363889D01*
X18400Y363984D01*
X18342Y364081D01*
X18287Y364180D01*
X18236Y364281D01*
X18188Y364384D01*
X18143Y364488D01*
X18103Y364594D01*
X18066Y364701D01*
X18033Y364809D01*
X18003Y364919D01*
X17978Y365029D01*
X17956Y365140D01*
X17939Y365252D01*
X17925Y365365D01*
X17915Y365478D01*
X17909Y365591D01*
X17907Y365704D01*
X17907Y374142D01*
X10104Y374142D02*
X10104Y362458D01*
X13349Y374142D02*
X6858Y374142D01*
X345454Y370896D02*
X345454Y365704D01*
X345454Y370896D02*
X345452Y371009D01*
X345446Y371122D01*
X345436Y371235D01*
X345422Y371348D01*
X345405Y371460D01*
X345383Y371571D01*
X345358Y371681D01*
X345328Y371791D01*
X345295Y371899D01*
X345258Y372006D01*
X345218Y372112D01*
X345173Y372216D01*
X345125Y372319D01*
X345074Y372420D01*
X345019Y372519D01*
X344961Y372616D01*
X344899Y372711D01*
X344834Y372804D01*
X344766Y372894D01*
X344695Y372982D01*
X344620Y373068D01*
X344543Y373151D01*
X344463Y373231D01*
X344380Y373308D01*
X344294Y373383D01*
X344206Y373454D01*
X344116Y373522D01*
X344023Y373587D01*
X343928Y373649D01*
X343831Y373707D01*
X343732Y373762D01*
X343631Y373813D01*
X343528Y373861D01*
X343424Y373906D01*
X343318Y373946D01*
X343211Y373983D01*
X343103Y374016D01*
X342993Y374046D01*
X342883Y374071D01*
X342772Y374093D01*
X342660Y374110D01*
X342547Y374124D01*
X342434Y374134D01*
X342321Y374140D01*
X342208Y374142D01*
X342095Y374140D01*
X341982Y374134D01*
X341869Y374124D01*
X341756Y374110D01*
X341644Y374093D01*
X341533Y374071D01*
X341423Y374046D01*
X341313Y374016D01*
X341205Y373983D01*
X341098Y373946D01*
X340992Y373906D01*
X340888Y373861D01*
X340785Y373813D01*
X340684Y373762D01*
X340585Y373707D01*
X340488Y373649D01*
X340393Y373587D01*
X340300Y373522D01*
X340210Y373454D01*
X340122Y373383D01*
X340036Y373308D01*
X339953Y373231D01*
X339873Y373151D01*
X339796Y373068D01*
X339721Y372982D01*
X339650Y372894D01*
X339582Y372804D01*
X339517Y372711D01*
X339455Y372616D01*
X339397Y372519D01*
X339342Y372420D01*
X339291Y372319D01*
X339243Y372216D01*
X339198Y372112D01*
X339158Y372006D01*
X339121Y371899D01*
X339088Y371791D01*
X339058Y371681D01*
X339033Y371571D01*
X339011Y371460D01*
X338994Y371348D01*
X338980Y371235D01*
X338970Y371122D01*
X338964Y371009D01*
X338962Y370896D01*
X338963Y370896D02*
X338963Y365704D01*
X338962Y365704D02*
X338964Y365591D01*
X338970Y365478D01*
X338980Y365365D01*
X338994Y365252D01*
X339011Y365140D01*
X339033Y365029D01*
X339058Y364919D01*
X339088Y364809D01*
X339121Y364701D01*
X339158Y364594D01*
X339198Y364488D01*
X339243Y364384D01*
X339291Y364281D01*
X339342Y364180D01*
X339397Y364081D01*
X339455Y363984D01*
X339517Y363889D01*
X339582Y363796D01*
X339650Y363706D01*
X339721Y363618D01*
X339796Y363532D01*
X339873Y363449D01*
X339953Y363369D01*
X340036Y363292D01*
X340122Y363217D01*
X340210Y363146D01*
X340300Y363078D01*
X340393Y363013D01*
X340488Y362951D01*
X340585Y362893D01*
X340684Y362838D01*
X340785Y362787D01*
X340888Y362739D01*
X340992Y362694D01*
X341098Y362654D01*
X341205Y362617D01*
X341313Y362584D01*
X341423Y362554D01*
X341533Y362529D01*
X341644Y362507D01*
X341756Y362490D01*
X341869Y362476D01*
X341982Y362466D01*
X342095Y362460D01*
X342208Y362458D01*
X342321Y362460D01*
X342434Y362466D01*
X342547Y362476D01*
X342660Y362490D01*
X342772Y362507D01*
X342883Y362529D01*
X342993Y362554D01*
X343103Y362584D01*
X343211Y362617D01*
X343318Y362654D01*
X343424Y362694D01*
X343528Y362739D01*
X343631Y362787D01*
X343732Y362838D01*
X343831Y362893D01*
X343928Y362951D01*
X344023Y363013D01*
X344116Y363078D01*
X344206Y363146D01*
X344294Y363217D01*
X344380Y363292D01*
X344463Y363369D01*
X344543Y363449D01*
X344620Y363532D01*
X344695Y363618D01*
X344766Y363706D01*
X344834Y363796D01*
X344899Y363889D01*
X344961Y363984D01*
X345019Y364081D01*
X345074Y364180D01*
X345125Y364281D01*
X345173Y364384D01*
X345218Y364488D01*
X345258Y364594D01*
X345295Y364701D01*
X345328Y364809D01*
X345358Y364919D01*
X345383Y365029D01*
X345405Y365140D01*
X345422Y365252D01*
X345436Y365365D01*
X345446Y365478D01*
X345452Y365591D01*
X345454Y365704D01*
X333620Y362458D02*
X333620Y374142D01*
X328428Y374142D01*
X328428Y368949D02*
X333620Y368949D01*
X323714Y374142D02*
X323714Y362458D01*
X323714Y374142D02*
X318522Y374142D01*
X318522Y368949D02*
X323714Y368949D01*
X310698Y362458D02*
X310599Y362460D01*
X310499Y362466D01*
X310400Y362475D01*
X310302Y362488D01*
X310204Y362505D01*
X310106Y362526D01*
X310010Y362551D01*
X309915Y362579D01*
X309821Y362611D01*
X309728Y362646D01*
X309636Y362685D01*
X309546Y362728D01*
X309458Y362773D01*
X309371Y362823D01*
X309287Y362875D01*
X309204Y362931D01*
X309124Y362989D01*
X309046Y363051D01*
X308971Y363116D01*
X308898Y363184D01*
X308828Y363254D01*
X308760Y363327D01*
X308695Y363402D01*
X308633Y363480D01*
X308575Y363560D01*
X308519Y363643D01*
X308467Y363727D01*
X308417Y363814D01*
X308372Y363902D01*
X308329Y363992D01*
X308290Y364084D01*
X308255Y364177D01*
X308223Y364271D01*
X308195Y364366D01*
X308170Y364462D01*
X308149Y364560D01*
X308132Y364658D01*
X308119Y364756D01*
X308110Y364855D01*
X308104Y364955D01*
X308102Y365054D01*
X310698Y362458D02*
X310842Y362460D01*
X310987Y362466D01*
X311131Y362475D01*
X311274Y362488D01*
X311418Y362505D01*
X311561Y362526D01*
X311703Y362551D01*
X311844Y362579D01*
X311985Y362611D01*
X312125Y362647D01*
X312264Y362686D01*
X312402Y362729D01*
X312538Y362776D01*
X312674Y362826D01*
X312808Y362880D01*
X312940Y362937D01*
X313071Y362998D01*
X313200Y363062D01*
X313328Y363130D01*
X313454Y363201D01*
X313578Y363275D01*
X313699Y363352D01*
X313819Y363433D01*
X313937Y363516D01*
X314052Y363603D01*
X314165Y363693D01*
X314276Y363786D01*
X314384Y363881D01*
X314490Y363980D01*
X314593Y364081D01*
X314268Y371546D02*
X314266Y371645D01*
X314260Y371745D01*
X314251Y371844D01*
X314238Y371942D01*
X314221Y372040D01*
X314200Y372138D01*
X314175Y372234D01*
X314147Y372329D01*
X314115Y372423D01*
X314080Y372516D01*
X314041Y372608D01*
X313998Y372698D01*
X313953Y372786D01*
X313903Y372873D01*
X313851Y372957D01*
X313795Y373040D01*
X313737Y373120D01*
X313675Y373198D01*
X313610Y373273D01*
X313542Y373346D01*
X313472Y373416D01*
X313399Y373484D01*
X313324Y373549D01*
X313246Y373611D01*
X313166Y373669D01*
X313083Y373725D01*
X312999Y373777D01*
X312912Y373827D01*
X312824Y373872D01*
X312734Y373915D01*
X312642Y373954D01*
X312549Y373989D01*
X312455Y374021D01*
X312360Y374049D01*
X312264Y374074D01*
X312166Y374095D01*
X312068Y374112D01*
X311970Y374125D01*
X311871Y374134D01*
X311771Y374140D01*
X311672Y374142D01*
X311536Y374140D01*
X311400Y374134D01*
X311264Y374125D01*
X311128Y374112D01*
X310993Y374094D01*
X310859Y374074D01*
X310725Y374049D01*
X310591Y374021D01*
X310459Y373988D01*
X310328Y373953D01*
X310197Y373913D01*
X310068Y373870D01*
X309940Y373824D01*
X309814Y373773D01*
X309688Y373720D01*
X309565Y373662D01*
X309443Y373602D01*
X309323Y373538D01*
X309204Y373470D01*
X309088Y373400D01*
X308974Y373326D01*
X308861Y373249D01*
X308751Y373168D01*
X312971Y369274D02*
X313057Y369327D01*
X313141Y369384D01*
X313223Y369443D01*
X313303Y369506D01*
X313380Y369572D01*
X313455Y369640D01*
X313527Y369712D01*
X313596Y369786D01*
X313662Y369863D01*
X313725Y369942D01*
X313785Y370024D01*
X313842Y370108D01*
X313896Y370194D01*
X313946Y370282D01*
X313993Y370372D01*
X314037Y370463D01*
X314076Y370557D01*
X314113Y370651D01*
X314145Y370747D01*
X314174Y370845D01*
X314199Y370943D01*
X314220Y371042D01*
X314238Y371142D01*
X314251Y371242D01*
X314261Y371343D01*
X314267Y371445D01*
X314269Y371546D01*
X309400Y367326D02*
X309314Y367273D01*
X309230Y367216D01*
X309148Y367157D01*
X309068Y367094D01*
X308991Y367028D01*
X308916Y366960D01*
X308844Y366888D01*
X308775Y366814D01*
X308709Y366737D01*
X308646Y366658D01*
X308586Y366576D01*
X308529Y366492D01*
X308475Y366406D01*
X308425Y366318D01*
X308378Y366228D01*
X308334Y366137D01*
X308295Y366043D01*
X308258Y365949D01*
X308226Y365853D01*
X308197Y365755D01*
X308172Y365657D01*
X308151Y365558D01*
X308133Y365458D01*
X308120Y365358D01*
X308110Y365257D01*
X308104Y365155D01*
X308102Y365054D01*
X309400Y367326D02*
X312970Y369274D01*
X303140Y362458D02*
X297948Y362458D01*
X303140Y362458D02*
X303140Y374142D01*
X297948Y374142D01*
X299246Y368949D02*
X303140Y368949D01*
X291155Y374142D02*
X291155Y362458D01*
X294400Y374142D02*
X287909Y374142D01*
X284226Y361160D02*
X279033Y361160D01*
X273629Y362458D02*
X273629Y374142D01*
X274927Y362458D02*
X272330Y362458D01*
X272330Y374142D02*
X274927Y374142D01*
X267349Y374142D02*
X267349Y362458D01*
X260858Y362458D02*
X267349Y374142D01*
X260858Y374142D02*
X260858Y362458D01*
D11*
X163830Y965200D02*
X163834Y965543D01*
X163847Y965885D01*
X163868Y966228D01*
X163897Y966569D01*
X163935Y966910D01*
X163981Y967250D01*
X164036Y967588D01*
X164098Y967925D01*
X164169Y968261D01*
X164249Y968594D01*
X164336Y968926D01*
X164432Y969255D01*
X164535Y969582D01*
X164647Y969906D01*
X164766Y970228D01*
X164893Y970546D01*
X165028Y970861D01*
X165171Y971173D01*
X165322Y971481D01*
X165480Y971785D01*
X165645Y972086D01*
X165818Y972382D01*
X165997Y972674D01*
X166184Y972961D01*
X166378Y973244D01*
X166579Y973522D01*
X166787Y973795D01*
X167001Y974062D01*
X167222Y974325D01*
X167449Y974582D01*
X167682Y974833D01*
X167922Y975078D01*
X168167Y975318D01*
X168418Y975551D01*
X168675Y975778D01*
X168938Y975999D01*
X169205Y976213D01*
X169478Y976421D01*
X169756Y976622D01*
X170039Y976816D01*
X170326Y977003D01*
X170618Y977182D01*
X170914Y977355D01*
X171215Y977520D01*
X171519Y977678D01*
X171827Y977829D01*
X172139Y977972D01*
X172454Y978107D01*
X172772Y978234D01*
X173094Y978353D01*
X173418Y978465D01*
X173745Y978568D01*
X174074Y978664D01*
X174406Y978751D01*
X174739Y978831D01*
X175075Y978902D01*
X175412Y978964D01*
X175750Y979019D01*
X176090Y979065D01*
X176431Y979103D01*
X176772Y979132D01*
X177115Y979153D01*
X177457Y979166D01*
X177800Y979170D01*
X178143Y979166D01*
X178485Y979153D01*
X178828Y979132D01*
X179169Y979103D01*
X179510Y979065D01*
X179850Y979019D01*
X180188Y978964D01*
X180525Y978902D01*
X180861Y978831D01*
X181194Y978751D01*
X181526Y978664D01*
X181855Y978568D01*
X182182Y978465D01*
X182506Y978353D01*
X182828Y978234D01*
X183146Y978107D01*
X183461Y977972D01*
X183773Y977829D01*
X184081Y977678D01*
X184385Y977520D01*
X184686Y977355D01*
X184982Y977182D01*
X185274Y977003D01*
X185561Y976816D01*
X185844Y976622D01*
X186122Y976421D01*
X186395Y976213D01*
X186662Y975999D01*
X186925Y975778D01*
X187182Y975551D01*
X187433Y975318D01*
X187678Y975078D01*
X187918Y974833D01*
X188151Y974582D01*
X188378Y974325D01*
X188599Y974062D01*
X188813Y973795D01*
X189021Y973522D01*
X189222Y973244D01*
X189416Y972961D01*
X189603Y972674D01*
X189782Y972382D01*
X189955Y972086D01*
X190120Y971785D01*
X190278Y971481D01*
X190429Y971173D01*
X190572Y970861D01*
X190707Y970546D01*
X190834Y970228D01*
X190953Y969906D01*
X191065Y969582D01*
X191168Y969255D01*
X191264Y968926D01*
X191351Y968594D01*
X191431Y968261D01*
X191502Y967925D01*
X191564Y967588D01*
X191619Y967250D01*
X191665Y966910D01*
X191703Y966569D01*
X191732Y966228D01*
X191753Y965885D01*
X191766Y965543D01*
X191770Y965200D01*
X191766Y964857D01*
X191753Y964515D01*
X191732Y964172D01*
X191703Y963831D01*
X191665Y963490D01*
X191619Y963150D01*
X191564Y962812D01*
X191502Y962475D01*
X191431Y962139D01*
X191351Y961806D01*
X191264Y961474D01*
X191168Y961145D01*
X191065Y960818D01*
X190953Y960494D01*
X190834Y960172D01*
X190707Y959854D01*
X190572Y959539D01*
X190429Y959227D01*
X190278Y958919D01*
X190120Y958615D01*
X189955Y958314D01*
X189782Y958018D01*
X189603Y957726D01*
X189416Y957439D01*
X189222Y957156D01*
X189021Y956878D01*
X188813Y956605D01*
X188599Y956338D01*
X188378Y956075D01*
X188151Y955818D01*
X187918Y955567D01*
X187678Y955322D01*
X187433Y955082D01*
X187182Y954849D01*
X186925Y954622D01*
X186662Y954401D01*
X186395Y954187D01*
X186122Y953979D01*
X185844Y953778D01*
X185561Y953584D01*
X185274Y953397D01*
X184982Y953218D01*
X184686Y953045D01*
X184385Y952880D01*
X184081Y952722D01*
X183773Y952571D01*
X183461Y952428D01*
X183146Y952293D01*
X182828Y952166D01*
X182506Y952047D01*
X182182Y951935D01*
X181855Y951832D01*
X181526Y951736D01*
X181194Y951649D01*
X180861Y951569D01*
X180525Y951498D01*
X180188Y951436D01*
X179850Y951381D01*
X179510Y951335D01*
X179169Y951297D01*
X178828Y951268D01*
X178485Y951247D01*
X178143Y951234D01*
X177800Y951230D01*
X177457Y951234D01*
X177115Y951247D01*
X176772Y951268D01*
X176431Y951297D01*
X176090Y951335D01*
X175750Y951381D01*
X175412Y951436D01*
X175075Y951498D01*
X174739Y951569D01*
X174406Y951649D01*
X174074Y951736D01*
X173745Y951832D01*
X173418Y951935D01*
X173094Y952047D01*
X172772Y952166D01*
X172454Y952293D01*
X172139Y952428D01*
X171827Y952571D01*
X171519Y952722D01*
X171215Y952880D01*
X170914Y953045D01*
X170618Y953218D01*
X170326Y953397D01*
X170039Y953584D01*
X169756Y953778D01*
X169478Y953979D01*
X169205Y954187D01*
X168938Y954401D01*
X168675Y954622D01*
X168418Y954849D01*
X168167Y955082D01*
X167922Y955322D01*
X167682Y955567D01*
X167449Y955818D01*
X167222Y956075D01*
X167001Y956338D01*
X166787Y956605D01*
X166579Y956878D01*
X166378Y957156D01*
X166184Y957439D01*
X165997Y957726D01*
X165818Y958018D01*
X165645Y958314D01*
X165480Y958615D01*
X165322Y958919D01*
X165171Y959227D01*
X165028Y959539D01*
X164893Y959854D01*
X164766Y960172D01*
X164647Y960494D01*
X164535Y960818D01*
X164432Y961145D01*
X164336Y961474D01*
X164249Y961806D01*
X164169Y962139D01*
X164098Y962475D01*
X164036Y962812D01*
X163981Y963150D01*
X163935Y963490D01*
X163897Y963831D01*
X163868Y964172D01*
X163847Y964515D01*
X163834Y964857D01*
X163830Y965200D01*
X167640Y965200D02*
X167643Y965449D01*
X167652Y965699D01*
X167668Y965947D01*
X167689Y966196D01*
X167716Y966444D01*
X167750Y966691D01*
X167790Y966937D01*
X167835Y967182D01*
X167887Y967426D01*
X167944Y967669D01*
X168008Y967910D01*
X168077Y968149D01*
X168153Y968387D01*
X168234Y968623D01*
X168321Y968857D01*
X168413Y969088D01*
X168512Y969317D01*
X168615Y969544D01*
X168725Y969768D01*
X168840Y969989D01*
X168960Y970208D01*
X169085Y970423D01*
X169216Y970636D01*
X169352Y970845D01*
X169493Y971050D01*
X169639Y971252D01*
X169790Y971451D01*
X169946Y971645D01*
X170107Y971836D01*
X170272Y972023D01*
X170442Y972206D01*
X170616Y972384D01*
X170794Y972558D01*
X170977Y972728D01*
X171164Y972893D01*
X171355Y973054D01*
X171549Y973210D01*
X171748Y973361D01*
X171950Y973507D01*
X172155Y973648D01*
X172364Y973784D01*
X172577Y973915D01*
X172792Y974040D01*
X173011Y974160D01*
X173232Y974275D01*
X173456Y974385D01*
X173683Y974488D01*
X173912Y974587D01*
X174143Y974679D01*
X174377Y974766D01*
X174613Y974847D01*
X174851Y974923D01*
X175090Y974992D01*
X175331Y975056D01*
X175574Y975113D01*
X175818Y975165D01*
X176063Y975210D01*
X176309Y975250D01*
X176556Y975284D01*
X176804Y975311D01*
X177053Y975332D01*
X177301Y975348D01*
X177551Y975357D01*
X177800Y975360D01*
X178049Y975357D01*
X178299Y975348D01*
X178547Y975332D01*
X178796Y975311D01*
X179044Y975284D01*
X179291Y975250D01*
X179537Y975210D01*
X179782Y975165D01*
X180026Y975113D01*
X180269Y975056D01*
X180510Y974992D01*
X180749Y974923D01*
X180987Y974847D01*
X181223Y974766D01*
X181457Y974679D01*
X181688Y974587D01*
X181917Y974488D01*
X182144Y974385D01*
X182368Y974275D01*
X182589Y974160D01*
X182808Y974040D01*
X183023Y973915D01*
X183236Y973784D01*
X183445Y973648D01*
X183650Y973507D01*
X183852Y973361D01*
X184051Y973210D01*
X184245Y973054D01*
X184436Y972893D01*
X184623Y972728D01*
X184806Y972558D01*
X184984Y972384D01*
X185158Y972206D01*
X185328Y972023D01*
X185493Y971836D01*
X185654Y971645D01*
X185810Y971451D01*
X185961Y971252D01*
X186107Y971050D01*
X186248Y970845D01*
X186384Y970636D01*
X186515Y970423D01*
X186640Y970208D01*
X186760Y969989D01*
X186875Y969768D01*
X186985Y969544D01*
X187088Y969317D01*
X187187Y969088D01*
X187279Y968857D01*
X187366Y968623D01*
X187447Y968387D01*
X187523Y968149D01*
X187592Y967910D01*
X187656Y967669D01*
X187713Y967426D01*
X187765Y967182D01*
X187810Y966937D01*
X187850Y966691D01*
X187884Y966444D01*
X187911Y966196D01*
X187932Y965947D01*
X187948Y965699D01*
X187957Y965449D01*
X187960Y965200D01*
X187957Y964951D01*
X187948Y964701D01*
X187932Y964453D01*
X187911Y964204D01*
X187884Y963956D01*
X187850Y963709D01*
X187810Y963463D01*
X187765Y963218D01*
X187713Y962974D01*
X187656Y962731D01*
X187592Y962490D01*
X187523Y962251D01*
X187447Y962013D01*
X187366Y961777D01*
X187279Y961543D01*
X187187Y961312D01*
X187088Y961083D01*
X186985Y960856D01*
X186875Y960632D01*
X186760Y960411D01*
X186640Y960192D01*
X186515Y959977D01*
X186384Y959764D01*
X186248Y959555D01*
X186107Y959350D01*
X185961Y959148D01*
X185810Y958949D01*
X185654Y958755D01*
X185493Y958564D01*
X185328Y958377D01*
X185158Y958194D01*
X184984Y958016D01*
X184806Y957842D01*
X184623Y957672D01*
X184436Y957507D01*
X184245Y957346D01*
X184051Y957190D01*
X183852Y957039D01*
X183650Y956893D01*
X183445Y956752D01*
X183236Y956616D01*
X183023Y956485D01*
X182808Y956360D01*
X182589Y956240D01*
X182368Y956125D01*
X182144Y956015D01*
X181917Y955912D01*
X181688Y955813D01*
X181457Y955721D01*
X181223Y955634D01*
X180987Y955553D01*
X180749Y955477D01*
X180510Y955408D01*
X180269Y955344D01*
X180026Y955287D01*
X179782Y955235D01*
X179537Y955190D01*
X179291Y955150D01*
X179044Y955116D01*
X178796Y955089D01*
X178547Y955068D01*
X178299Y955052D01*
X178049Y955043D01*
X177800Y955040D01*
X177551Y955043D01*
X177301Y955052D01*
X177053Y955068D01*
X176804Y955089D01*
X176556Y955116D01*
X176309Y955150D01*
X176063Y955190D01*
X175818Y955235D01*
X175574Y955287D01*
X175331Y955344D01*
X175090Y955408D01*
X174851Y955477D01*
X174613Y955553D01*
X174377Y955634D01*
X174143Y955721D01*
X173912Y955813D01*
X173683Y955912D01*
X173456Y956015D01*
X173232Y956125D01*
X173011Y956240D01*
X172792Y956360D01*
X172577Y956485D01*
X172364Y956616D01*
X172155Y956752D01*
X171950Y956893D01*
X171748Y957039D01*
X171549Y957190D01*
X171355Y957346D01*
X171164Y957507D01*
X170977Y957672D01*
X170794Y957842D01*
X170616Y958016D01*
X170442Y958194D01*
X170272Y958377D01*
X170107Y958564D01*
X169946Y958755D01*
X169790Y958949D01*
X169639Y959148D01*
X169493Y959350D01*
X169352Y959555D01*
X169216Y959764D01*
X169085Y959977D01*
X168960Y960192D01*
X168840Y960411D01*
X168725Y960632D01*
X168615Y960856D01*
X168512Y961083D01*
X168413Y961312D01*
X168321Y961543D01*
X168234Y961777D01*
X168153Y962013D01*
X168077Y962251D01*
X168008Y962490D01*
X167944Y962731D01*
X167887Y962974D01*
X167835Y963218D01*
X167790Y963463D01*
X167750Y963709D01*
X167716Y963956D01*
X167689Y964204D01*
X167668Y964453D01*
X167652Y964701D01*
X167643Y964951D01*
X167640Y965200D01*
D12*
X136800Y1019200D02*
X218800Y1019200D01*
X218800Y906200D02*
X136800Y906200D01*
X218800Y1013700D02*
X224300Y1013700D01*
X218800Y1013700D02*
X218800Y1019200D01*
X218800Y911700D02*
X218800Y906200D01*
X218800Y911700D02*
X224300Y911700D01*
X136800Y911700D02*
X131300Y911700D01*
X136800Y911700D02*
X136800Y906200D01*
X136800Y1013700D02*
X136800Y1019200D01*
X136800Y1013700D02*
X131300Y1013700D01*
X224300Y1013700D02*
X224300Y991700D01*
X224300Y943700D02*
X224300Y911700D01*
X131300Y991700D02*
X131300Y1013700D01*
X131300Y943700D02*
X131300Y911700D01*
D13*
X103166Y942387D02*
X103166Y944038D01*
X97663Y944038D01*
X97663Y940736D01*
X97665Y940645D01*
X97671Y940554D01*
X97680Y940464D01*
X97693Y940374D01*
X97710Y940284D01*
X97730Y940196D01*
X97755Y940108D01*
X97782Y940021D01*
X97814Y939936D01*
X97848Y939852D01*
X97887Y939769D01*
X97928Y939688D01*
X97973Y939609D01*
X98021Y939532D01*
X98073Y939457D01*
X98127Y939384D01*
X98184Y939313D01*
X98245Y939245D01*
X98308Y939180D01*
X98373Y939117D01*
X98441Y939056D01*
X98512Y938999D01*
X98585Y938945D01*
X98660Y938893D01*
X98737Y938845D01*
X98816Y938800D01*
X98897Y938759D01*
X98980Y938720D01*
X99064Y938686D01*
X99149Y938654D01*
X99236Y938627D01*
X99324Y938602D01*
X99412Y938582D01*
X99502Y938565D01*
X99592Y938552D01*
X99682Y938543D01*
X99773Y938537D01*
X99864Y938535D01*
X99864Y938534D02*
X105368Y938534D01*
X105368Y938535D02*
X105461Y938537D01*
X105555Y938543D01*
X105648Y938553D01*
X105740Y938567D01*
X105832Y938584D01*
X105923Y938606D01*
X106012Y938631D01*
X106101Y938661D01*
X106189Y938694D01*
X106275Y938730D01*
X106359Y938771D01*
X106441Y938814D01*
X106522Y938862D01*
X106600Y938912D01*
X106677Y938966D01*
X106751Y939024D01*
X106822Y939084D01*
X106891Y939147D01*
X106957Y939213D01*
X107020Y939282D01*
X107080Y939353D01*
X107138Y939427D01*
X107192Y939503D01*
X107242Y939582D01*
X107289Y939663D01*
X107333Y939745D01*
X107374Y939829D01*
X107410Y939915D01*
X107443Y940003D01*
X107473Y940091D01*
X107498Y940181D01*
X107520Y940272D01*
X107537Y940364D01*
X107551Y940456D01*
X107561Y940549D01*
X107567Y940643D01*
X107569Y940736D01*
X107569Y944038D01*
X107569Y948793D02*
X97663Y948793D01*
X97663Y953196D01*
X97663Y957608D02*
X107569Y957608D01*
X97663Y956507D02*
X97663Y958709D01*
X107569Y958709D02*
X107569Y956507D01*
X107569Y962857D02*
X97663Y962857D01*
X107569Y962857D02*
X107569Y965609D01*
X107567Y965712D01*
X107561Y965815D01*
X107552Y965917D01*
X107538Y966019D01*
X107521Y966121D01*
X107500Y966221D01*
X107475Y966321D01*
X107447Y966420D01*
X107415Y966518D01*
X107379Y966614D01*
X107339Y966710D01*
X107296Y966803D01*
X107250Y966895D01*
X107200Y966985D01*
X107147Y967073D01*
X107091Y967159D01*
X107031Y967243D01*
X106969Y967325D01*
X106903Y967404D01*
X106834Y967481D01*
X106763Y967555D01*
X106689Y967626D01*
X106612Y967695D01*
X106533Y967761D01*
X106451Y967823D01*
X106367Y967883D01*
X106281Y967939D01*
X106193Y967992D01*
X106103Y968042D01*
X106011Y968088D01*
X105917Y968131D01*
X105822Y968171D01*
X105726Y968207D01*
X105628Y968239D01*
X105529Y968267D01*
X105429Y968292D01*
X105329Y968313D01*
X105227Y968330D01*
X105125Y968344D01*
X105023Y968353D01*
X104920Y968359D01*
X104817Y968361D01*
X104817Y968360D02*
X100415Y968360D01*
X100415Y968361D02*
X100312Y968359D01*
X100209Y968353D01*
X100107Y968344D01*
X100005Y968330D01*
X99903Y968313D01*
X99803Y968292D01*
X99703Y968267D01*
X99604Y968239D01*
X99506Y968207D01*
X99410Y968171D01*
X99315Y968131D01*
X99221Y968088D01*
X99129Y968042D01*
X99039Y967992D01*
X98951Y967939D01*
X98865Y967883D01*
X98781Y967823D01*
X98699Y967761D01*
X98620Y967695D01*
X98543Y967626D01*
X98469Y967555D01*
X98398Y967481D01*
X98329Y967404D01*
X98263Y967325D01*
X98201Y967243D01*
X98141Y967159D01*
X98085Y967073D01*
X98032Y966985D01*
X97982Y966895D01*
X97936Y966803D01*
X97893Y966710D01*
X97853Y966614D01*
X97817Y966518D01*
X97785Y966420D01*
X97757Y966321D01*
X97732Y966221D01*
X97711Y966121D01*
X97694Y966019D01*
X97680Y965917D01*
X97671Y965815D01*
X97665Y965712D01*
X97663Y965609D01*
X97663Y962857D01*
X97663Y973116D02*
X97663Y977519D01*
X97663Y973116D02*
X107569Y973116D01*
X107569Y977519D01*
X103166Y976418D02*
X103166Y973116D01*
D11*
X163830Y228600D02*
X163834Y228943D01*
X163847Y229285D01*
X163868Y229628D01*
X163897Y229969D01*
X163935Y230310D01*
X163981Y230650D01*
X164036Y230988D01*
X164098Y231325D01*
X164169Y231661D01*
X164249Y231994D01*
X164336Y232326D01*
X164432Y232655D01*
X164535Y232982D01*
X164647Y233306D01*
X164766Y233628D01*
X164893Y233946D01*
X165028Y234261D01*
X165171Y234573D01*
X165322Y234881D01*
X165480Y235185D01*
X165645Y235486D01*
X165818Y235782D01*
X165997Y236074D01*
X166184Y236361D01*
X166378Y236644D01*
X166579Y236922D01*
X166787Y237195D01*
X167001Y237462D01*
X167222Y237725D01*
X167449Y237982D01*
X167682Y238233D01*
X167922Y238478D01*
X168167Y238718D01*
X168418Y238951D01*
X168675Y239178D01*
X168938Y239399D01*
X169205Y239613D01*
X169478Y239821D01*
X169756Y240022D01*
X170039Y240216D01*
X170326Y240403D01*
X170618Y240582D01*
X170914Y240755D01*
X171215Y240920D01*
X171519Y241078D01*
X171827Y241229D01*
X172139Y241372D01*
X172454Y241507D01*
X172772Y241634D01*
X173094Y241753D01*
X173418Y241865D01*
X173745Y241968D01*
X174074Y242064D01*
X174406Y242151D01*
X174739Y242231D01*
X175075Y242302D01*
X175412Y242364D01*
X175750Y242419D01*
X176090Y242465D01*
X176431Y242503D01*
X176772Y242532D01*
X177115Y242553D01*
X177457Y242566D01*
X177800Y242570D01*
X178143Y242566D01*
X178485Y242553D01*
X178828Y242532D01*
X179169Y242503D01*
X179510Y242465D01*
X179850Y242419D01*
X180188Y242364D01*
X180525Y242302D01*
X180861Y242231D01*
X181194Y242151D01*
X181526Y242064D01*
X181855Y241968D01*
X182182Y241865D01*
X182506Y241753D01*
X182828Y241634D01*
X183146Y241507D01*
X183461Y241372D01*
X183773Y241229D01*
X184081Y241078D01*
X184385Y240920D01*
X184686Y240755D01*
X184982Y240582D01*
X185274Y240403D01*
X185561Y240216D01*
X185844Y240022D01*
X186122Y239821D01*
X186395Y239613D01*
X186662Y239399D01*
X186925Y239178D01*
X187182Y238951D01*
X187433Y238718D01*
X187678Y238478D01*
X187918Y238233D01*
X188151Y237982D01*
X188378Y237725D01*
X188599Y237462D01*
X188813Y237195D01*
X189021Y236922D01*
X189222Y236644D01*
X189416Y236361D01*
X189603Y236074D01*
X189782Y235782D01*
X189955Y235486D01*
X190120Y235185D01*
X190278Y234881D01*
X190429Y234573D01*
X190572Y234261D01*
X190707Y233946D01*
X190834Y233628D01*
X190953Y233306D01*
X191065Y232982D01*
X191168Y232655D01*
X191264Y232326D01*
X191351Y231994D01*
X191431Y231661D01*
X191502Y231325D01*
X191564Y230988D01*
X191619Y230650D01*
X191665Y230310D01*
X191703Y229969D01*
X191732Y229628D01*
X191753Y229285D01*
X191766Y228943D01*
X191770Y228600D01*
X191766Y228257D01*
X191753Y227915D01*
X191732Y227572D01*
X191703Y227231D01*
X191665Y226890D01*
X191619Y226550D01*
X191564Y226212D01*
X191502Y225875D01*
X191431Y225539D01*
X191351Y225206D01*
X191264Y224874D01*
X191168Y224545D01*
X191065Y224218D01*
X190953Y223894D01*
X190834Y223572D01*
X190707Y223254D01*
X190572Y222939D01*
X190429Y222627D01*
X190278Y222319D01*
X190120Y222015D01*
X189955Y221714D01*
X189782Y221418D01*
X189603Y221126D01*
X189416Y220839D01*
X189222Y220556D01*
X189021Y220278D01*
X188813Y220005D01*
X188599Y219738D01*
X188378Y219475D01*
X188151Y219218D01*
X187918Y218967D01*
X187678Y218722D01*
X187433Y218482D01*
X187182Y218249D01*
X186925Y218022D01*
X186662Y217801D01*
X186395Y217587D01*
X186122Y217379D01*
X185844Y217178D01*
X185561Y216984D01*
X185274Y216797D01*
X184982Y216618D01*
X184686Y216445D01*
X184385Y216280D01*
X184081Y216122D01*
X183773Y215971D01*
X183461Y215828D01*
X183146Y215693D01*
X182828Y215566D01*
X182506Y215447D01*
X182182Y215335D01*
X181855Y215232D01*
X181526Y215136D01*
X181194Y215049D01*
X180861Y214969D01*
X180525Y214898D01*
X180188Y214836D01*
X179850Y214781D01*
X179510Y214735D01*
X179169Y214697D01*
X178828Y214668D01*
X178485Y214647D01*
X178143Y214634D01*
X177800Y214630D01*
X177457Y214634D01*
X177115Y214647D01*
X176772Y214668D01*
X176431Y214697D01*
X176090Y214735D01*
X175750Y214781D01*
X175412Y214836D01*
X175075Y214898D01*
X174739Y214969D01*
X174406Y215049D01*
X174074Y215136D01*
X173745Y215232D01*
X173418Y215335D01*
X173094Y215447D01*
X172772Y215566D01*
X172454Y215693D01*
X172139Y215828D01*
X171827Y215971D01*
X171519Y216122D01*
X171215Y216280D01*
X170914Y216445D01*
X170618Y216618D01*
X170326Y216797D01*
X170039Y216984D01*
X169756Y217178D01*
X169478Y217379D01*
X169205Y217587D01*
X168938Y217801D01*
X168675Y218022D01*
X168418Y218249D01*
X168167Y218482D01*
X167922Y218722D01*
X167682Y218967D01*
X167449Y219218D01*
X167222Y219475D01*
X167001Y219738D01*
X166787Y220005D01*
X166579Y220278D01*
X166378Y220556D01*
X166184Y220839D01*
X165997Y221126D01*
X165818Y221418D01*
X165645Y221714D01*
X165480Y222015D01*
X165322Y222319D01*
X165171Y222627D01*
X165028Y222939D01*
X164893Y223254D01*
X164766Y223572D01*
X164647Y223894D01*
X164535Y224218D01*
X164432Y224545D01*
X164336Y224874D01*
X164249Y225206D01*
X164169Y225539D01*
X164098Y225875D01*
X164036Y226212D01*
X163981Y226550D01*
X163935Y226890D01*
X163897Y227231D01*
X163868Y227572D01*
X163847Y227915D01*
X163834Y228257D01*
X163830Y228600D01*
X167640Y228600D02*
X167643Y228849D01*
X167652Y229099D01*
X167668Y229347D01*
X167689Y229596D01*
X167716Y229844D01*
X167750Y230091D01*
X167790Y230337D01*
X167835Y230582D01*
X167887Y230826D01*
X167944Y231069D01*
X168008Y231310D01*
X168077Y231549D01*
X168153Y231787D01*
X168234Y232023D01*
X168321Y232257D01*
X168413Y232488D01*
X168512Y232717D01*
X168615Y232944D01*
X168725Y233168D01*
X168840Y233389D01*
X168960Y233608D01*
X169085Y233823D01*
X169216Y234036D01*
X169352Y234245D01*
X169493Y234450D01*
X169639Y234652D01*
X169790Y234851D01*
X169946Y235045D01*
X170107Y235236D01*
X170272Y235423D01*
X170442Y235606D01*
X170616Y235784D01*
X170794Y235958D01*
X170977Y236128D01*
X171164Y236293D01*
X171355Y236454D01*
X171549Y236610D01*
X171748Y236761D01*
X171950Y236907D01*
X172155Y237048D01*
X172364Y237184D01*
X172577Y237315D01*
X172792Y237440D01*
X173011Y237560D01*
X173232Y237675D01*
X173456Y237785D01*
X173683Y237888D01*
X173912Y237987D01*
X174143Y238079D01*
X174377Y238166D01*
X174613Y238247D01*
X174851Y238323D01*
X175090Y238392D01*
X175331Y238456D01*
X175574Y238513D01*
X175818Y238565D01*
X176063Y238610D01*
X176309Y238650D01*
X176556Y238684D01*
X176804Y238711D01*
X177053Y238732D01*
X177301Y238748D01*
X177551Y238757D01*
X177800Y238760D01*
X178049Y238757D01*
X178299Y238748D01*
X178547Y238732D01*
X178796Y238711D01*
X179044Y238684D01*
X179291Y238650D01*
X179537Y238610D01*
X179782Y238565D01*
X180026Y238513D01*
X180269Y238456D01*
X180510Y238392D01*
X180749Y238323D01*
X180987Y238247D01*
X181223Y238166D01*
X181457Y238079D01*
X181688Y237987D01*
X181917Y237888D01*
X182144Y237785D01*
X182368Y237675D01*
X182589Y237560D01*
X182808Y237440D01*
X183023Y237315D01*
X183236Y237184D01*
X183445Y237048D01*
X183650Y236907D01*
X183852Y236761D01*
X184051Y236610D01*
X184245Y236454D01*
X184436Y236293D01*
X184623Y236128D01*
X184806Y235958D01*
X184984Y235784D01*
X185158Y235606D01*
X185328Y235423D01*
X185493Y235236D01*
X185654Y235045D01*
X185810Y234851D01*
X185961Y234652D01*
X186107Y234450D01*
X186248Y234245D01*
X186384Y234036D01*
X186515Y233823D01*
X186640Y233608D01*
X186760Y233389D01*
X186875Y233168D01*
X186985Y232944D01*
X187088Y232717D01*
X187187Y232488D01*
X187279Y232257D01*
X187366Y232023D01*
X187447Y231787D01*
X187523Y231549D01*
X187592Y231310D01*
X187656Y231069D01*
X187713Y230826D01*
X187765Y230582D01*
X187810Y230337D01*
X187850Y230091D01*
X187884Y229844D01*
X187911Y229596D01*
X187932Y229347D01*
X187948Y229099D01*
X187957Y228849D01*
X187960Y228600D01*
X187957Y228351D01*
X187948Y228101D01*
X187932Y227853D01*
X187911Y227604D01*
X187884Y227356D01*
X187850Y227109D01*
X187810Y226863D01*
X187765Y226618D01*
X187713Y226374D01*
X187656Y226131D01*
X187592Y225890D01*
X187523Y225651D01*
X187447Y225413D01*
X187366Y225177D01*
X187279Y224943D01*
X187187Y224712D01*
X187088Y224483D01*
X186985Y224256D01*
X186875Y224032D01*
X186760Y223811D01*
X186640Y223592D01*
X186515Y223377D01*
X186384Y223164D01*
X186248Y222955D01*
X186107Y222750D01*
X185961Y222548D01*
X185810Y222349D01*
X185654Y222155D01*
X185493Y221964D01*
X185328Y221777D01*
X185158Y221594D01*
X184984Y221416D01*
X184806Y221242D01*
X184623Y221072D01*
X184436Y220907D01*
X184245Y220746D01*
X184051Y220590D01*
X183852Y220439D01*
X183650Y220293D01*
X183445Y220152D01*
X183236Y220016D01*
X183023Y219885D01*
X182808Y219760D01*
X182589Y219640D01*
X182368Y219525D01*
X182144Y219415D01*
X181917Y219312D01*
X181688Y219213D01*
X181457Y219121D01*
X181223Y219034D01*
X180987Y218953D01*
X180749Y218877D01*
X180510Y218808D01*
X180269Y218744D01*
X180026Y218687D01*
X179782Y218635D01*
X179537Y218590D01*
X179291Y218550D01*
X179044Y218516D01*
X178796Y218489D01*
X178547Y218468D01*
X178299Y218452D01*
X178049Y218443D01*
X177800Y218440D01*
X177551Y218443D01*
X177301Y218452D01*
X177053Y218468D01*
X176804Y218489D01*
X176556Y218516D01*
X176309Y218550D01*
X176063Y218590D01*
X175818Y218635D01*
X175574Y218687D01*
X175331Y218744D01*
X175090Y218808D01*
X174851Y218877D01*
X174613Y218953D01*
X174377Y219034D01*
X174143Y219121D01*
X173912Y219213D01*
X173683Y219312D01*
X173456Y219415D01*
X173232Y219525D01*
X173011Y219640D01*
X172792Y219760D01*
X172577Y219885D01*
X172364Y220016D01*
X172155Y220152D01*
X171950Y220293D01*
X171748Y220439D01*
X171549Y220590D01*
X171355Y220746D01*
X171164Y220907D01*
X170977Y221072D01*
X170794Y221242D01*
X170616Y221416D01*
X170442Y221594D01*
X170272Y221777D01*
X170107Y221964D01*
X169946Y222155D01*
X169790Y222349D01*
X169639Y222548D01*
X169493Y222750D01*
X169352Y222955D01*
X169216Y223164D01*
X169085Y223377D01*
X168960Y223592D01*
X168840Y223811D01*
X168725Y224032D01*
X168615Y224256D01*
X168512Y224483D01*
X168413Y224712D01*
X168321Y224943D01*
X168234Y225177D01*
X168153Y225413D01*
X168077Y225651D01*
X168008Y225890D01*
X167944Y226131D01*
X167887Y226374D01*
X167835Y226618D01*
X167790Y226863D01*
X167750Y227109D01*
X167716Y227356D01*
X167689Y227604D01*
X167668Y227853D01*
X167652Y228101D01*
X167643Y228351D01*
X167640Y228600D01*
D12*
X136800Y282600D02*
X218800Y282600D01*
X218800Y169600D02*
X136800Y169600D01*
X218800Y277100D02*
X224300Y277100D01*
X218800Y277100D02*
X218800Y282600D01*
X218800Y175100D02*
X218800Y169600D01*
X218800Y175100D02*
X224300Y175100D01*
X136800Y175100D02*
X131300Y175100D01*
X136800Y175100D02*
X136800Y169600D01*
X136800Y277100D02*
X136800Y282600D01*
X136800Y277100D02*
X131300Y277100D01*
X224300Y277100D02*
X224300Y255100D01*
X224300Y207100D02*
X224300Y175100D01*
X131300Y255100D02*
X131300Y277100D01*
X131300Y207100D02*
X131300Y175100D01*
D13*
X196469Y292481D02*
X196469Y302387D01*
X196469Y292481D02*
X192066Y292481D01*
X188148Y292481D02*
X183745Y292481D01*
X188148Y292481D02*
X188148Y302387D01*
X183745Y302387D01*
X184846Y297984D02*
X188148Y297984D01*
X180715Y302387D02*
X177413Y292481D01*
X174111Y302387D01*
X170226Y292481D02*
X165823Y292481D01*
X170226Y292481D02*
X170226Y302387D01*
X165823Y302387D01*
X166924Y297984D02*
X170226Y297984D01*
X161905Y302387D02*
X161905Y292481D01*
X157502Y292481D01*
D11*
X163830Y596900D02*
X163834Y597243D01*
X163847Y597585D01*
X163868Y597928D01*
X163897Y598269D01*
X163935Y598610D01*
X163981Y598950D01*
X164036Y599288D01*
X164098Y599625D01*
X164169Y599961D01*
X164249Y600294D01*
X164336Y600626D01*
X164432Y600955D01*
X164535Y601282D01*
X164647Y601606D01*
X164766Y601928D01*
X164893Y602246D01*
X165028Y602561D01*
X165171Y602873D01*
X165322Y603181D01*
X165480Y603485D01*
X165645Y603786D01*
X165818Y604082D01*
X165997Y604374D01*
X166184Y604661D01*
X166378Y604944D01*
X166579Y605222D01*
X166787Y605495D01*
X167001Y605762D01*
X167222Y606025D01*
X167449Y606282D01*
X167682Y606533D01*
X167922Y606778D01*
X168167Y607018D01*
X168418Y607251D01*
X168675Y607478D01*
X168938Y607699D01*
X169205Y607913D01*
X169478Y608121D01*
X169756Y608322D01*
X170039Y608516D01*
X170326Y608703D01*
X170618Y608882D01*
X170914Y609055D01*
X171215Y609220D01*
X171519Y609378D01*
X171827Y609529D01*
X172139Y609672D01*
X172454Y609807D01*
X172772Y609934D01*
X173094Y610053D01*
X173418Y610165D01*
X173745Y610268D01*
X174074Y610364D01*
X174406Y610451D01*
X174739Y610531D01*
X175075Y610602D01*
X175412Y610664D01*
X175750Y610719D01*
X176090Y610765D01*
X176431Y610803D01*
X176772Y610832D01*
X177115Y610853D01*
X177457Y610866D01*
X177800Y610870D01*
X178143Y610866D01*
X178485Y610853D01*
X178828Y610832D01*
X179169Y610803D01*
X179510Y610765D01*
X179850Y610719D01*
X180188Y610664D01*
X180525Y610602D01*
X180861Y610531D01*
X181194Y610451D01*
X181526Y610364D01*
X181855Y610268D01*
X182182Y610165D01*
X182506Y610053D01*
X182828Y609934D01*
X183146Y609807D01*
X183461Y609672D01*
X183773Y609529D01*
X184081Y609378D01*
X184385Y609220D01*
X184686Y609055D01*
X184982Y608882D01*
X185274Y608703D01*
X185561Y608516D01*
X185844Y608322D01*
X186122Y608121D01*
X186395Y607913D01*
X186662Y607699D01*
X186925Y607478D01*
X187182Y607251D01*
X187433Y607018D01*
X187678Y606778D01*
X187918Y606533D01*
X188151Y606282D01*
X188378Y606025D01*
X188599Y605762D01*
X188813Y605495D01*
X189021Y605222D01*
X189222Y604944D01*
X189416Y604661D01*
X189603Y604374D01*
X189782Y604082D01*
X189955Y603786D01*
X190120Y603485D01*
X190278Y603181D01*
X190429Y602873D01*
X190572Y602561D01*
X190707Y602246D01*
X190834Y601928D01*
X190953Y601606D01*
X191065Y601282D01*
X191168Y600955D01*
X191264Y600626D01*
X191351Y600294D01*
X191431Y599961D01*
X191502Y599625D01*
X191564Y599288D01*
X191619Y598950D01*
X191665Y598610D01*
X191703Y598269D01*
X191732Y597928D01*
X191753Y597585D01*
X191766Y597243D01*
X191770Y596900D01*
X191766Y596557D01*
X191753Y596215D01*
X191732Y595872D01*
X191703Y595531D01*
X191665Y595190D01*
X191619Y594850D01*
X191564Y594512D01*
X191502Y594175D01*
X191431Y593839D01*
X191351Y593506D01*
X191264Y593174D01*
X191168Y592845D01*
X191065Y592518D01*
X190953Y592194D01*
X190834Y591872D01*
X190707Y591554D01*
X190572Y591239D01*
X190429Y590927D01*
X190278Y590619D01*
X190120Y590315D01*
X189955Y590014D01*
X189782Y589718D01*
X189603Y589426D01*
X189416Y589139D01*
X189222Y588856D01*
X189021Y588578D01*
X188813Y588305D01*
X188599Y588038D01*
X188378Y587775D01*
X188151Y587518D01*
X187918Y587267D01*
X187678Y587022D01*
X187433Y586782D01*
X187182Y586549D01*
X186925Y586322D01*
X186662Y586101D01*
X186395Y585887D01*
X186122Y585679D01*
X185844Y585478D01*
X185561Y585284D01*
X185274Y585097D01*
X184982Y584918D01*
X184686Y584745D01*
X184385Y584580D01*
X184081Y584422D01*
X183773Y584271D01*
X183461Y584128D01*
X183146Y583993D01*
X182828Y583866D01*
X182506Y583747D01*
X182182Y583635D01*
X181855Y583532D01*
X181526Y583436D01*
X181194Y583349D01*
X180861Y583269D01*
X180525Y583198D01*
X180188Y583136D01*
X179850Y583081D01*
X179510Y583035D01*
X179169Y582997D01*
X178828Y582968D01*
X178485Y582947D01*
X178143Y582934D01*
X177800Y582930D01*
X177457Y582934D01*
X177115Y582947D01*
X176772Y582968D01*
X176431Y582997D01*
X176090Y583035D01*
X175750Y583081D01*
X175412Y583136D01*
X175075Y583198D01*
X174739Y583269D01*
X174406Y583349D01*
X174074Y583436D01*
X173745Y583532D01*
X173418Y583635D01*
X173094Y583747D01*
X172772Y583866D01*
X172454Y583993D01*
X172139Y584128D01*
X171827Y584271D01*
X171519Y584422D01*
X171215Y584580D01*
X170914Y584745D01*
X170618Y584918D01*
X170326Y585097D01*
X170039Y585284D01*
X169756Y585478D01*
X169478Y585679D01*
X169205Y585887D01*
X168938Y586101D01*
X168675Y586322D01*
X168418Y586549D01*
X168167Y586782D01*
X167922Y587022D01*
X167682Y587267D01*
X167449Y587518D01*
X167222Y587775D01*
X167001Y588038D01*
X166787Y588305D01*
X166579Y588578D01*
X166378Y588856D01*
X166184Y589139D01*
X165997Y589426D01*
X165818Y589718D01*
X165645Y590014D01*
X165480Y590315D01*
X165322Y590619D01*
X165171Y590927D01*
X165028Y591239D01*
X164893Y591554D01*
X164766Y591872D01*
X164647Y592194D01*
X164535Y592518D01*
X164432Y592845D01*
X164336Y593174D01*
X164249Y593506D01*
X164169Y593839D01*
X164098Y594175D01*
X164036Y594512D01*
X163981Y594850D01*
X163935Y595190D01*
X163897Y595531D01*
X163868Y595872D01*
X163847Y596215D01*
X163834Y596557D01*
X163830Y596900D01*
X167640Y596900D02*
X167643Y597149D01*
X167652Y597399D01*
X167668Y597647D01*
X167689Y597896D01*
X167716Y598144D01*
X167750Y598391D01*
X167790Y598637D01*
X167835Y598882D01*
X167887Y599126D01*
X167944Y599369D01*
X168008Y599610D01*
X168077Y599849D01*
X168153Y600087D01*
X168234Y600323D01*
X168321Y600557D01*
X168413Y600788D01*
X168512Y601017D01*
X168615Y601244D01*
X168725Y601468D01*
X168840Y601689D01*
X168960Y601908D01*
X169085Y602123D01*
X169216Y602336D01*
X169352Y602545D01*
X169493Y602750D01*
X169639Y602952D01*
X169790Y603151D01*
X169946Y603345D01*
X170107Y603536D01*
X170272Y603723D01*
X170442Y603906D01*
X170616Y604084D01*
X170794Y604258D01*
X170977Y604428D01*
X171164Y604593D01*
X171355Y604754D01*
X171549Y604910D01*
X171748Y605061D01*
X171950Y605207D01*
X172155Y605348D01*
X172364Y605484D01*
X172577Y605615D01*
X172792Y605740D01*
X173011Y605860D01*
X173232Y605975D01*
X173456Y606085D01*
X173683Y606188D01*
X173912Y606287D01*
X174143Y606379D01*
X174377Y606466D01*
X174613Y606547D01*
X174851Y606623D01*
X175090Y606692D01*
X175331Y606756D01*
X175574Y606813D01*
X175818Y606865D01*
X176063Y606910D01*
X176309Y606950D01*
X176556Y606984D01*
X176804Y607011D01*
X177053Y607032D01*
X177301Y607048D01*
X177551Y607057D01*
X177800Y607060D01*
X178049Y607057D01*
X178299Y607048D01*
X178547Y607032D01*
X178796Y607011D01*
X179044Y606984D01*
X179291Y606950D01*
X179537Y606910D01*
X179782Y606865D01*
X180026Y606813D01*
X180269Y606756D01*
X180510Y606692D01*
X180749Y606623D01*
X180987Y606547D01*
X181223Y606466D01*
X181457Y606379D01*
X181688Y606287D01*
X181917Y606188D01*
X182144Y606085D01*
X182368Y605975D01*
X182589Y605860D01*
X182808Y605740D01*
X183023Y605615D01*
X183236Y605484D01*
X183445Y605348D01*
X183650Y605207D01*
X183852Y605061D01*
X184051Y604910D01*
X184245Y604754D01*
X184436Y604593D01*
X184623Y604428D01*
X184806Y604258D01*
X184984Y604084D01*
X185158Y603906D01*
X185328Y603723D01*
X185493Y603536D01*
X185654Y603345D01*
X185810Y603151D01*
X185961Y602952D01*
X186107Y602750D01*
X186248Y602545D01*
X186384Y602336D01*
X186515Y602123D01*
X186640Y601908D01*
X186760Y601689D01*
X186875Y601468D01*
X186985Y601244D01*
X187088Y601017D01*
X187187Y600788D01*
X187279Y600557D01*
X187366Y600323D01*
X187447Y600087D01*
X187523Y599849D01*
X187592Y599610D01*
X187656Y599369D01*
X187713Y599126D01*
X187765Y598882D01*
X187810Y598637D01*
X187850Y598391D01*
X187884Y598144D01*
X187911Y597896D01*
X187932Y597647D01*
X187948Y597399D01*
X187957Y597149D01*
X187960Y596900D01*
X187957Y596651D01*
X187948Y596401D01*
X187932Y596153D01*
X187911Y595904D01*
X187884Y595656D01*
X187850Y595409D01*
X187810Y595163D01*
X187765Y594918D01*
X187713Y594674D01*
X187656Y594431D01*
X187592Y594190D01*
X187523Y593951D01*
X187447Y593713D01*
X187366Y593477D01*
X187279Y593243D01*
X187187Y593012D01*
X187088Y592783D01*
X186985Y592556D01*
X186875Y592332D01*
X186760Y592111D01*
X186640Y591892D01*
X186515Y591677D01*
X186384Y591464D01*
X186248Y591255D01*
X186107Y591050D01*
X185961Y590848D01*
X185810Y590649D01*
X185654Y590455D01*
X185493Y590264D01*
X185328Y590077D01*
X185158Y589894D01*
X184984Y589716D01*
X184806Y589542D01*
X184623Y589372D01*
X184436Y589207D01*
X184245Y589046D01*
X184051Y588890D01*
X183852Y588739D01*
X183650Y588593D01*
X183445Y588452D01*
X183236Y588316D01*
X183023Y588185D01*
X182808Y588060D01*
X182589Y587940D01*
X182368Y587825D01*
X182144Y587715D01*
X181917Y587612D01*
X181688Y587513D01*
X181457Y587421D01*
X181223Y587334D01*
X180987Y587253D01*
X180749Y587177D01*
X180510Y587108D01*
X180269Y587044D01*
X180026Y586987D01*
X179782Y586935D01*
X179537Y586890D01*
X179291Y586850D01*
X179044Y586816D01*
X178796Y586789D01*
X178547Y586768D01*
X178299Y586752D01*
X178049Y586743D01*
X177800Y586740D01*
X177551Y586743D01*
X177301Y586752D01*
X177053Y586768D01*
X176804Y586789D01*
X176556Y586816D01*
X176309Y586850D01*
X176063Y586890D01*
X175818Y586935D01*
X175574Y586987D01*
X175331Y587044D01*
X175090Y587108D01*
X174851Y587177D01*
X174613Y587253D01*
X174377Y587334D01*
X174143Y587421D01*
X173912Y587513D01*
X173683Y587612D01*
X173456Y587715D01*
X173232Y587825D01*
X173011Y587940D01*
X172792Y588060D01*
X172577Y588185D01*
X172364Y588316D01*
X172155Y588452D01*
X171950Y588593D01*
X171748Y588739D01*
X171549Y588890D01*
X171355Y589046D01*
X171164Y589207D01*
X170977Y589372D01*
X170794Y589542D01*
X170616Y589716D01*
X170442Y589894D01*
X170272Y590077D01*
X170107Y590264D01*
X169946Y590455D01*
X169790Y590649D01*
X169639Y590848D01*
X169493Y591050D01*
X169352Y591255D01*
X169216Y591464D01*
X169085Y591677D01*
X168960Y591892D01*
X168840Y592111D01*
X168725Y592332D01*
X168615Y592556D01*
X168512Y592783D01*
X168413Y593012D01*
X168321Y593243D01*
X168234Y593477D01*
X168153Y593713D01*
X168077Y593951D01*
X168008Y594190D01*
X167944Y594431D01*
X167887Y594674D01*
X167835Y594918D01*
X167790Y595163D01*
X167750Y595409D01*
X167716Y595656D01*
X167689Y595904D01*
X167668Y596153D01*
X167652Y596401D01*
X167643Y596651D01*
X167640Y596900D01*
D12*
X136800Y650900D02*
X218800Y650900D01*
X218800Y537900D02*
X136800Y537900D01*
X218800Y645400D02*
X224300Y645400D01*
X218800Y645400D02*
X218800Y650900D01*
X218800Y543400D02*
X218800Y537900D01*
X218800Y543400D02*
X224300Y543400D01*
X136800Y543400D02*
X131300Y543400D01*
X136800Y543400D02*
X136800Y537900D01*
X136800Y645400D02*
X136800Y650900D01*
X136800Y645400D02*
X131300Y645400D01*
X224300Y645400D02*
X224300Y623400D01*
X224300Y575400D02*
X224300Y543400D01*
X131300Y623400D02*
X131300Y645400D01*
X131300Y575400D02*
X131300Y543400D01*
D13*
X201170Y659215D02*
X201170Y663617D01*
X201168Y663721D01*
X201162Y663825D01*
X201152Y663929D01*
X201139Y664032D01*
X201121Y664135D01*
X201099Y664237D01*
X201074Y664338D01*
X201045Y664438D01*
X201012Y664536D01*
X200975Y664634D01*
X200935Y664730D01*
X200891Y664824D01*
X200844Y664917D01*
X200793Y665008D01*
X200738Y665097D01*
X200681Y665184D01*
X200620Y665268D01*
X200556Y665350D01*
X200488Y665430D01*
X200418Y665507D01*
X200345Y665581D01*
X200270Y665653D01*
X200191Y665721D01*
X200110Y665787D01*
X200027Y665850D01*
X199942Y665909D01*
X199854Y665965D01*
X199764Y666017D01*
X199672Y666067D01*
X199578Y666112D01*
X199483Y666155D01*
X199386Y666193D01*
X199288Y666228D01*
X199189Y666259D01*
X199088Y666286D01*
X198987Y666310D01*
X198884Y666329D01*
X198782Y666345D01*
X198678Y666357D01*
X198574Y666365D01*
X198470Y666369D01*
X198366Y666369D01*
X198262Y666365D01*
X198158Y666357D01*
X198054Y666345D01*
X197952Y666329D01*
X197849Y666310D01*
X197748Y666286D01*
X197647Y666259D01*
X197548Y666228D01*
X197450Y666193D01*
X197353Y666155D01*
X197258Y666112D01*
X197164Y666067D01*
X197072Y666017D01*
X196982Y665965D01*
X196894Y665909D01*
X196809Y665850D01*
X196726Y665787D01*
X196645Y665721D01*
X196566Y665653D01*
X196491Y665581D01*
X196418Y665507D01*
X196348Y665430D01*
X196280Y665350D01*
X196216Y665268D01*
X196155Y665184D01*
X196098Y665097D01*
X196043Y665008D01*
X195992Y664917D01*
X195945Y664824D01*
X195901Y664730D01*
X195861Y664634D01*
X195824Y664536D01*
X195791Y664438D01*
X195762Y664338D01*
X195737Y664237D01*
X195715Y664135D01*
X195697Y664032D01*
X195684Y663929D01*
X195674Y663825D01*
X195668Y663721D01*
X195666Y663617D01*
X195666Y659215D01*
X195668Y659111D01*
X195674Y659007D01*
X195684Y658903D01*
X195697Y658800D01*
X195715Y658697D01*
X195737Y658595D01*
X195762Y658494D01*
X195791Y658394D01*
X195824Y658296D01*
X195861Y658198D01*
X195901Y658102D01*
X195945Y658008D01*
X195992Y657915D01*
X196043Y657824D01*
X196098Y657735D01*
X196155Y657648D01*
X196216Y657564D01*
X196280Y657482D01*
X196348Y657402D01*
X196418Y657325D01*
X196491Y657251D01*
X196566Y657179D01*
X196645Y657111D01*
X196726Y657045D01*
X196809Y656982D01*
X196894Y656923D01*
X196982Y656867D01*
X197072Y656815D01*
X197164Y656765D01*
X197258Y656720D01*
X197353Y656677D01*
X197450Y656639D01*
X197548Y656604D01*
X197647Y656573D01*
X197748Y656546D01*
X197849Y656522D01*
X197952Y656503D01*
X198054Y656487D01*
X198158Y656475D01*
X198262Y656467D01*
X198366Y656463D01*
X198470Y656463D01*
X198574Y656467D01*
X198678Y656475D01*
X198782Y656487D01*
X198884Y656503D01*
X198987Y656522D01*
X199088Y656546D01*
X199189Y656573D01*
X199288Y656604D01*
X199386Y656639D01*
X199483Y656677D01*
X199578Y656720D01*
X199672Y656765D01*
X199764Y656815D01*
X199854Y656867D01*
X199942Y656923D01*
X200027Y656982D01*
X200110Y657045D01*
X200191Y657111D01*
X200270Y657179D01*
X200345Y657251D01*
X200418Y657325D01*
X200488Y657402D01*
X200556Y657482D01*
X200620Y657564D01*
X200681Y657648D01*
X200738Y657735D01*
X200793Y657824D01*
X200844Y657915D01*
X200891Y658008D01*
X200935Y658102D01*
X200975Y658198D01*
X201012Y658296D01*
X201045Y658394D01*
X201074Y658494D01*
X201099Y658595D01*
X201121Y658697D01*
X201139Y658800D01*
X201152Y658903D01*
X201162Y659007D01*
X201168Y659111D01*
X201170Y659215D01*
X191230Y656463D02*
X191230Y666369D01*
X186828Y666369D01*
X186828Y661966D02*
X191230Y661966D01*
X182909Y666369D02*
X182909Y656463D01*
X182909Y666369D02*
X178507Y666369D01*
X178507Y661966D02*
X182909Y661966D01*
X171944Y656463D02*
X171853Y656465D01*
X171762Y656471D01*
X171672Y656480D01*
X171582Y656493D01*
X171492Y656510D01*
X171404Y656530D01*
X171316Y656555D01*
X171229Y656582D01*
X171144Y656614D01*
X171060Y656648D01*
X170977Y656687D01*
X170896Y656728D01*
X170817Y656773D01*
X170740Y656821D01*
X170665Y656873D01*
X170592Y656927D01*
X170521Y656984D01*
X170453Y657045D01*
X170388Y657108D01*
X170325Y657173D01*
X170264Y657241D01*
X170207Y657312D01*
X170153Y657385D01*
X170101Y657460D01*
X170053Y657537D01*
X170008Y657616D01*
X169967Y657697D01*
X169928Y657780D01*
X169894Y657864D01*
X169862Y657949D01*
X169835Y658036D01*
X169810Y658124D01*
X169790Y658212D01*
X169773Y658302D01*
X169760Y658392D01*
X169751Y658482D01*
X169745Y658573D01*
X169743Y658664D01*
X171944Y656463D02*
X172075Y656465D01*
X172206Y656470D01*
X172337Y656480D01*
X172467Y656493D01*
X172597Y656509D01*
X172727Y656529D01*
X172856Y656553D01*
X172984Y656581D01*
X173111Y656612D01*
X173238Y656647D01*
X173363Y656685D01*
X173488Y656727D01*
X173611Y656772D01*
X173732Y656821D01*
X173853Y656873D01*
X173972Y656928D01*
X174089Y656987D01*
X174204Y657049D01*
X174318Y657115D01*
X174430Y657183D01*
X174539Y657255D01*
X174647Y657329D01*
X174753Y657407D01*
X174856Y657488D01*
X174957Y657571D01*
X175056Y657658D01*
X175152Y657747D01*
X175246Y657839D01*
X174971Y664168D02*
X174969Y664259D01*
X174963Y664350D01*
X174954Y664440D01*
X174941Y664530D01*
X174924Y664620D01*
X174904Y664708D01*
X174879Y664796D01*
X174852Y664883D01*
X174820Y664968D01*
X174786Y665052D01*
X174747Y665135D01*
X174706Y665216D01*
X174661Y665295D01*
X174613Y665372D01*
X174561Y665447D01*
X174507Y665520D01*
X174450Y665591D01*
X174389Y665659D01*
X174326Y665724D01*
X174261Y665787D01*
X174193Y665848D01*
X174122Y665905D01*
X174049Y665959D01*
X173974Y666011D01*
X173897Y666059D01*
X173818Y666104D01*
X173737Y666145D01*
X173654Y666184D01*
X173570Y666218D01*
X173485Y666250D01*
X173398Y666277D01*
X173310Y666302D01*
X173222Y666322D01*
X173132Y666339D01*
X173042Y666352D01*
X172952Y666361D01*
X172861Y666367D01*
X172770Y666369D01*
X172770Y666370D02*
X172644Y666368D01*
X172517Y666362D01*
X172391Y666353D01*
X172265Y666339D01*
X172140Y666322D01*
X172015Y666300D01*
X171891Y666275D01*
X171768Y666247D01*
X171646Y666214D01*
X171525Y666178D01*
X171405Y666138D01*
X171286Y666094D01*
X171169Y666047D01*
X171053Y665996D01*
X170939Y665942D01*
X170826Y665884D01*
X170716Y665822D01*
X170607Y665758D01*
X170500Y665690D01*
X170396Y665619D01*
X170293Y665544D01*
X173870Y662242D02*
X173949Y662290D01*
X174026Y662342D01*
X174101Y662398D01*
X174173Y662456D01*
X174243Y662517D01*
X174310Y662581D01*
X174375Y662648D01*
X174436Y662717D01*
X174495Y662789D01*
X174551Y662863D01*
X174604Y662940D01*
X174653Y663019D01*
X174699Y663099D01*
X174742Y663182D01*
X174781Y663266D01*
X174817Y663352D01*
X174849Y663439D01*
X174877Y663527D01*
X174902Y663617D01*
X174923Y663707D01*
X174940Y663798D01*
X174954Y663890D01*
X174963Y663982D01*
X174969Y664075D01*
X174971Y664168D01*
X170844Y660590D02*
X170765Y660542D01*
X170688Y660490D01*
X170613Y660434D01*
X170541Y660376D01*
X170471Y660315D01*
X170404Y660251D01*
X170339Y660184D01*
X170278Y660115D01*
X170219Y660043D01*
X170163Y659969D01*
X170110Y659892D01*
X170061Y659813D01*
X170015Y659733D01*
X169972Y659650D01*
X169933Y659566D01*
X169897Y659480D01*
X169865Y659393D01*
X169837Y659305D01*
X169812Y659215D01*
X169791Y659125D01*
X169774Y659034D01*
X169760Y658942D01*
X169751Y658850D01*
X169745Y658757D01*
X169743Y658664D01*
X170844Y660591D02*
X173871Y662242D01*
X165627Y656463D02*
X161225Y656463D01*
X165627Y656463D02*
X165627Y666369D01*
X161225Y666369D01*
X162325Y661966D02*
X165627Y661966D01*
X155533Y666369D02*
X155533Y656463D01*
X158284Y666369D02*
X152781Y666369D01*
M02*
