G04 EAGLE Gerber RS-274X export*
G75*
%MOMM*%
%FSLAX34Y34*%
%LPD*%
%INSoldermask Top*%
%IPPOS*%
%AMOC8*
5,1,8,0,0,1.08239X$1,22.5*%
G01*
%ADD10C,1.411200*%
%ADD11C,1.853200*%
%ADD12R,1.879600X1.879600*%
%ADD13P,2.034460X8X292.500000*%
%ADD14R,3.319200X3.319200*%
%ADD15P,1.951982X8X22.500000*%
%ADD16C,1.803400*%
%ADD17P,1.649562X8X292.500000*%
%ADD18P,1.649562X8X22.500000*%
%ADD19P,1.649562X8X202.500000*%
%ADD20P,1.649562X8X112.500000*%
%ADD21P,1.759533X8X292.500000*%
%ADD22P,1.951982X8X292.500000*%
%ADD23C,0.959600*%


D10*
X221940Y749300D02*
X209860Y749300D01*
X209860Y774700D02*
X221940Y774700D01*
X221940Y800100D02*
X209860Y800100D01*
X209860Y825500D02*
X221940Y825500D01*
X145740Y825500D02*
X133660Y825500D01*
X133660Y800100D02*
X145740Y800100D01*
X145740Y774700D02*
X133660Y774700D01*
X133660Y749300D02*
X145740Y749300D01*
X209860Y50800D02*
X221940Y50800D01*
X221940Y76200D02*
X209860Y76200D01*
X209860Y101600D02*
X221940Y101600D01*
X221940Y127000D02*
X209860Y127000D01*
X145740Y127000D02*
X133660Y127000D01*
X133660Y101600D02*
X145740Y101600D01*
X145740Y76200D02*
X133660Y76200D01*
X133660Y50800D02*
X145740Y50800D01*
X209860Y355600D02*
X221940Y355600D01*
X221940Y381000D02*
X209860Y381000D01*
X209860Y406400D02*
X221940Y406400D01*
X221940Y431800D02*
X209860Y431800D01*
X145740Y431800D02*
X133660Y431800D01*
X133660Y406400D02*
X145740Y406400D01*
X145740Y381000D02*
X133660Y381000D01*
X133660Y355600D02*
X145740Y355600D01*
D11*
X50800Y762800D03*
X50800Y847800D03*
X50800Y877800D03*
X50800Y26200D03*
X50800Y111200D03*
X50800Y141200D03*
X304800Y762800D03*
X304800Y847800D03*
X304800Y877800D03*
X304800Y26200D03*
X304800Y111200D03*
X304800Y141200D03*
X50800Y394500D03*
X50800Y479500D03*
X50800Y509500D03*
X304800Y394500D03*
X304800Y479500D03*
X304800Y509500D03*
D12*
X202800Y895200D03*
D13*
X177800Y895200D03*
X152800Y895200D03*
D14*
X132800Y965200D03*
X222800Y965200D03*
D12*
X202800Y158600D03*
D13*
X177800Y158600D03*
X152800Y158600D03*
D14*
X132800Y228600D03*
X222800Y228600D03*
D12*
X202800Y526900D03*
D13*
X177800Y526900D03*
X152800Y526900D03*
D14*
X132800Y596900D03*
X222800Y596900D03*
D15*
X304800Y939800D03*
D16*
X279400Y939800D03*
D17*
X114300Y800100D03*
X114300Y723900D03*
D18*
X25400Y190500D03*
X101600Y190500D03*
D19*
X101600Y215900D03*
X25400Y215900D03*
X101600Y165100D03*
X25400Y165100D03*
X330200Y342900D03*
X254000Y342900D03*
X330200Y292100D03*
X254000Y292100D03*
X330200Y317500D03*
X254000Y317500D03*
D17*
X279400Y609600D03*
X279400Y533400D03*
D20*
X304800Y533400D03*
X304800Y609600D03*
D19*
X114300Y330200D03*
X38100Y330200D03*
D18*
X152400Y711200D03*
X203200Y711200D03*
D19*
X203200Y863600D03*
X152400Y863600D03*
D20*
X254000Y139700D03*
X254000Y190500D03*
D18*
X152400Y19050D03*
X203200Y19050D03*
X152400Y317500D03*
X203200Y317500D03*
D19*
X203200Y469900D03*
X152400Y469900D03*
D21*
X38100Y679450D03*
X63500Y679450D03*
X38100Y654050D03*
X63500Y654050D03*
X38100Y628650D03*
X63500Y628650D03*
X38100Y603250D03*
X63500Y603250D03*
X38100Y577850D03*
X63500Y577850D03*
D22*
X317500Y692150D03*
D16*
X317500Y717550D03*
D15*
X298450Y647700D03*
D16*
X273050Y647700D03*
D23*
X165100Y635000D03*
M02*
